<svg version="1.1" xmlns="http://www.w3.org/2000/svg" xmlns:xlink="http://www.w3.org/1999/xlink" viewBox="0 0 32 32">
<path id="Fill-2_21_"  d="M29.1,25.8H2.9C1.8,25.8,1,25,1,24V12.4h30V24C31,25,30.2,25.8,29.1,25.8L29.1,25.8z
	 M2,13.4V24c0,0.5,0.4,0.8,0.8,0.8h26.3c0.5,0,0.8-0.4,0.8-0.8V13.4H2L2,13.4z M21.4,17.9h5.2v3.7h-5.2V17.9z M22.4,20.6h3.2v-1.7
	h-3.2V20.6z M15.4,17.9h5.2v3.7h-5.2V17.9z M16.4,20.6h3.2v-1.7h-3.2V20.6z"/>
<path id="Fill-3_24_"  d="M31,10.8H1V8c0-1,0.8-1.9,1.9-1.9h26.3C30.2,6.2,31,7,31,8L31,10.8L31,10.8L31,10.8z M2,9.8
	h28V8c0-0.5-0.4-0.8-0.8-0.8H2.9C2.4,7.2,2,7.6,2,8V9.8L2,9.8z"/>
</svg>
