<svg version="1.1" xmlns="http://www.w3.org/2000/svg" xmlns:xlink="http://www.w3.org/1999/xlink" viewBox="0 0 32 32">
<path  d="M29.2,11.8c0-5.4,0.4-8.1-1.3-9.5C25.9,0.8,18.5,1,16.3,1C14,1,5.4,1.1,4.2,2.4C2.9,3.6,2.8,5,2.8,14.4
	c0,0.1,0,0.6,0,1.8c0,0-0.1,6.3,1.2,8.3c0.9,1.4,8,1.3,8,1.3l10.8,0c2.1,0,4.4-0.2,5.4-1.2c1.3-1.3,1.1-10.5,1.1-10.5
	S29.2,13.3,29.2,11.8L29.2,11.8z M4.7,18.2c0-0.7,0.5-1.3,1.2-1.3C6.5,17,7,17.5,7,18.2c0,0.7-0.5,1.3-1.2,1.3
	C5.2,19.5,4.7,18.9,4.7,18.2L4.7,18.2z M6.8,23.6c-0.5,0-0.9-0.4-0.9-1c0-0.5,0.4-1,0.9-1c0.5,0,0.9,0.4,0.9,1
	C7.7,23.2,7.3,23.6,6.8,23.6L6.8,23.6z M15.5,15.1c-1.2,0-8.9,0-9.7,0c-0.8,0-1.3-0.5-1.3-1.1c0-0.6-0.4-8.6,1.1-10.1
	c1.5-1.5,9.6-1.2,9.9-1.2c0.6,0,1.3,0.6,1.3,1.4c0,0.8,0,9.5,0,9.5S16.8,15.1,15.5,15.1L15.5,15.1z M25.2,23.5c-0.5,0-0.9-0.4-0.9-1
	c0-0.5,0.4-1,0.9-1s0.9,0.4,0.9,1C26.2,23.1,25.8,23.5,25.2,23.5L25.2,23.5z M26.1,19.5c-0.6,0-1.2-0.6-1.2-1.3
	c0-0.7,0.5-1.3,1.2-1.3c0.6,0,1.2,0.6,1.2,1.3C27.3,18.9,26.7,19.5,26.1,19.5L26.1,19.5z"/>
<polygon  points="9.8,26.2 5.2,31 7.9,31 11.2,26.2 9.8,26.2 "/>
<polygon  points="20.4,27.5 11.6,27.5 10.9,28.3 21.1,28.3 20.4,27.5 "/>
<polygon  points="20.9,26.2 24.2,31 26.8,31 22.4,26.2 20.9,26.2 "/>
<polygon  points="10.5,29.2 9.9,30.1 22.1,30.1 21.5,29.2 10.5,29.2 "/>
</svg>
