<svg version="1.1" xmlns="http://www.w3.org/2000/svg" xmlns:xlink="http://www.w3.org/1999/xlink" viewBox="0 0 32 32">
<circle id="Oval_3_"  cx="18" cy="4.6" r="3.6"/>
<path id="Shape_30_"  d="M20.4,29.7L20.4,29.7c0.5-2.1,0.6-3.9,0.6-5.3c0-2.1-0.3-3.5-0.5-4.3
	c0.3-0.6,0.4-1.3,0.4-2.1c-1.2-0.2-2.2-0.7-2.8-1.4c-0.1-0.1-0.2-0.2-0.3-0.4c-0.4-0.5-0.6-1.1-0.7-1.6c-0.1-0.5-0.2-1-0.2-1.4
	c0-1,0.2-1.8,0.2-1.9c0.1-0.2,0.2-0.4,0.4-0.6c0.2-0.2,0.5-0.2,0.8-0.1c0.2,0,0.3,0.1,0.4,0.3c0.2,0.2,0.3,0.6,0.2,1h0c0,0,0,0,0,0
	c0,0,0,0,0,0.1c0,0.1,0,0.2-0.1,0.3c0,0.2-0.1,0.6-0.1,1c0,0.6,0.1,1.3,0.5,1.8c0.3,0.4,0.7,0.7,1.5,0.9c0-0.8,0.1-1.5,0.1-2.3
	c0.2-1.9-0.7-3.7-2.2-4.3c0,0,0,0,0,0c-0.4-0.2-0.9-0.4-1.4-0.4c-0.5-0.1-1-0.1-1.5-0.1c-0.2,0-0.4,0-0.6,0c-0.2-0.6-0.7-1-1.3-1.2
	l-0.8-0.2c-1-0.2-2,0.4-2.2,1.3l-1.3,5.1c-0.2,1,0.4,2,1.3,2.2l0.8,0.2c1,0.2,2-0.4,2.2-1.3l0.1-0.2c0.3,0.3,0.6,0.5,0.9,0.7
	c0,1,0,1.9,0,2.9c0.1,2,1.2,3.5,2.4,3.8c0.1,0.6,0.2,1.3,0.2,2.2c0,1.2-0.1,2.8-0.5,4.6c-0.2,0.9,0.4,1.8,1.3,2.1c0.1,0,0.3,0,0.4,0
	C19.5,31,20.2,30.5,20.4,29.7L20.4,29.7z M15,13c-0.1-0.1-0.3-0.3-0.3-0.4l0.5-2c0.2,0,0.5,0,0.7,0c0,0,0.1,0,0.1,0
	c-0.4,0.6-0.7,1.4-0.8,2.3c0,0.1,0,0.2,0,0.3C15.1,13.1,15,13.1,15,13L15,13z"/>
<path id="Shape_31_"  d="M18.8,11.9L18.8,11.9c0.1-0.4,0-0.7-0.3-0.9c-0.1,0-0.1-0.1-0.2-0.1c-0.1,0-0.1,0-0.2,0
	c-0.1,0-0.1,0-0.2,0c-0.2,0.1-0.4,0.3-0.5,0.5c-0.1,0.2-0.2,0.9-0.2,1.8c0,0.6,0.1,1.1,0.2,1.6c0.1,0.4,0.3,0.9,0.6,1.2
	c0.1,0.1,0.2,0.2,0.2,0.3c0.6,0.7,1.5,1.2,2.6,1.3c0.2,0,0.5,0.1,0.7,0.1c0,0,0,0,0.1,0c0.4,0,0.7-0.3,0.7-0.7c0-0.2,0-0.4-0.2-0.5
	c-0.1-0.1-0.3-0.2-0.5-0.2c-0.3,0-0.6-0.1-0.8-0.1c-1-0.2-1.4-0.6-1.7-1c-0.5-0.7-0.5-1.5-0.5-2c0-0.4,0-0.8,0.1-1
	C18.7,12.1,18.8,12,18.8,11.9L18.8,11.9z"/>
</svg>
