<svg version="1.1" xmlns="http://www.w3.org/2000/svg" xmlns:xlink="http://www.w3.org/1999/xlink" viewBox="0 0 32 32">
<path id="Shape_24_"  d="M30,22c0.7-0.7,1-1.6,1-2.5L30.7,7.7c-0.1-2.2-1.9-3.9-4-3.9h-3.4h-3.4c-2.2,0-4,1.7-4,3.9
	l-0.3,11.8c0,0.9,0.3,1.9,1,2.5c0.2,0.2,0.5,0.4,0.8,0.6l-1.5,5.6H18l0.6-2.1h9.3l0.6,2.1h2.3l-1.5-5.6C29.5,22.5,29.8,22.3,30,22
	L30,22z M21,5.5c0-0.3,0.3-0.6,0.6-0.6h3.3c0.3,0,0.6,0.3,0.6,0.6v0c0,0.3-0.3,0.6-0.6,0.6h-3.3C21.3,6.2,21,5.9,21,5.5L21,5.5
	L21,5.5z M17.6,8.5c0-0.7,0.6-1.2,1.2-1.2h9c0.7,0,1.2,0.5,1.2,1.2l0.2,4.1c0,0.3-0.1,0.7-0.3,0.9c-0.2,0.2-0.6,0.4-0.9,0.4h-9.3
	c-0.3,0-0.7-0.1-0.9-0.4c-0.2-0.2-0.4-0.6-0.3-0.9L17.6,8.5L17.6,8.5z M17.2,19.4c0-1,0.8-1.8,1.8-1.8c1,0,1.8,0.8,1.8,1.8
	c0,1-0.8,1.8-1.8,1.8C18,21.2,17.2,20.4,17.2,19.4L17.2,19.4z M18.9,24.9l0.5-1.8h7.7l0.5,1.8H18.9L18.9,24.9z M27.5,21.2
	c-1,0-1.8-0.8-1.8-1.8s0.8-1.8,1.8-1.8c1,0,1.8,0.8,1.8,1.8C29.3,20.4,28.5,21.2,27.5,21.2L27.5,21.2z"/>
<circle id="Oval_2_"  cx="7.2" cy="10.9" r="1.4"/>
<path id="Shape_25_"  d="M13.6,22.2h-5v-4c0.3,0,0.6-0.3,0.6-0.7v-3.9c0-0.8-0.6-1.4-1.4-1.4H6.5
	c-0.8,0-1.4,0.6-1.4,1.4v3.9c0,0.4,0.3,0.6,0.6,0.7v4H1v1.5v0.4v4.1h10.3v-4.1h2.3V22.2L13.6,22.2z"/>
</svg>
