<svg version="1.1" xmlns="http://www.w3.org/2000/svg" xmlns:xlink="http://www.w3.org/1999/xlink" viewBox="0 0 32 32">
<path id="Shape_26_"  d="M7.6,18.1h2.7v5H11v-5h2.7v5h0.8v-5h2.7v5h0.8v-5h2.7v5h0.8v-5h2.7v5h3.5v-8.8H20
	c-0.9,1.3-2.4,2.1-4.1,2.1s-3.1-0.8-4.1-2.1H4.1v8.8h3.5V18.1L7.6,18.1z"/>
<path id="Shape_27_"  d="M16,15.9c2.4,0,4.4-2,4.4-4.4s-2-4.4-4.4-4.4s-4.4,2-4.4,4.4C11.6,13.9,13.5,15.9,16,15.9
	L16,15.9z M15.6,14.3c-0.2,0-0.4-0.2-0.4-0.4s0.2-0.4,0.4-0.4c0.2,0,0.4,0.2,0.4,0.4S15.8,14.3,15.6,14.3L15.6,14.3z M17,14.3
	c-0.2,0-0.4-0.2-0.4-0.4s0.2-0.4,0.4-0.4c0.2,0,0.4,0.2,0.4,0.4S17.2,14.3,17,14.3L17,14.3z M13.4,9.1h1.1l0.3,0.9H18l-0.6,1.7h-1.9
	l0.2,0.6h1.6v0.6h-2.1l-1.1-3.2h-0.7V9.1L13.4,9.1z"/>
<polygon id="Shape_28_"  points="1,23.6 1,23.6 1,24.9 31,24.9 31,23.6 31,23.6 "/>
<rect id="Rectangle-path_19_" x="22" y="20.2" transform="matrix(-0.7071 0.7071 -0.7071 -0.7071 53.7011 19.2656)"  width="1.7" height="1"/>
<rect id="Rectangle-path_20_" x="22" y="20" transform="matrix(0.7072 0.707 -0.707 0.7072 21.3546 -9.7959)"  width="1" height="1.7"/>
<rect id="Rectangle-path_21_" x="18.5" y="20.2" transform="matrix(-0.7071 0.7071 -0.7071 -0.7071 47.749 21.7566)"  width="1.7" height="1"/>
<rect id="Rectangle-path_22_" x="18.5" y="20" transform="matrix(0.7071 0.7071 -0.7071 0.7071 20.3566 -7.3448)"  width="1" height="1.7"/>
<rect id="Rectangle-path_23_" x="15.1" y="20.2" transform="matrix(-0.7071 0.7071 -0.7071 -0.7071 41.9012 24.1609)"  width="1.7" height="1"/>
<rect id="Rectangle-path_24_" x="15.1" y="20" transform="matrix(0.7071 0.7071 -0.7071 0.7071 19.3427 -4.915)"  width="1" height="1.7"/>
<rect id="Rectangle-path_25_" x="11.6" y="20.2" transform="matrix(-0.7071 0.7071 -0.7071 -0.7071 35.9967 26.6097)"  width="1.7" height="1"/>
<rect id="Rectangle-path_26_" x="11.6" y="20" transform="matrix(0.7072 0.707 -0.707 0.7072 18.3248 -2.4687)"  width="1" height="1.7"/>
<rect id="Rectangle-path_27_" x="8.2" y="20.2" transform="matrix(-0.7071 0.7071 -0.7071 -0.7071 30.1008 29.0588)"  width="1.7" height="1"/>
<rect id="Rectangle-path_28_" x="8.2" y="20" transform="matrix(0.7071 0.7071 -0.7071 0.7071 17.3235 -3.076850e-002)"  width="1" height="1.7"/>
</svg>
