<svg version="1.1" xmlns="http://www.w3.org/2000/svg" xmlns:xlink="http://www.w3.org/1999/xlink" viewBox="0 0 32 32">
<path id="Shape_32_"  d="M29.3,28.5V7.9h-7.9V1H10.6v6.9H2.8v20.5H1V31h1.8h7.8h10.8h7.9H31v-2.5H29.3L29.3,28.5z
	 M13.7,4h1.5V2.5h1.5V4h1.5v1.5h-1.5V7h-1.5V5.5h-1.5V4L13.7,4z M20.5,11.3v4.8h-3.3v-4.8H20.5L20.5,11.3z M11.5,11.3h3.3v4.8h-3.3
	V11.3L11.5,11.3z M5.6,11.3h3.3v4.8H5.6V11.3L5.6,11.3z M23.5,28.1H8.5v-8.7h15.1V28.1L23.5,28.1z M26.4,16.1h-3.3v-4.8h3.3V16.1
	L26.4,16.1z"/>
</svg>
