<svg version="1.1" xmlns="http://www.w3.org/2000/svg" xmlns:xlink="http://www.w3.org/1999/xlink" viewBox="0 0 32 32">
<path id="Shape_7_"  d="M22.2,17.2c0-0.3-0.2-0.5-0.5-0.5H21c-0.3,0-0.5,0.2-0.5,0.5s0.2,0.5,0.5,0.5h0.7
	C22,17.7,22.2,17.5,22.2,17.2z"/>
<path id="Shape_8_"  d="M30.5,30h-9v-4.6h6.4c0.9,0,1.7-0.4,2.2-0.9c0.6-0.6,0.9-1.3,0.9-2.1c0-0.5-0.1-1-0.4-1.5
	l-2.4-4c0.3-0.4,0.4-0.9,0.4-1.4c0-0.4-0.1-0.8-0.3-1.2l0,0l-2.6-4.4l0.1-0.1c0.3-0.3,0.5-0.8,0.5-1.2c0-0.3-0.1-0.6-0.2-0.9
	l-3.4-5.8c-0.2-0.3-0.4-0.5-0.7-0.7C21.7,1.1,21.4,1,21.1,1c-0.3,0-0.6,0.1-0.9,0.2c-0.3,0.1-0.5,0.4-0.7,0.7l-3.4,5.8
	c-0.2,0.3-0.2,0.6-0.2,0.9c0,0.5,0.2,0.9,0.5,1.2l0,0l-2.6,4.4l0,0c-0.2,0.4-0.3,0.8-0.3,1.2c0,0.5,0.2,1,0.4,1.4l-2.4,4l0,0
	c-0.3,0.5-0.4,1-0.4,1.5c0,0.8,0.3,1.6,0.9,2.1c0.6,0.6,1.3,0.9,2.2,0.9h6.4V30H5.2v-4.6h2.7c0.3,0,0.5-0.2,0.5-0.5
	c0-0.3-0.2-0.5-0.5-0.5H1.5C1.2,24.5,1,24.7,1,25c0,0.3,0.2,0.5,0.5,0.5h2.8V30H1.5C1.2,30,1,30.3,1,30.5C1,30.8,1.2,31,1.5,31h29
	c0.3,0,0.5-0.2,0.5-0.5C31,30.3,30.8,30,30.5,30z M12.6,23.8c-0.4-0.4-0.6-0.9-0.6-1.5c0-0.3,0.1-0.7,0.3-1l0,0l2.3-3.8
	c0.4,0.2,0.8,0.4,1.3,0.4c0.3,0,0.5-0.2,0.5-0.5s-0.2-0.5-0.5-0.5c-0.5,0-0.8-0.2-1.1-0.5l0,0c-0.3-0.3-0.4-0.6-0.4-1
	c0-0.2,0.1-0.5,0.2-0.7l0,0l2.6-4.4c0.1,0,0.3,0,0.4,0h0.9c0.3,0,0.5-0.2,0.5-0.5c0-0.3-0.2-0.5-0.5-0.5h-0.9
	c-0.3,0-0.5-0.1-0.6-0.2c-0.1-0.2-0.2-0.4-0.2-0.6c0-0.1,0-0.3,0.1-0.4l3.4-5.8c0.1-0.1,0.2-0.2,0.3-0.3C20.8,2,20.9,2,21.1,2
	c0.1,0,0.3,0,0.4,0.1c0.1,0.1,0.2,0.2,0.3,0.3l3.4,5.8c0.1,0.1,0.1,0.3,0.1,0.4c0,0.2-0.1,0.4-0.2,0.6C25,9.2,25,9.3,24.9,9.3
	l-0.1,0l0,0c-0.1,0-0.2,0.1-0.3,0.1h-0.9c-0.3,0-0.5,0.2-0.5,0.5c0,0.3,0.2,0.5,0.5,0.5h0.9c0.1,0,0.2,0,0.4,0l2.6,4.4l0,0
	c0.1,0.2,0.2,0.5,0.2,0.7c0,0.4-0.1,0.7-0.4,1l0,0c-0.2,0.3-0.6,0.5-1.1,0.5c-0.3,0-0.5,0.2-0.5,0.5s0.2,0.5,0.5,0.5
	c0.5,0,0.9-0.1,1.3-0.4l2.3,3.8l0,0c0.2,0.3,0.3,0.7,0.3,1c0,0.5-0.2,1.1-0.6,1.5c-0.4,0.4-0.9,0.6-1.6,0.6H21h-6.8
	C13.6,24.5,13,24.2,12.6,23.8z"/>
</svg>
