<svg version="1.1" xmlns="http://www.w3.org/2000/svg" xmlns:xlink="http://www.w3.org/1999/xlink" viewBox="0 0 32 32">
<path id="Fill-3_8_"  d="M8.4,7.7L8.2,7.2C8.1,7.1,8.1,7,8,6.9C7.9,6.7,7.8,6.5,7.7,6.3C7.4,5.9,7,5.5,6.6,5.1
	L5.9,4.5l0.9-0.2c1.6-0.4,7.4-2.4,8.7-3.1c0.4-0.2,0.8-0.2,1.2,0C17.5,1.6,20,2.4,21.9,3c1,0.3,1.9,0.6,2.3,0.8
	c0.2,0.1,0.5,0.2,0.7,0.3l0.4,0.1c0.3,0.1,0.5,0.3,0.5,0.5l0,0.4l-0.4,0.3c-0.4,0.4-0.7,0.7-1,1.1C24.2,6.6,24.1,6.8,24,7
	c-0.1,0.1-0.1,0.2-0.1,0.3l-0.1,0.3l-0.5,0l-0.4-0.1c-0.5-0.2-1-0.3-1.5-0.4c-1-0.2-2-0.4-3.1-0.5c-2.1-0.2-4.1-0.1-6.2,0.3
	C11,7,10,7.3,9,7.6l-0.2,0L8.4,7.7L8.4,7.7L8.4,7.7z M7.9,5c0.2,0.2,0.4,0.5,0.6,0.7c0.2,0.2,0.3,0.5,0.4,0.7C9,6.4,9,6.5,9,6.6
	c1-0.3,1.9-0.5,2.8-0.7c2.2-0.4,4.3-0.5,6.5-0.3c1.1,0.1,2.1,0.3,3.2,0.5c0.5,0.1,1,0.3,1.5,0.4c0.1-0.3,0.3-0.5,0.5-0.7
	C23.8,5.5,24,5.2,24.3,5c-0.2-0.1-0.3-0.1-0.5-0.2c-0.4-0.1-1.2-0.4-2.2-0.8c-2-0.7-4.4-1.5-5.3-1.9C16.1,2,16,2,15.9,2.1
	C14.7,2.7,10,4.3,7.9,5L7.9,5z"/>
<path id="Fill-4_9_"  d="M28.3,31H3.7v-1.3c0-2.7,1-5.2,2.9-7.1l4.3-4.3l0.7,0.7l-4.3,4.3c-1.7,1.7-2.6,3.9-2.6,6.3
	V30h22.7v-0.3c0-2.4-0.9-4.6-2.6-6.3L20.4,19l0.7-0.7l4.3,4.3c1.9,1.9,2.9,4.4,2.9,7.1L28.3,31L28.3,31"/>
<path id="Fill-6_7_"  d="M16.1,11.9c-5.6,0-7.2-3.2-7.3-3.3L8.5,8.1L9,7.9c0.1,0,3.1-1.1,7.1-1.1
	c2.4,0,4.7,0.4,6.8,1.1L23.5,8l-0.2,0.5C23.2,8.7,21.7,11.9,16.1,11.9L16.1,11.9z M10,8.6c0.7,0.8,2.4,2.3,6,2.3
	c3.7,0,5.3-1.5,6-2.3c-1.8-0.6-3.8-0.9-5.9-0.9C13.4,7.8,11.1,8.3,10,8.6L10,8.6z"/>
<path id="Fill-7_6_"  d="M16,19.2c-2.4,0-4.7-1.6-5.7-4.1c-0.4-0.9-0.6-2-0.6-3h1c0,0.9,0.2,1.8,0.5,2.6
	c0.9,2.1,2.8,3.5,4.8,3.5c2.9,0,5.3-2.7,5.3-6.1h1C22.3,16,19.5,19.2,16,19.2"/>
<path id="Fill-9_3_"  d="M10.5,15.3c-1.1-0.5-2.1-1.2-2.1-3.9c0-0.4,0-1.5,0.8-1.8c0.8-0.3,1.7,0.5,1.9,0.6L10.3,11
	c-0.3-0.3-0.7-0.5-0.8-0.4c0,0-0.2,0.1-0.2,0.9c0,2.2,0.8,2.6,1.6,2.9L10.5,15.3"/>
<path id="Fill-10_3_"  d="M21.6,15.3l-0.4-0.9c0.8-0.4,1.6-0.7,1.6-2.9c0-0.7-0.2-0.9-0.2-0.9c-0.1,0-0.5,0.2-0.8,0.4
	l-0.7-0.7c0.2-0.2,1.1-1,1.9-0.6c0.8,0.3,0.8,1.4,0.8,1.8C23.7,14.3,22.4,14.9,21.6,15.3"/>
<polyline id="Fill-11_3_"  points="21.6,19.8 22.4,20.4 14,30.7 13.2,30 21.6,19.8 "/>
<polyline id="Fill-12_3_"  points="22.8,20.5 23.5,21.1 16,30.5 15.2,29.9 22.8,20.5 "/>
</svg>
