<svg version="1.1" xmlns="http://www.w3.org/2000/svg" xmlns:xlink="http://www.w3.org/1999/xlink" viewBox="0 0 32 32">
<polygon id="Fill-2_5_"  points="6.6,15 25.5,15 25.5,17 6.6,17 "/>
<path id="Fill-3_6_"  d="M26.7,23.5c-0.3,0-0.5-0.2-0.5-0.5V9c0-0.3,0.2-0.5,0.5-0.5c0.3,0,0.5,0.2,0.5,0.5V23
	C27.2,23.3,27,23.5,26.7,23.5"/>
<path id="Fill-4_7_"  d="M28.6,22.4c-0.3,0-0.5-0.2-0.5-0.5V10.1c0-0.3,0.2-0.5,0.5-0.5s0.5,0.2,0.5,0.5v11.8
	C29.1,22.1,28.9,22.4,28.6,22.4"/>
<path id="Fill-5_7_"  d="M30.5,20.1c-0.3,0-0.5-0.2-0.5-0.5v-7.2c0-0.3,0.2-0.5,0.5-0.5c0.3,0,0.5,0.2,0.5,0.5v7.2
	C31,19.9,30.8,20.1,30.5,20.1"/>
<path id="Fill-6_5_"  d="M5.3,23.5c-0.3,0-0.5-0.2-0.5-0.5V9c0-0.3,0.2-0.5,0.5-0.5c0.3,0,0.5,0.2,0.5,0.5V23
	C5.8,23.3,5.6,23.5,5.3,23.5"/>
<path id="Fill-7_4_"  d="M3.4,22.4c-0.3,0-0.5-0.2-0.5-0.5V10.1c0-0.3,0.2-0.5,0.5-0.5s0.5,0.2,0.5,0.5v11.8
	C3.9,22.1,3.7,22.4,3.4,22.4"/>
<path id="Fill-8_3_"  d="M1.5,20.1c-0.3,0-0.5-0.2-0.5-0.5v-7.2c0-0.3,0.2-0.5,0.5-0.5S2,12.1,2,12.4v7.2
	C2,19.9,1.7,20.1,1.5,20.1"/>
</svg>
