<svg version="1.1" xmlns="http://www.w3.org/2000/svg" xmlns:xlink="http://www.w3.org/1999/xlink" viewBox="0 0 32 32">
<path id="Shape_12_"  d="M25.8,8.8c-0.4-3-3-5.3-6.1-5.3c-1.5,0-2.9,0.5-3.9,1.4c-1-1.3-2.6-2.1-4.3-2.1
	C8.9,2.8,6.7,4.6,6.1,7C3.3,7.2,1,9.5,1,12.4c0,3,2.5,5.4,5.5,5.4c0.6,0,1.3-0.1,1.8-0.3c1,1.4,2.6,2.2,4.4,2.2c1.1,0,2.2-0.3,3-0.9
	c1,1,2.3,1.5,3.8,1.5c2.2,0,4.1-1.3,5-3.1c0.3,0.1,0.5,0.1,0.8,0.1c2.4,0,4.4-1.9,4.4-4.3C29.8,10.8,28,9,25.8,8.8L25.8,8.8z"/>
<path  d="M24.2,18.4c-1,0-1.9-0.3-2.6-0.9c-1.7,0.9-3.9,0.5-5.1-0.9c-2.7,0.7-5.2-1.4-5.2-4c0-2,1.5-3.7,3.5-4
	c0.5-1.7,2.1-2.9,4-2.9c1.1,0,2.2,0.4,2.9,1.2c0.8-0.5,1.6-0.8,2.6-0.8c2.2,0,4.1,1.5,4.5,3.6c1.6,0.3,2.7,1.7,2.7,3.3
	c0,1.9-1.5,3.4-3.4,3.4c-0.1,0-0.2,0-0.3,0C27.1,17.7,25.7,18.4,24.2,18.4z"/>
<path id="Shape_14_"  d="M4.6,24.2c-0.2,0-0.5,0.4-0.5,0.6c0,0.2,0.4,0.5,0.7,0.5c0.2,0,0.5-0.4,0.5-0.6
	C5.3,24.4,4.9,24.1,4.6,24.2L4.6,24.2z M7.5,21.6c0.2,0,0.5-0.4,0.5-0.6c0-0.2-0.4-0.5-0.6-0.5c-0.2,0-0.5,0.4-0.5,0.6
	C6.8,21.3,7.2,21.6,7.5,21.6L7.5,21.6z M3.6,25.4c-0.3,0-0.7,0.6-0.6,0.8c0,0.3,0.6,0.6,0.8,0.6c0.3,0,0.7-0.6,0.6-0.8
	C4.4,25.7,3.9,25.3,3.6,25.4L3.6,25.4z M5.7,24c0.2,0,0.5-0.4,0.5-0.6c0-0.2-0.4-0.5-0.6-0.4C5.3,23,5,23.4,5,23.6
	C5.1,23.8,5.5,24.1,5.7,24L5.7,24z M6.6,22.8c0.2,0,0.5-0.4,0.5-0.6c0-0.2-0.4-0.5-0.6-0.5c-0.2,0-0.5,0.4-0.5,0.6
	C6,22.5,6.4,22.8,6.6,22.8L6.6,22.8z M1.8,28.1c-0.2,0-0.5,0.4-0.5,0.6c0,0.2,0.4,0.5,0.6,0.5c0.2,0,0.5-0.4,0.5-0.6
	C2.4,28.4,2,28.1,1.8,28.1L1.8,28.1z M2.7,26.9c-0.2,0-0.5,0.4-0.5,0.6c0,0.2,0.4,0.5,0.6,0.5c0.2,0,0.5-0.4,0.5-0.6
	C3.3,27.1,2.9,26.8,2.7,26.9L2.7,26.9z M6.4,26.9c-0.2,0-0.5,0.4-0.5,0.6C6,27.7,6.4,28,6.6,28c0.2,0,0.5-0.4,0.5-0.6
	C7,27.1,6.6,26.8,6.4,26.9L6.4,26.9z M7.4,25.4c-0.3,0-0.7,0.6-0.6,0.8c0,0.3,0.6,0.6,0.8,0.6c0.3,0,0.7-0.6,0.6-0.8
	C8.2,25.7,7.7,25.3,7.4,25.4L7.4,25.4z M5.5,28.1c-0.2,0-0.5,0.4-0.5,0.6c0,0.2,0.4,0.5,0.6,0.5c0.2,0,0.5-0.4,0.5-0.6
	C6.1,28.4,5.8,28.1,5.5,28.1L5.5,28.1z M8.4,24.2c-0.2,0-0.5,0.4-0.5,0.6c0,0.2,0.4,0.5,0.7,0.5c0.2,0,0.5-0.4,0.5-0.6
	S8.6,24.1,8.4,24.2L8.4,24.2z M10.3,22.8c0.2,0,0.5-0.4,0.5-0.6c0-0.2-0.4-0.5-0.6-0.5c-0.2,0-0.5,0.4-0.5,0.6
	C9.7,22.5,10.1,22.8,10.3,22.8L10.3,22.8z M11.2,21.6c0.2,0,0.5-0.4,0.5-0.6c0-0.2-0.4-0.5-0.6-0.5c-0.2,0-0.5,0.4-0.5,0.6
	C10.6,21.3,11,21.6,11.2,21.6L11.2,21.6z M9.4,24c0.2,0,0.5-0.4,0.5-0.6s-0.4-0.5-0.6-0.4c-0.2,0-0.5,0.4-0.5,0.6
	C8.8,23.8,9.2,24.1,9.4,24L9.4,24z M14.9,21.6c0.2,0,0.5-0.4,0.5-0.6c0-0.2-0.4-0.5-0.6-0.5c-0.2,0-0.5,0.4-0.5,0.6
	C14.3,21.3,14.7,21.6,14.9,21.6L14.9,21.6z M13.1,24c0.2,0,0.5-0.4,0.5-0.6c0-0.2-0.4-0.5-0.6-0.4c-0.2,0-0.5,0.4-0.5,0.6
	C12.5,23.8,12.9,24.1,13.1,24L13.1,24z M14,22.8c0.2,0,0.5-0.4,0.5-0.6c0-0.2-0.4-0.5-0.6-0.5c-0.2,0-0.5,0.4-0.5,0.6
	C13.4,22.5,13.8,22.8,14,22.8L14,22.8z M12.1,24.2c-0.2,0-0.5,0.4-0.5,0.6c0,0.2,0.4,0.5,0.7,0.5c0.2,0,0.5-0.4,0.5-0.6
	C12.7,24.4,12.3,24.1,12.1,24.2L12.1,24.2z M11.1,25.4c-0.3,0-0.7,0.6-0.6,0.8c0,0.3,0.6,0.6,0.8,0.6c0.3,0,0.7-0.6,0.6-0.8
	C11.9,25.7,11.4,25.3,11.1,25.4L11.1,25.4z M9.3,28.1c-0.2,0-0.5,0.4-0.5,0.6c0,0.2,0.4,0.5,0.6,0.5c0.2,0,0.5-0.4,0.5-0.6
	C9.9,28.4,9.5,28.1,9.3,28.1L9.3,28.1z M10.1,26.9c-0.2,0-0.5,0.4-0.5,0.6c0,0.2,0.4,0.5,0.6,0.5c0.2,0,0.5-0.4,0.5-0.6
	C10.8,27.1,10.4,26.8,10.1,26.9L10.1,26.9z M18.6,21.6c0.2,0,0.5-0.4,0.5-0.6c0-0.2-0.4-0.5-0.6-0.5c-0.2,0-0.5,0.4-0.5,0.6
	C18,21.3,18.4,21.6,18.6,21.6L18.6,21.6z M17.7,22.8c0.2,0,0.5-0.4,0.5-0.6c0-0.2-0.4-0.5-0.6-0.5c-0.2,0-0.5,0.4-0.5,0.6
	S17.5,22.8,17.7,22.8L17.7,22.8z M16.9,24c0.2,0,0.5-0.4,0.5-0.6c0-0.2-0.4-0.5-0.6-0.4c-0.2,0-0.5,0.4-0.5,0.6
	C16.2,23.8,16.6,24.1,16.9,24L16.9,24z M13.9,26.9c-0.2,0-0.5,0.4-0.5,0.6c0,0.2,0.4,0.5,0.6,0.5c0.2,0,0.5-0.4,0.5-0.6
	C14.5,27.1,14.1,26.8,13.9,26.9L13.9,26.9z M15.8,24.2c-0.2,0-0.5,0.4-0.5,0.6c0,0.2,0.4,0.5,0.7,0.5c0.2,0,0.5-0.4,0.5-0.6
	S16,24.1,15.8,24.2L15.8,24.2z M13,28.1c-0.2,0-0.5,0.4-0.5,0.6c0,0.2,0.4,0.5,0.6,0.5c0.2,0,0.5-0.4,0.5-0.6
	C13.6,28.4,13.2,28.1,13,28.1L13,28.1z M14.8,25.4c-0.3,0-0.7,0.6-0.6,0.8c0,0.3,0.6,0.6,0.8,0.6c0.3,0,0.7-0.6,0.6-0.8
	C15.6,25.7,15.1,25.3,14.8,25.4L14.8,25.4z M20.4,22.9c-0.2,0-0.5,0.4-0.5,0.6c0,0.2,0.4,0.5,0.6,0.4c0.2,0,0.5-0.4,0.5-0.6
	C21,23.2,20.6,22.9,20.4,22.9L20.4,22.9z M22.2,20.5c-0.2,0-0.5,0.4-0.5,0.6c0,0.2,0.4,0.5,0.6,0.5c0.2,0,0.5-0.4,0.5-0.6
	C22.8,20.7,22.4,20.4,22.2,20.5L22.2,20.5z M21.3,21.7c-0.2,0-0.5,0.4-0.5,0.6c0,0.2,0.4,0.5,0.6,0.5c0.2,0,0.5-0.4,0.5-0.6
	C21.9,21.9,21.5,21.6,21.3,21.7L21.3,21.7z M18.5,25.4c-0.3,0-0.7,0.6-0.6,0.8c0,0.3,0.6,0.6,0.8,0.6c0.3,0,0.7-0.6,0.6-0.8
	C19.3,25.7,18.8,25.3,18.5,25.4L18.5,25.4z M16.7,28.1c-0.2,0-0.5,0.4-0.5,0.6c0,0.2,0.4,0.5,0.6,0.5c0.2,0,0.5-0.4,0.5-0.6
	C17.3,28.4,16.9,28.1,16.7,28.1L16.7,28.1z M17.6,26.9c-0.2,0-0.5,0.4-0.5,0.6c0,0.2,0.4,0.5,0.6,0.5c0.2,0,0.5-0.4,0.5-0.6
	C18.2,27.1,17.8,26.8,17.6,26.9L17.6,26.9z M19.5,24.2c-0.2,0-0.5,0.4-0.5,0.6s0.4,0.5,0.7,0.5c0.2,0,0.5-0.4,0.5-0.6
	C20.1,24.4,19.7,24.1,19.5,24.2L19.5,24.2z"/>
</svg>
