<svg version="1.1" xmlns="http://www.w3.org/2000/svg" xmlns:xlink="http://www.w3.org/1999/xlink" viewBox="0 0 32 32">
<path id="Fill-2_1_"  d="M25.1,15.4h3.1h0c0.3,0,0.6-0.3,0.6-0.6c0-0.2-0.1-0.4-0.2-0.5l-1.5-1.5
	c-0.2-0.2-0.6-0.2-0.9,0l-1.6,1.6c-0.2,0.2-0.2,0.4-0.1,0.7C24.7,15.3,24.9,15.4,25.1,15.4"/>
<path id="Fill-3_3_"  d="M26.3,19.7c0.1,0.1,0.3,0.2,0.4,0.2c0.2,0,0.3-0.1,0.4-0.2l1.6-1.6c0.2-0.2,0.2-0.4,0.1-0.7
	c-0.1-0.2-0.3-0.4-0.6-0.4h-3.1c-0.3,0-0.5,0.2-0.6,0.4c-0.1,0.2,0,0.5,0.1,0.7L26.3,19.7"/>
<path id="Fill-4_3_"  d="M22.9,31H3.1V2.7C3.1,1.8,3.8,1,4.8,1h16.4c0.9,0,1.7,0.8,1.7,1.7V31L22.9,31z M4.1,30h17.8
	V2.7c0-0.4-0.3-0.7-0.7-0.7H4.8C4.4,2,4.1,2.3,4.1,2.7L4.1,30L4.1,30L4.1,30z"/>
<polygon id="Fill-5_3_"  points="12.5,1.5 13.6,1.5 13.6,30.4 12.5,30.4 "/>
</svg>
