<svg version="1.1" xmlns="http://www.w3.org/2000/svg" xmlns:xlink="http://www.w3.org/1999/xlink" viewBox="0 0 32 32">
<polygon id="Fill-2_6_"  points="2.4,8 3.6,8 3.6,10 2.4,10 "/>
<polygon id="Fill-3_7_"  points="2.4,4.5 3.6,4.5 3.6,6.4 2.4,6.4 "/>
<polygon id="Fill-4_8_"  points="2.4,1 3.6,1 3.6,3 2.4,3 "/>
<polygon id="Fill-5_8_"  points="2.4,18.5 3.6,18.5 3.6,20.5 2.4,20.5 "/>
<polygon id="Fill-6_6_"  points="2.4,15 3.6,15 3.6,17 2.4,17 "/>
<polygon id="Fill-7_5_"  points="2.4,11.5 3.6,11.5 3.6,13.5 2.4,13.5 "/>
<polygon id="Fill-8_4_"  points="2.4,29 3.6,29 3.6,31 2.4,31 "/>
<polygon id="Fill-9_2_"  points="2.4,25.5 3.6,25.5 3.6,27.5 2.4,27.5 "/>
<polygon id="Fill-10_2_"  points="2.4,22 3.6,22 3.6,24 2.4,24 "/>
<polygon id="Fill-11_2_"  points="28.4,8 29.6,8 29.6,10 28.4,10 "/>
<polygon id="Fill-12_2_"  points="28.4,4.5 29.6,4.5 29.6,6.4 28.4,6.4 "/>
<polygon id="Fill-13_2_"  points="28.4,1 29.6,1 29.6,3 28.4,3 "/>
<polygon id="Fill-14_1_"  points="28.4,18.5 29.6,18.5 29.6,20.5 28.4,20.5 "/>
<polygon id="Fill-15_1_"  points="28.4,15 29.6,15 29.6,17 28.4,17 "/>
<polygon id="Fill-16_1_"  points="28.4,11.5 29.6,11.5 29.6,13.5 28.4,13.5 "/>
<polygon id="Fill-17_1_"  points="28.4,29 29.6,29 29.6,31 28.4,31 "/>
<polygon id="Fill-18_1_"  points="28.4,25.5 29.6,25.5 29.6,27.5 28.4,27.5 "/>
<polygon id="Fill-19_1_"  points="28.4,22 29.6,22 29.6,24 28.4,24 "/>
<path id="Fill-20"  d="M10.3,26.1H9.2V5H16c1.6,0,6.9,0.5,6.9,6.3c0,1.8-0.6,3.2-1.7,4.3c-2,1.9-5.1,1.6-5.2,1.6
	l-5.7,0V26.1L10.3,26.1z M10.3,16.1H16c0.1,0,2.8,0.2,4.4-1.4c0.9-0.8,1.3-2,1.3-3.4c0-4.7-4-5.2-5.8-5.2h-5.7L10.3,16.1L10.3,16.1
	L10.3,16.1z"/>
</svg>
