<svg version="1.1" xmlns="http://www.w3.org/2000/svg" xmlns:xlink="http://www.w3.org/1999/xlink" viewBox="0 0 32 32">
<path id="Fill-2_13_"  d="M16,25.2c-4.5,0-8.2-3.7-8.2-8.2V9h3.6V2c0-0.6,0.5-1,1-1h1.2c0.6,0,1,0.5,1,1V9h2.7V2
	c0-0.6,0.5-1,1-1h1.2c0.6,0,1,0.5,1,1V9h3.6V17C24.2,21.5,20.5,25.2,16,25.2L16,25.2z M8.5,9.6V17c0,4.1,3.4,7.5,7.5,7.5
	s7.5-3.4,7.5-7.5V9.6h-3.6V2c0-0.2-0.2-0.3-0.3-0.3h-1.2C18.2,1.7,18,1.8,18,2v7.6H14V2c0-0.2-0.2-0.3-0.3-0.3h-1.2
	c-0.2,0-0.3,0.2-0.3,0.3v7.6H8.5L8.5,9.6z"/>
<path id="Fill-3_15_"  d="M16,22.1c-2.9,0-5.2-2.3-5.2-5.2c0-2.9,2.3-5.2,5.2-5.2s5.2,2.3,5.2,5.2S18.9,22.1,16,22.1
	L16,22.1z M16,12.4c-2.5,0-4.5,2-4.5,4.5c0,2.5,2,4.5,4.5,4.5c2.5,0,4.5-2,4.5-4.5S18.5,12.4,16,12.4L16,12.4z"/>
<path id="Fill-4_16_"  d="M17.4,19.4l-5-4.7l3,1.1l-0.5-1.9l5,4.8l-3-1.2L17.4,19.4L17.4,19.4z M14.3,15.9l2.2,2
	l-0.4-1.2l1.7,0.7l-2.1-2l0.3,1.2L14.3,15.9L14.3,15.9z"/>
<polygon id="Fill-5_15_"  points="15.4,24.9 16.1,24.9 16.1,31 15.4,31 "/>
</svg>
