<svg version="1.1" xmlns="http://www.w3.org/2000/svg" xmlns:xlink="http://www.w3.org/1999/xlink" viewBox="0 0 32 32">
<path  d="M26.3,25C26.3,25,26.3,25,26.3,25"/>
<path  d="M31,23.5c0-2-2.3-4.7-5.5-5.4c1.3-0.9,2.2-2.6,2.2-4.1c0-2.2-1.8-3.9-4-3.9c-1,0-1.8,0.3-2.5,0.9
	c-0.1,1.4-0.6,2.8-1.4,4.1c0.2,0.8,0.6,1.6,1.1,2.2c3.1,2,5.3,5,5.3,7.8C28.6,24.7,31,24.2,31,23.5L31,23.5z"/>
<path  d="M14.9,16.7c2-1.3,3.4-4,3.4-6.3c0-3.3-2.8-6.1-6.2-6.1C8.8,4.3,6,7,6,10.3c0,2.4,1.4,5,3.4,6.3
	C4.6,17.9,1,22,1,25c0,3.6,22.3,3.6,22.3,0C23.3,22,19.7,17.9,14.9,16.7L14.9,16.7z"/>
</svg>
