<svg version="1.1" xmlns="http://www.w3.org/2000/svg" xmlns:xlink="http://www.w3.org/1999/xlink" viewBox="0 0 32 32">
<path  d="M3.4,28h22.9v3H3.4V28z M26.2,5.1h3V31h-3V5.1z M3.4,18.8h24.4v1.6H3.4V18.8z M23.2,20.3h1.6v7.8h-1.6V20.3z
	 M20.1,18.8h1.6V28h-1.6V18.8z M17.1,20.3h1.6v7.8h-1.6V20.3z M14,18.8h1.6v9.3H14V18.8z M11,20.3h1.6v7.9H11V20.3z M7.9,18.8h1.6
	v9.4H7.9V18.8z M4.9,18.8h1.6v10.7H4.9V18.8z"/>
<path  d="M12,1.8c-1.2,0.1-2.4,0.3-3.5,0.8c-3.4,1.5-5.8,4.8-5.8,8.7h0.1c0.3-0.9,1.5-1.6,2.8-1.6
	c1.3,0,2.5,1,2.8,1.9h0C8.5,7,10.2,3.2,12,1.8L12,1.8z M16.3,2.6c-1.1-0.5-2.2-0.7-3.5-0.8c1.8,1.4,3.5,5.2,3.5,9.8h0
	c0.3-0.9,1.5-1.9,2.8-1.9c1.3,0,2.5,0.7,2.8,1.6h0.1C22.1,7.4,19.7,4.1,16.3,2.6L16.3,2.6z M12.5,1.8c0,0-0.1,0-0.1,0
	c0,0-0.1,0-0.1,0c-1.8,1.3-3.7,5.3-3.7,9.8c0.3-1,1.3-2,2.6-2.4v10h2.4V9.3c1.3,0.4,2.2,1.4,2.5,2.3C16.2,7.1,14.4,3.1,12.5,1.8
	L12.5,1.8z M12.4,1.7c0.1,0,0.1,0,0.1-0.2S12.5,1,12.4,1c-0.1,0-0.1,0.3-0.1,0.5S12.4,1.7,12.4,1.7L12.4,1.7z"/>
</svg>
