<svg version="1.1" xmlns="http://www.w3.org/2000/svg" xmlns:xlink="http://www.w3.org/1999/xlink" viewBox="0 0 32 32">
<path id="Shape_9_"  d="M13.8,19c0.1,2.8-2.3,5.4-5.3,5.8c-3.1,0.5-6-1.1-7.1-3.7c-0.6-1.5-0.5-2.9,0-4.4
	C2,14.8,3,13.1,4.2,11.4c0.9-1.4,2-2.8,3.1-4.2c0.1-0.2,0.2-0.1,0.3,0c0.6,0.7,1.2,1.4,1.7,2.2c1.4,1.8,2.6,3.7,3.6,5.8
	c0.5,1,0.8,2.1,1,3.2C13.8,18.6,13.8,18.8,13.8,19L13.8,19z M4.5,14.2c-0.1,0.1-0.1,0.1-0.1,0.1c-0.6,1.1-1.1,2.1-1.4,3.3
	c-0.4,1.3-0.3,2.6,0.5,3.7c0.3,0.4,0.8,0.8,1.4,0.9c0.5,0.1,0.9-0.1,1.1-0.5c0.2-0.4,0.1-0.7-0.1-1c-0.2-0.2-0.3-0.4-0.5-0.7
	c-0.8-1.1-1.2-2.3-1.2-3.6C4.2,15.8,4.3,15,4.5,14.2L4.5,14.2z"/>
<polygon id="Shape_10_"  points="25.5,19 21.9,23.2 26.1,23.2 31,17.4 26.1,11.6 21.9,11.6 25.5,15.7 17.8,15.7 
	17.8,19 "/>
</svg>
