<svg version="1.1" xmlns="http://www.w3.org/2000/svg" xmlns:xlink="http://www.w3.org/1999/xlink" viewBox="0 0 32 32">
<path  d="M1,5.8H31v2.7H1V5.8z M1,9.9H31v2.7H1V9.9z M3.7,14h24.5v2.7H3.7V14z M1,5.8h2.7v6.8H1V5.8z M28.3,5.8H31
	v6.8h-2.7V5.8z M1,12.6c-0.3,1.4,2.7,4.1,2.7,4.1V14v-1.4H1L1,12.6z M31,12.6h-2.7V14v2.7C28.3,16.7,31.3,14,31,12.6L31,12.6z"/>
<polygon id="Shape_70_"  points="9.2,22.1 9.2,18 5.1,18 5.1,22.1 3.7,22.1 7.2,26.2 10.6,22.1 "/>
<polygon id="Shape_71_"  points="18.7,22.1 18.7,18 14.6,18 14.6,22.1 13.3,22.1 16.7,26.2 20.1,22.1 "/>
<polygon id="Shape_72_"  points="28.3,22.1 28.3,18 24.2,18 24.2,22.1 22.8,22.1 26.2,26.2 29.6,22.1 "/>
</svg>
