<svg version="1.1" xmlns="http://www.w3.org/2000/svg" xmlns:xlink="http://www.w3.org/1999/xlink" viewBox="0 0 32 32">
<path id="Fill-2_2_"  d="M23,28.8c-0.5,0-1-0.3-1.2-0.5c-0.1,0-0.1-0.1-0.2-0.1c-0.1-0.1-0.2-0.1-0.3-0.2
	c-0.6-0.5-1-0.7-1.4-0.4c-2,1.6-2.8,1.3-3.8,0.6C16.1,28,16,28,15.9,27.9c-0.9-0.6-1-0.6-2-0.1c-0.2,0.1-0.4,0.2-0.6,0.3
	c-0.9,0.5-1.4,0.6-2.9-0.3c-1.1-0.7-1.4-0.5-2.1,0.1C8,28,7.8,28.2,7.5,28.3c-0.5,0.3-0.9,0.4-1.4,0.3c-0.9-0.2-1.5-1.2-1.6-1.3
	c-0.1-0.3-0.1-0.6,0.2-0.7c0.3-0.2,0.6-0.1,0.7,0.2C5.6,27,6,27.5,6.4,27.6c0.1,0,0.3,0,0.6-0.1c0.2-0.1,0.4-0.3,0.6-0.4
	c1-0.8,1.7-1.1,3.4-0.2c1.1,0.7,1.2,0.6,1.8,0.3c0.2-0.1,0.4-0.2,0.7-0.4c1.5-0.7,1.9-0.5,3.1,0.2c0.1,0.1,0.3,0.2,0.4,0.3
	c0.6,0.5,0.9,0.7,2.5-0.6c1.1-0.9,2.2,0,2.7,0.4c0.1,0.1,0.2,0.1,0.2,0.2c0.1,0.1,0.2,0.1,0.2,0.2c0.4,0.3,0.6,0.5,1.1,0
	c0.6-0.5,2.1-1.9,3.6-0.4c0.2,0.2,0.2,0.6,0,0.8c-0.2,0.2-0.6,0.2-0.8,0c-0.5-0.5-1-0.6-2.1,0.4C23.8,28.6,23.4,28.8,23,28.8"/>
<path id="Fill-3_4_"  d="M23.3,26.6c-0.6,0-1-0.3-1.2-0.5C22,26,22,26,21.9,25.9c-0.1-0.1-0.2-0.1-0.3-0.2
	c-0.7-0.6-1-0.7-1.4-0.4c-2.1,1.7-2.9,1.4-3.9,0.7c-0.1-0.1-0.2-0.2-0.4-0.2c-1-0.6-1-0.6-2.1-0.1c-0.3,0.1-0.5,0.2-0.6,0.3
	c-1,0.5-1.4,0.6-3-0.3c-1.2-0.7-1.4-0.5-2.3,0.1c-0.2,0.1-0.4,0.3-0.7,0.5c-1.4,0.9-2.8-0.2-3.4-1c-0.2-0.2-0.1-0.6,0.1-0.8
	c0.2-0.2,0.6-0.1,0.8,0.1c0,0,1,1.3,1.9,0.7C6.8,25.2,7,25,7.2,24.9c0.9-0.7,1.7-1.2,3.5-0.2c1.2,0.7,1.3,0.7,1.9,0.3
	c0.2-0.1,0.4-0.2,0.7-0.4c1.6-0.7,2-0.5,3.2,0.2c0.1,0.1,0.3,0.2,0.4,0.3c0.7,0.5,1,0.7,2.6-0.6c1.2-0.9,2.3,0,2.8,0.4
	c0.1,0.1,0.2,0.1,0.2,0.2c0.1,0.1,0.2,0.1,0.2,0.2c0.4,0.3,0.6,0.5,1.2,0c1.5-1.3,3.1-1.5,4.2-0.4c0.2,0.2,0.2,0.6,0,0.8
	c-0.2,0.2-0.6,0.2-0.8,0c-1-1-2.3,0.1-2.7,0.4C24.2,26.5,23.7,26.6,23.3,26.6"/>
<path id="Fill-4_4_"  d="M23.7,24.5c-0.6,0-1-0.4-1.3-0.6c-0.1-0.1-0.1-0.1-0.2-0.1c-0.1-0.1-0.2-0.2-0.3-0.3
	c-0.7-0.6-1.1-0.8-1.5-0.4c-2.2,1.8-3,1.4-4.1,0.7c-0.1-0.1-0.2-0.2-0.4-0.3c-1-0.6-1.1-0.7-2.3-0.1c-0.3,0.1-0.5,0.2-0.7,0.4
	c-1,0.5-1.5,0.7-3.1-0.3c-1.3-0.7-1.5-0.5-2.4,0.1c-0.2,0.2-0.4,0.3-0.7,0.5c-1.8,1.2-3.6-0.9-3.7-1c-0.2-0.2-0.2-0.6,0-0.8
	c0.2-0.2,0.6-0.2,0.8,0c0,0,1.3,1.4,2.3,0.8c0.2-0.2,0.4-0.3,0.6-0.5c1.1-0.8,1.8-1.2,3.6-0.2c1.3,0.8,1.4,0.7,2,0.3
	c0.2-0.1,0.4-0.2,0.7-0.4c1.6-0.8,2.1-0.6,3.3,0.2c0.2,0.1,0.3,0.2,0.4,0.3c0.7,0.5,1.1,0.7,2.8-0.7c1.2-1,2.4,0,2.9,0.4
	c0.1,0.1,0.2,0.1,0.3,0.2c0.1,0.1,0.2,0.1,0.3,0.2c0.5,0.4,0.7,0.5,1.3,0c1.5-1.4,3.4-1.5,4.5-0.4c0.2,0.2,0.2,0.6,0,0.8
	c-0.2,0.2-0.6,0.2-0.8,0c-0.8-0.8-2.1-0.4-3,0.4C24.5,24.3,24.1,24.5,23.7,24.5"/>
<path id="Fill-5_4_"  d="M13.9,19.2c-3.1,0-5.6-2.7-5.6-5.9c0-2.4,2.1-6,3.6-8.6c0.7-1.2,1.4-2.5,1.5-2.9
	c0-0.3,0.3-0.5,0.5-0.5c0.3,0,0.5,0.2,0.5,0.5c0,0.4,0.8,1.8,1.6,3.1c0.4,0.7,0.8,1.4,1.2,2.2c0.1,0.3,0,0.6-0.2,0.7
	c-0.3,0.1-0.6,0-0.7-0.2c-0.4-0.8-0.8-1.5-1.2-2.2c-0.5-0.9-0.9-1.6-1.2-2.2c-0.3,0.5-0.6,1.1-1.1,1.9c-1.5,2.5-3.4,5.9-3.4,8.1
	c0,2.7,2,4.8,4.5,4.8c1.8,0,3.4-1.1,4.2-2.9c0.1-0.3,0.4-0.4,0.7-0.3c0.3,0.1,0.4,0.4,0.3,0.7C18.2,17.8,16.2,19.2,13.9,19.2"/>
<path id="Fill-6_2_"  d="M19.4,15.9c-2.4,0-4.4-2.1-4.4-4.6c0-1.9,1.6-4.6,2.7-6.6C18.2,4,18.8,3,18.9,2.7
	c0-0.3,0.3-0.5,0.5-0.5s0.5,0.2,0.5,0.5C20,3,20.6,4.1,21.1,5c1.2,2.1,2.7,4.7,2.7,6.3C23.8,13.9,21.8,15.9,19.4,15.9L19.4,15.9z
	 M19.4,4.1c-0.2,0.3-0.4,0.7-0.7,1.2c-1.1,1.9-2.6,4.4-2.6,6c0,1.9,1.5,3.5,3.3,3.5c1.8,0,3.3-1.6,3.3-3.5c0-1.3-1.5-3.9-2.5-5.8
	C19.9,5,19.6,4.5,19.4,4.1L19.4,4.1z"/>
<path id="Fill-7_2_"  d="M25.8,30.7H6.2c-0.2,0-0.4-0.1-0.5-0.3L1,18.7c-0.1-0.3,0-0.6,0.3-0.7s0.6,0,0.7,0.3
	l4.6,11.2h18.8L30,18.3c0.1-0.3,0.4-0.4,0.7-0.3c0.3,0.1,0.4,0.4,0.3,0.7l-4.7,11.6C26.2,30.5,26,30.7,25.8,30.7"/>
</svg>
