<svg version="1.1" xmlns="http://www.w3.org/2000/svg" xmlns:xlink="http://www.w3.org/1999/xlink" viewBox="0 0 32 32">
<path id="Fill-3"  d="M20.6,26.4h-2.8c-0.6,0-1-0.4-1-1.1v-1H6.9v1c0,0.7-0.4,1.1-1,1.1H3.1c-1,0-1.1-0.7-1.1-1
	c0,0,0.1-6.1,0.1-6.4c0,0,0-0.5,0.1-0.9H1.8c-0.1,0-0.5-0.1-0.7-0.5c-0.1-0.2-0.2-0.5,0-0.9l0.1-0.2c0.3-0.6,0.6-1.3,1.5-1.3
	c0.2,0,0.3,0,0.4,0c0.1,0,0.2,0,0.2,0c0.3-0.8,1.1-3.3,1.3-3.7c0.3-0.9,1.3-1.9,3-2.2C9.3,9,11.2,9,11.3,9h1.2c0.1,0,2,0,3.7,0.4
	c2.1,0.4,2.8,1.8,3,2.2c0.2,0.5,1,2.9,1.3,3.7c0.1,0,0.3,0,0.5,0h0c0.9,0,1.2,0.7,1.5,1.3l0.1,0.2c0.2,0.4,0.1,0.7,0,0.9
	C22.4,18,22,18.1,22,18.1l-0.5,0c0.1,0.4,0.1,0.9,0.1,0.9c0,0.3,0.1,6.4,0.1,6.4c0,0.5-0.2,0.8-0.4,0.9C21,26.4,20.8,26.4,20.6,26.4
	L20.6,26.4z M6.1,23.5h11.4v1.7c0,0.4,0.1,0.4,0.2,0.4h2.8c0,0,0.2,0,0.2,0c0,0,0.1-0.1,0.1-0.2c0,0-0.1-6.1-0.1-6.4
	c0-0.3-0.1-0.9-0.2-1L20,17.3l1.9,0c0,0,0,0,0-0.1c0,0,0-0.1,0-0.3l-0.1-0.2C21.5,16.2,21.4,16,21,16c-0.2,0-0.3,0-0.4,0
	c-0.5,0-0.6-0.1-0.7-0.1l-0.1-0.1l0-0.1c0,0-1.2-3.4-1.4-3.9c-0.1-0.2-0.7-1.4-2.4-1.7c-1.7-0.3-3.6-0.3-3.6-0.3h-1.1
	c0,0-1.9,0-3.6,0.3c-1.8,0.3-2.3,1.5-2.4,1.7c-0.2,0.5-1.4,3.9-1.4,3.9l0,0.1l-0.1,0.1C3.7,16,3.5,16,3,16c-0.1,0-0.2,0-0.3,0h0
	c-0.4,0-0.5,0.2-0.8,0.8l-0.1,0.2c-0.1,0.1-0.1,0.2,0,0.3c0,0,0.1,0.1,0.1,0.1l1.8,0L3,18c-0.1,0.1-0.1,0.7-0.1,1
	c0,0.3-0.1,6.4-0.1,6.4c0,0.3,0.1,0.3,0.3,0.3h2.8c0.1,0,0.2,0,0.2-0.4V23.5L6.1,23.5z"/>
<path id="Fill-4"  d="M12.3,17.1h-0.8c-0.7,0-4.5,0-6.5-0.9l-0.3-0.1l0.1-0.3c0.2-0.6,1.1-3.6,1.3-4
	c0.4-0.7,1-1.2,5.5-1.2h0.6c4.5,0,5.1,0.5,5.5,1.1c0.3,0.5,1.2,3.5,1.4,4.1l0.1,0.3l-0.3,0.1C16.7,17.1,13,17.1,12.3,17.1L12.3,17.1
	z M12.1,16.4h0.1c0.7,0,3.9,0,5.9-0.7c-0.5-1.6-1-3.3-1.1-3.5c-0.2-0.3-0.5-0.8-4.9-0.8h-0.6c-4.4,0-4.7,0.5-4.8,0.7
	c-0.2,0.3-0.7,2-1.2,3.6c2,0.7,5.2,0.7,5.9,0.7H12.1L12.1,16.4z"/>
<path id="Fill-5"  d="M7,21.3H4.2c-0.7,0-1.2-0.5-1.2-1.2v-0.6c0-0.7,0.5-1.2,1.1-1.2l0.1,0c0.7,0.1,2,0.6,2.8,0.8
	c0.8,0.3,1.1,0.9,1,1.4C8,20.9,7.7,21.3,7,21.3L7,21.3z M4.2,19c-0.2,0-0.4,0.2-0.4,0.5v0.6c0,0.2,0.2,0.5,0.5,0.5H7
	c0.2,0,0.3-0.1,0.4-0.2c0-0.2-0.1-0.4-0.5-0.5C6.1,19.5,4.8,19.1,4.2,19C4.2,19,4.2,19,4.2,19L4.2,19z"/>
<path id="Fill-6"  d="M19.5,21.3h-2.8c-0.7,0-1-0.4-1.1-0.8c-0.1-0.5,0.2-1.1,1-1.4c0.8-0.3,2.1-0.7,2.8-0.9l0.1,0
	c0.6,0,1.1,0.6,1.1,1.2v0.6C20.7,20.7,20.1,21.3,19.5,21.3L19.5,21.3z M19.6,19c-0.7,0.1-2,0.6-2.7,0.8c-0.4,0.1-0.6,0.4-0.5,0.5
	c0,0.1,0.2,0.2,0.4,0.2h2.8c0.2,0,0.5-0.2,0.5-0.5v-0.6C19.9,19.2,19.7,19,19.6,19L19.6,19z"/>
<polygon id="Fill-7"  points="8.4,19.8 15.2,19.8 15.2,20.5 8.4,20.5 "/>
<polygon id="Fill-8"  points="8.4,20.8 15.2,20.8 15.2,21.6 8.4,21.6 "/>
<polygon id="Fill-9"  points="8.4,21.8 15.2,21.8 15.2,22.6 8.4,22.6 "/>
<polygon id="Fill-10"  points="25.5,15 26.3,15 26.3,26 25.5,26 "/>
<path id="Fill-11"  d="M25.9,15.5c-2.8,0-5.1-2.3-5.1-5.1c0-2.8,2.3-5.1,5.1-5.1c2.8,0,5.1,2.3,5.1,5.1
	S28.7,15.5,25.9,15.5L25.9,15.5z M25.9,6.1c-2.4,0-4.3,1.9-4.3,4.3s1.9,4.3,4.3,4.3c2.4,0,4.3-1.9,4.3-4.3
	C30.2,8.1,28.3,6.1,25.9,6.1L25.9,6.1z"/>
<path id="Fill-12"  d="M25.1,13.9h-0.8V7.5h2.2c1.1,0,2.2,0.5,2.2,2.1c0,0.6-0.2,1.1-0.6,1.4
	c-0.7,0.6-1.6,0.5-1.7,0.5l-1.4,0L25.1,13.9L25.1,13.9L25.1,13.9z M25.1,10.7h1.4c0,0,0.7,0,1.1-0.3c0.2-0.2,0.3-0.5,0.3-0.8
	c0-1.1-0.9-1.3-1.4-1.3h-1.4V10.7L25.1,10.7z"/>
<polygon id="Fill-13"  points="24,25.9 27.6,25.9 27.6,26.6 24,26.6 "/>
</svg>
