<svg version="1.1" xmlns="http://www.w3.org/2000/svg" xmlns:xlink="http://www.w3.org/1999/xlink" viewBox="0 0 32 32">
<path id="Shape_73_"  d="M19.1,15.9c0.1,0.3,0.2,1.3,0.2,1.6c0,1.9-1.5,3.4-3.3,3.4c-1.8,0-3.3-1.5-3.3-3.4
	c0-0.3,0.2-1.3,0.2-1.6L1,16v10.7C1,28.6,3.4,31,5.3,31h21.4c1.9,0,4.5-2.6,4.1-4.4C31,26.6,31,16,31,16L19.1,15.9L19.1,15.9z
	 M26.7,7.4h-6.4V3.1c0-0.9-1.2-2.1-2.1-2.1h-4.3c-0.9,0-2.1,1.2-2.1,2.1v4.3H5.3C3.4,7.4,1,7.7,1,9.6v4.3h30V9.6
	C31,7.7,28.6,7.4,26.7,7.4L26.7,7.4z M18.1,5.3h-4.3c-0.1-1.4,0.1-2,0-2.1h4.3C18.2,3.5,18.1,5.3,18.1,5.3L18.1,5.3z M17.7,17.5
	c0-0.3-0.1-0.6-0.2-0.8h-2.9c-0.1,0.2-0.2,0.5-0.2,0.8c0,0.9,0.7,1.7,1.7,1.7C16.9,19.2,17.7,18.5,17.7,17.5L17.7,17.5z"/>
</svg>
