<svg version="1.1" xmlns="http://www.w3.org/2000/svg" xmlns:xlink="http://www.w3.org/1999/xlink" viewBox="0 0 32 32">
<path id="Fill-3_2_"  d="M5.6,31c-1,0-2.1-0.9-3.5-2.7c-1-1.3-1.3-4.1-1.1-6.2C1.2,19.7,9.4,18,9.5,18l0.3,0l0.2,0.2
	c0.2,0.2,1.7,1.2,3.2,1.2c1.5,0,2.9-0.9,3.1-1.1l0.2-0.2l0.3,0c0.4,0.1,0.8,0.2,1.2,0.3l1.8,0.5l-1.3,0.6c-1.1,0.5-2.7,2.7-3,5.1
	c-0.1,1.5,0.3,3.7,2.9,5.5l1.4,0.9L5.6,31L5.6,31z M9.4,19c-2,0.4-7.3,2.1-7.3,3.2c-0.1,1.9,0.2,4.5,0.9,5.5c1.5,2,2.3,2.2,2.6,2.2
	v0.5l0-0.5l10.9,0c-2-1.8-2.3-3.9-2.2-5.5c0.2-2.2,1.3-4.2,2.6-5.3c-0.1,0-0.1,0-0.2,0c-0.6,0.5-2.1,1.2-3.6,1.2
	C11.6,20.3,10.1,19.5,9.4,19L9.4,19z"/>
<path id="Fill-4_2_"  d="M21.3,31h-1l-0.1-0.1c-2.8-1.7-4.2-4.6-3.7-7.2c0.8-3.2,2.8-4.7,4.6-5.4L19.9,5.1
	c0-0.1-0.2-1.6,0.8-2.7c0.7-0.8,1.7-1.1,3-1.1c1.5,0,2.5,0.4,3.2,1.2c0.9,1.2,0.6,2.7,0.6,2.8l-1.1,13.1c2.4,0.9,3.9,2.7,4.5,5.2
	c0.6,2.6-0.8,5.5-3.6,7.2L27.1,31h-1l0-6.5l-2.4,0l-2.4,0L21.3,31L21.3,31z M23.7,2.4c-1,0-1.7,0.3-2.2,0.8C20.8,3.9,20.9,5,20.9,5
	l1.3,14l-0.4,0.1c-1.6,0.5-3.6,1.8-4.3,4.8c-0.5,2,0.6,4.3,2.8,5.8l0-5.3c0-0.6,0.5-1,1-1l2.4,0l2.4,0c0.6,0,1,0.5,1,1l0,5.3
	c2.1-1.5,3.2-3.8,2.7-5.8c-0.6-2.3-2-3.8-4.2-4.6l-0.4-0.1l1.2-14c0-0.1,0.2-1.2-0.4-2C25.6,2.7,24.8,2.4,23.7,2.4L23.7,2.4z"/>
<path id="Fill-5_2_"  d="M12.8,18.4c-1.7,0-5.5-0.8-5.5-8.3h1c0,4.7,1.6,7.2,4.5,7.2c1.9,0,4.5-0.8,4.5-7.2h1
	C18.3,15.7,16.5,18.4,12.8,18.4"/>
<path id="Fill-6_1_"  d="M12.8,11.2C6,11.2,5.1,9.3,5,8.9L4.9,8.5l1-0.8C6,4.5,8.7,1.5,12,1h1.6
	c2.2,0.3,4.2,1.7,5.2,3.6l0.1,0.2l0.5,5.3L19,10.2C17.6,10.9,15.5,11.2,12.8,11.2L12.8,11.2z M6.2,8.8c0.5,0.4,2.1,1.3,6.6,1.3
	c2.4,0,4.2-0.2,5.5-0.7L17.8,5c-0.9-1.6-2.6-2.7-4.3-2.9h-1.4C9.6,2.4,6.9,4.8,6.9,8v0.2L6.2,8.8L6.2,8.8z"/>
</svg>
