<svg version="1.1" xmlns="http://www.w3.org/2000/svg" xmlns:xlink="http://www.w3.org/1999/xlink" viewBox="0 0 32 32">
<path id="Fill-2"  d="M21.3,31c-2.1,0-8.5,0-8.5,0c-0.3,0-0.6-0.3-0.6-0.6l0-28.7c0-0.3,0.3-0.6,0.6-0.6
	c0,0,6.2,0,8.3,0c2.1,0,8.6,0,8.6,0c0.3,0,0.6,0.3,0.6,0.6l0,28.1c0,0.3-0.3,0.6-0.6,0.6C29.6,30.4,23.5,31,21.3,31L21.3,31z
	 M13.2,30c1.4,0,6.3,0,8.1,0c1.8,0,6.8-0.5,8.1-0.6l0-27.4C28,2,23,2,21.2,2c-1.8,0-6.6,0-8,0L13.2,30L13.2,30z"/>
<path id="Fill-3_1_"  d="M11.1,30.8L11.1,30.8l-6.6-0.7C4.3,30,4,29.8,4,29.5c0-0.1-2.8-11.4-2.3-19.8
	c0.2-3.4,1.4-7.3,1.5-7.4C3.2,2,3.4,1.8,3.7,1.8L11,1c0.4,0,0.7,0.3,0.7,0.6l0,28.5C11.7,30.5,11.4,30.8,11.1,30.8L11.1,30.8z
	 M4.9,29.1l5.9,0.6l0-27.7L4,2.8c-0.2,0.8-1.2,4.1-1.4,7C2.2,17.4,4.5,27.5,4.9,29.1L4.9,29.1z"/>
<path id="Fill-4_1_"  d="M27.8,10.1h-13c-0.6,0-1.2-0.5-1.2-1.2V4.7c0-0.6,0.5-1.2,1.2-1.2h13C28.5,3.5,29,4,29,4.7
	v4.2C29,9.5,28.5,10.1,27.8,10.1L27.8,10.1z M14.8,4.5c-0.1,0-0.2,0.1-0.2,0.2v4.2c0,0.1,0.1,0.2,0.2,0.2h13C27.9,9.1,28,9,28,8.9
	V4.7c0-0.1-0.1-0.2-0.2-0.2H14.8L14.8,4.5z"/>
<path id="Fill-5_1_"  d="M17,13.3h-2c-0.6,0-1.2-0.5-1.2-1.2c0-0.6,0.5-1.2,1.2-1.2h2c0.6,0,1.2,0.5,1.2,1.2
	C18.2,12.8,17.6,13.3,17,13.3L17,13.3z M15,11.9c-0.1,0-0.2,0.1-0.2,0.2c0,0.1,0.1,0.2,0.2,0.2h2c0.1,0,0.2-0.1,0.2-0.2
	c0-0.1-0.1-0.2-0.2-0.2H15L15,11.9z"/>
<path id="Fill-7_1_"  d="M27.8,13.3h-2c-0.6,0-1.2-0.5-1.2-1.2c0-0.6,0.5-1.2,1.2-1.2h2c0.6,0,1.2,0.5,1.2,1.2
	C29,12.8,28.5,13.3,27.8,13.3L27.8,13.3z M25.8,11.9c-0.1,0-0.2,0.1-0.2,0.2c0,0.1,0.1,0.2,0.2,0.2h2c0.1,0,0.2-0.1,0.2-0.2
	c0-0.1-0.1-0.2-0.2-0.2H25.8L25.8,11.9z"/>
<path id="Fill-8_1_"  d="M17,19.5h-2c-0.6,0-1.2-0.5-1.2-1.2c0-0.6,0.5-1.2,1.2-1.2h2c0.6,0,1.2,0.5,1.2,1.2
	C18.2,19,17.6,19.5,17,19.5L17,19.5z M15,18.1c-0.1,0-0.2,0.1-0.2,0.2c0,0.1,0.1,0.2,0.2,0.2h2c0.1,0,0.2-0.1,0.2-0.2
	c0-0.1-0.1-0.2-0.2-0.2H15L15,18.1z"/>
<path id="Fill-9_1_"  d="M22.4,19.5h-2c-0.6,0-1.2-0.5-1.2-1.2c0-0.6,0.5-1.2,1.2-1.2h2c0.6,0,1.2,0.5,1.2,1.2
	C23.6,19,23.1,19.5,22.4,19.5L22.4,19.5z M20.4,18.1c-0.1,0-0.2,0.1-0.2,0.2c0,0.1,0.1,0.2,0.2,0.2h2c0.1,0,0.2-0.1,0.2-0.2
	c0-0.1-0.1-0.2-0.2-0.2H20.4L20.4,18.1z"/>
<path id="Fill-10_1_"  d="M27.8,19.5h-2c-0.6,0-1.2-0.5-1.2-1.2c0-0.6,0.5-1.2,1.2-1.2h2c0.6,0,1.2,0.5,1.2,1.2
	C29,19,28.5,19.5,27.8,19.5L27.8,19.5z M25.8,18.1c-0.1,0-0.2,0.1-0.2,0.2c0,0.1,0.1,0.2,0.2,0.2h2c0.1,0,0.2-0.1,0.2-0.2
	c0-0.1-0.1-0.2-0.2-0.2H25.8L25.8,18.1z"/>
<path id="Fill-11_1_"  d="M17,22.6h-2c-0.6,0-1.2-0.5-1.2-1.2c0-0.6,0.5-1.2,1.2-1.2h2c0.6,0,1.2,0.5,1.2,1.2
	C18.2,22.1,17.6,22.6,17,22.6L17,22.6z M15,21.2c-0.1,0-0.2,0.1-0.2,0.2c0,0.1,0.1,0.2,0.2,0.2h2c0.1,0,0.2-0.1,0.2-0.2
	c0-0.1-0.1-0.2-0.2-0.2H15L15,21.2z"/>
<path id="Fill-12_1_"  d="M22.4,22.6h-2c-0.6,0-1.2-0.5-1.2-1.2c0-0.6,0.5-1.2,1.2-1.2h2c0.6,0,1.2,0.5,1.2,1.2
	C23.6,22.1,23.1,22.6,22.4,22.6L22.4,22.6z M20.4,21.2c-0.1,0-0.2,0.1-0.2,0.2c0,0.1,0.1,0.2,0.2,0.2h2c0.1,0,0.2-0.1,0.2-0.2
	c0-0.1-0.1-0.2-0.2-0.2H20.4L20.4,21.2z"/>
<path id="Fill-13_1_"  d="M27.8,22.6h-2c-0.6,0-1.2-0.5-1.2-1.2c0-0.6,0.5-1.2,1.2-1.2h2c0.6,0,1.2,0.5,1.2,1.2
	C29,22.1,28.5,22.6,27.8,22.6L27.8,22.6z M25.8,21.2c-0.1,0-0.2,0.1-0.2,0.2c0,0.1,0.1,0.2,0.2,0.2h2c0.1,0,0.2-0.1,0.2-0.2
	c0-0.1-0.1-0.2-0.2-0.2H25.8L25.8,21.2z"/>
<path id="Fill-14"  d="M17,25.7h-2c-0.6,0-1.2-0.5-1.2-1.2c0-0.6,0.5-1.2,1.2-1.2h2c0.6,0,1.2,0.5,1.2,1.2
	C18.2,25.2,17.6,25.7,17,25.7L17,25.7z M15,24.3c-0.1,0-0.2,0.1-0.2,0.2c0,0.1,0.1,0.2,0.2,0.2h2c0.1,0,0.2-0.1,0.2-0.2
	c0-0.1-0.1-0.2-0.2-0.2H15L15,24.3z"/>
<path id="Fill-15"  d="M22.4,25.7h-2c-0.6,0-1.2-0.5-1.2-1.2c0-0.6,0.5-1.2,1.2-1.2h2c0.6,0,1.2,0.5,1.2,1.2
	C23.6,25.2,23.1,25.7,22.4,25.7L22.4,25.7z M20.4,24.3c-0.1,0-0.2,0.1-0.2,0.2c0,0.1,0.1,0.2,0.2,0.2h2c0.1,0,0.2-0.1,0.2-0.2
	c0-0.1-0.1-0.2-0.2-0.2H20.4L20.4,24.3z"/>
<path id="Fill-16"  d="M27.8,25.7h-2c-0.6,0-1.2-0.5-1.2-1.2c0-0.6,0.5-1.2,1.2-1.2h2c0.6,0,1.2,0.5,1.2,1.2
	C29,25.2,28.5,25.7,27.8,25.7L27.8,25.7z M25.8,24.3c-0.1,0-0.2,0.1-0.2,0.2c0,0.1,0.1,0.2,0.2,0.2h2c0.1,0,0.2-0.1,0.2-0.2
	c0-0.1-0.1-0.2-0.2-0.2H25.8L25.8,24.3z"/>
<path id="Fill-17"  d="M17,28.8h-2c-0.6,0-1.2-0.5-1.2-1.2c0-0.6,0.5-1.2,1.2-1.2h2c0.6,0,1.2,0.5,1.2,1.2
	C18.2,28.3,17.6,28.8,17,28.8L17,28.8z M15,27.4c-0.1,0-0.2,0.1-0.2,0.2s0.1,0.2,0.2,0.2h2c0.1,0,0.2-0.1,0.2-0.2
	c0-0.1-0.1-0.2-0.2-0.2H15L15,27.4z"/>
<path id="Fill-18"  d="M22.4,28.8h-2c-0.6,0-1.2-0.5-1.2-1.2c0-0.6,0.5-1.2,1.2-1.2h2c0.6,0,1.2,0.5,1.2,1.2
	C23.6,28.3,23.1,28.8,22.4,28.8L22.4,28.8z M20.4,27.4c-0.1,0-0.2,0.1-0.2,0.2c0,0.1,0.1,0.2,0.2,0.2h2c0.1,0,0.2-0.1,0.2-0.2
	c0-0.1-0.1-0.2-0.2-0.2H20.4L20.4,27.4z"/>
<path id="Fill-19"  d="M27.8,28.8h-2c-0.6,0-1.2-0.5-1.2-1.2c0-0.6,0.5-1.2,1.2-1.2h2c0.6,0,1.2,0.5,1.2,1.2
	C29,28.3,28.5,28.8,27.8,28.8L27.8,28.8z M25.8,27.4c-0.1,0-0.2,0.1-0.2,0.2c0,0.1,0.1,0.2,0.2,0.2h2c0.1,0,0.2-0.1,0.2-0.2
	c0-0.1-0.1-0.2-0.2-0.2H25.8L25.8,27.4z"/>
</svg>
