<svg version="1.1" xmlns="http://www.w3.org/2000/svg" xmlns:xlink="http://www.w3.org/1999/xlink" viewBox="0 0 32 32">
<path id="Fill-2_8_"  d="M1.6,12.1c-0.1,0-0.3,0-0.4-0.1c-0.2-0.2-0.2-0.6,0-0.8C5,7,10.4,4.7,16,4.7
	c5.6,0,11,2.4,14.8,6.5c0.2,0.2,0.2,0.6,0,0.8c-0.2,0.2-0.6,0.2-0.8,0C26.4,8,21.3,5.8,16,5.8C10.7,5.8,5.6,8,2,11.9
	C1.9,12.1,1.7,12.1,1.6,12.1"/>
<path id="Fill-3_10_"  d="M26.6,16.1c-0.2,0-0.3-0.1-0.4-0.2c-2.6-2.9-6.3-4.5-10.2-4.5S8.4,13,5.8,15.9
	c-0.2,0.2-0.6,0.2-0.8,0c-0.2-0.2-0.3-0.6,0-0.8c2.8-3.1,6.8-4.9,11-4.9s8.2,1.8,11,4.9c0.2,0.2,0.2,0.6,0,0.8
	C26.8,16.1,26.7,16.1,26.6,16.1"/>
<path id="Fill-4_11_"  d="M9.4,20.5c-0.1,0-0.2,0-0.3-0.1c-0.3-0.2-0.3-0.5-0.2-0.8c1.5-2.4,4.2-3.9,7.1-3.9
	c2.8,0,5.5,1.4,7,3.8c0.2,0.3,0.1,0.6-0.2,0.8c-0.3,0.2-0.6,0.1-0.8-0.2c-1.3-2.1-3.6-3.3-6.1-3.3c-2.5,0-4.8,1.3-6.1,3.4
	C9.8,20.4,9.6,20.5,9.4,20.5"/>
<path id="Fill-5_10_"  d="M16,27.3c-2,0-3.7-1.7-3.7-3.7c0-2,1.7-3.7,3.7-3.7s3.7,1.7,3.7,3.7
	C19.7,25.7,18,27.3,16,27.3L16,27.3z M16,21.1c-1.4,0-2.6,1.2-2.6,2.6c0,1.4,1.2,2.6,2.6,2.6c1.4,0,2.6-1.2,2.6-2.6
	C18.6,22.2,17.4,21.1,16,21.1L16,21.1z"/>
</svg>
