<svg version="1.1" xmlns="http://www.w3.org/2000/svg" xmlns:xlink="http://www.w3.org/1999/xlink" viewBox="0 0 32 32">
<path id="Fill-2_17_"  d="M28.4,21.7H3.6C2.2,21.7,1,20.5,1,19c0-1.4,1.2-2.6,2.6-2.6h24.8c1.4,0,2.6,1.2,2.6,2.6
	C31,20.5,29.8,21.7,28.4,21.7L28.4,21.7z M3.6,17.3c-1,0-1.7,0.8-1.7,1.7c0,1,0.8,1.7,1.7,1.7h24.8c1,0,1.7-0.8,1.7-1.7
	c0-1-0.8-1.7-1.7-1.7H3.6L3.6,17.3z"/>
<path id="Fill-3_20_"  d="M28,15.5H4l0-0.5C4,14.9,4.3,3,16,3c11.4,0,12,11.9,12,12L28,15.5L28,15.5z M4.9,14.6h22.2
	C26.9,12.5,25.4,3.9,16,3.9C6.3,3.9,5.1,12.5,4.9,14.6L4.9,14.6z M10.1,13.3c-0.8,0-1.4-0.6-1.4-1.4c0-0.8,0.6-1.4,1.4-1.4
	c0.8,0,1.4,0.6,1.4,1.4C11.5,12.6,10.9,13.3,10.1,13.3L10.1,13.3z M10.1,11.3c-0.3,0-0.5,0.2-0.5,0.5s0.2,0.5,0.5,0.5
	c0.3,0,0.5-0.2,0.5-0.5S10.4,11.3,10.1,11.3L10.1,11.3z M18.1,12.8c-0.8,0-1.4-0.6-1.4-1.4c0-0.8,0.6-1.4,1.4-1.4
	c0.8,0,1.4,0.6,1.4,1.4C19.5,12.1,18.9,12.8,18.1,12.8L18.1,12.8z M18.1,10.8c-0.3,0-0.5,0.2-0.5,0.5s0.2,0.5,0.5,0.5
	c0.3,0,0.5-0.2,0.5-0.5S18.4,10.8,18.1,10.8L18.1,10.8z M23.7,11.5c-0.8,0-1.4-0.6-1.4-1.4s0.6-1.4,1.4-1.4c0.8,0,1.4,0.6,1.4,1.4
	S24.5,11.5,23.7,11.5L23.7,11.5z M23.7,9.5c-0.3,0-0.5,0.2-0.5,0.5c0,0.3,0.2,0.5,0.5,0.5c0.3,0,0.5-0.2,0.5-0.5
	C24.3,9.8,24,9.5,23.7,9.5L23.7,9.5z M12.5,9.6C11.7,9.6,11,9,11,8.2s0.6-1.4,1.4-1.4c0.8,0,1.4,0.6,1.4,1.4S13.3,9.6,12.5,9.6
	L12.5,9.6z M12.5,7.6c-0.3,0-0.5,0.2-0.5,0.5s0.2,0.5,0.5,0.5c0.3,0,0.5-0.2,0.5-0.5C13,7.9,12.8,7.6,12.5,7.6L12.5,7.6z M17.5,8.4
	c-0.8,0-1.4-0.6-1.4-1.4s0.6-1.4,1.4-1.4S19,6.2,19,7C19,7.8,18.3,8.4,17.5,8.4L17.5,8.4z M17.5,6.4C17.2,6.4,17,6.7,17,7
	c0,0.3,0.2,0.5,0.5,0.5s0.5-0.2,0.5-0.5C18.1,6.7,17.8,6.4,17.5,6.4L17.5,6.4z"/>
<path id="Fill-4_21_"  d="M8.1,29c-0.4,0-4.3-0.2-4.3-6.1v-0.4h24.4l0,0.4c0,0.1,0.1,3.4-1.5,5.1
	c-0.7,0.7-1.6,1.1-2.6,1.1L8.1,29L8.1,29z M4.7,23.2c0.2,4.6,2.9,4.8,3.4,4.8v0.4l0.1-0.4l15.9,0c0.8,0,1.4-0.3,2-0.8
	c1.1-1.1,1.3-3.1,1.3-4H4.7L4.7,23.2z"/>
</svg>
