<svg version="1.1" xmlns="http://www.w3.org/2000/svg" xmlns:xlink="http://www.w3.org/1999/xlink" viewBox="0 0 32 32">
<g id="rect-1">
	<path  d="M30.1,27.4H11.4V0.5h18.7V27.4z M12.4,26.4h16.7V1.5H12.4V26.4z"/>
</g>
<rect id="Rectangle-path_10_" x="24.2" y="11.9"  width="1.4" height="12.3"/>
<rect id="Rectangle-path_11_" x="20.1" y="13.3"  width="4.1" height="1.4"/>
<rect id="Rectangle-path_12_" x="20.1" y="16"  width="4.1" height="1.4"/>
<rect id="Rectangle-path_13_" x="20.1" y="18.7"  width="4.1" height="1.4"/>
<rect id="Rectangle-path_14_" x="20.1" y="21.5"  width="4.1" height="1.4"/>
<path id="Shape_11_"  d="M5.8,21.5c0,0-3.4,4.9-3.4,6.6c0,1.6,1.5,3,3.4,3s3.4-1.3,3.4-3C9.2,26.4,5.8,21.5,5.8,21.5
	L5.8,21.5z"/>
<rect id="Rectangle-path_15_" x="5.1" y="16"  width="6.8" height="1.4"/>
<rect id="Rectangle-path_16_" x="5.1" y="16"  width="1.4" height="4.1"/>
<rect id="Rectangle-path_17_" x="7.8" y="11.9"  width="1.4" height="4.1"/>
<rect id="Rectangle-path_18_" x="6.5" y="11.9"  width="4.1" height="1.4"/>
</svg>
