<svg version="1.1" xmlns="http://www.w3.org/2000/svg" xmlns:xlink="http://www.w3.org/1999/xlink" viewBox="0 0 32 32">
<path  d="M11.1,10.3c2.7,2.3,4.6,7.8,1,12.2c2.3-0.9,5.2-2.2,5.2-6.6S11.8,4.2,11.2,1C9.1,2.2,2.9,8.2,2.9,18.4
	c0,3.5,1.7,9.3,6,12.6C8.4,30.4,4,21.1,8.1,14.1C10,21.8,13.3,17.3,11.1,10.3L11.1,10.3z"/>
<path  d="M12.8,25.2c-1.6,0-2.9,1-2.9,2.2c0,1.2,1.3,2.2,2.9,2.2c1.6,0,2.9-1,2.9-2.2C15.8,26.1,14.5,25.2,12.8,25.2
	L12.8,25.2z M18.2,23.5h-6.8c-0.8,0-1.4,0.6-1.4,1.4v2.7c0,0.8,0.6,1.4,1.4,1.4h6.8c0.8,0,1.4-0.6,1.4-1.4v-2.7
	C19.6,24.1,19,23.5,18.2,23.5L18.2,23.5z M19.6,24.9h9.5v2.7h-9.5V24.9z M26.4,24.9h2.7v5.5h-2.7V24.9z"/>
</svg>
