<svg version="1.1" xmlns="http://www.w3.org/2000/svg" xmlns:xlink="http://www.w3.org/1999/xlink" viewBox="0 0 32 32">
<path id="Fill-2_9_"  d="M16.1,30.3c-2.2,0-4.4-0.5-6.4-1.4l-0.5-0.2l15-25.7l0.4,0.3c4,2.8,6.4,7.4,6.4,12.2
	C31,23.6,24.3,30.3,16.1,30.3L16.1,30.3z M10.6,28.2c1.7,0.7,3.6,1.1,5.5,1.1c7.7,0,13.9-6.2,13.9-13.9c0-4.3-2-8.4-5.5-11.1
	L10.6,28.2L10.6,28.2z"/>
<polyline id="Fill-3_11_"  points="13,12.7 17.5,15.5 17,16.4 12.5,13.6 13,12.7 "/>
<path id="Fill-4_12_"  d="M10.8,15.1c-1.7,0-3.1-1.4-3.1-3.1s1.4-3.1,3.1-3.1s3.1,1.4,3.1,3.1S12.5,15.1,10.8,15.1
	L10.8,15.1z M10.8,9.9c-1.2,0-2.1,0.9-2.1,2.1s0.9,2.1,2.1,2.1s2.1-0.9,2.1-2.1S11.9,9.9,10.8,9.9L10.8,9.9z"/>
<path id="Fill-5_11_"  d="M8.6,18.7c-2.4-1.1-3.9-3.6-3.9-6.2c0-3.8,3.1-6.9,6.9-6.9c1.6,0,3.1,0.5,4.3,1.5l-0.6,0.8
	c-1.1-0.8-2.3-1.3-3.7-1.3c-3.2,0-5.9,2.6-5.9,5.9c0,2.2,1.3,4.3,3.3,5.3L8.6,18.7"/>
<path id="Fill-6_9_"  d="M6.9,21.6C3.3,19.9,1,16.2,1,12.2C1,6.4,5.7,1.7,11.5,1.7c2.4,0,4.7,0.8,6.6,2.3l-0.6,0.8
	c-1.7-1.4-3.8-2.1-5.9-2.1C6.3,2.7,2,7,2,12.2c0,3.6,2.1,7,5.4,8.6L6.9,21.6"/>
</svg>
