<svg version="1.1" xmlns="http://www.w3.org/2000/svg" xmlns:xlink="http://www.w3.org/1999/xlink" viewBox="0 0 32 32">
<path id="Fill-2_20_"  d="M24,31l-5.4-0.9c-0.6-0.1-1.5-0.1-2,0L11.1,31L11,30.1l5.5-0.8c0.6-0.1,1.7-0.1,2.3,0
	l5.4,0.9L24,31"/>
<polygon id="Fill-3_23_"  points="17.1,17.9 18,17.9 18,29.4 17.1,29.4 "/>
<path id="Fill-4_23_"  d="M17.6,18.4c-0.4,0-0.8-0.2-1-0.5L7.3,7.2C6.9,6.8,6.9,6.4,7,6.2C7.1,6,7.3,5.7,8,5.7h19.2
	c0.6,0,0.9,0.3,0.9,0.5c0.1,0.2,0.2,0.6-0.3,1l-9.2,10.6C18.3,18.2,17.9,18.4,17.6,18.4L17.6,18.4z M7.8,6.6c0,0,0.1,0.1,0.1,0.1
	l9.2,10.6c0.2,0.3,0.6,0.3,0.8,0l9.2-10.6c0.1-0.1,0.1-0.1,0.1-0.1c0,0-0.1,0-0.2,0H8C7.9,6.6,7.8,6.6,7.8,6.6L7.8,6.6z"/>
<path id="Fill-5_21_"  d="M8.1,9.6c-2.2,0-4-1.6-4.3-3.8C3.6,3.4,5.3,1.3,7.7,1c2.4-0.2,4.5,1.5,4.7,3.8
	c0,0.4,0,0.9-0.1,1.4l-0.8-0.2c0.1-0.4,0.1-0.8,0.1-1.1C11.4,3,9.7,1.6,7.8,1.8C5.9,2,4.5,3.8,4.7,5.7c0.2,1.9,1.9,3.3,3.8,3.1
	c0.2,0,0.5-0.1,0.7-0.1l0.3,0.8C9.2,9.5,8.9,9.5,8.6,9.6C8.4,9.6,8.3,9.6,8.1,9.6"/>
</svg>
