<svg version="1.1" xmlns="http://www.w3.org/2000/svg" xmlns:xlink="http://www.w3.org/1999/xlink" viewBox="0 0 32 32">
<path id="Shape_48_"  d="M2.1,24.6c-0.6,0-1.1,0.5-1.1,1.1s0.5,1.1,1.1,1.1h5c0,0,0,0,0,0l2-2.1H2.1L2.1,24.6z
	 M23.2,6.6C23.6,6.9,24.1,7,24.6,7c1.4,0,2.6-1.1,2.6-2.5c0-1.4-1.2-2.5-2.6-2.5c-1.4,0-2.6,1.1-2.6,2.5c0,0.6,0.2,1.2,0.6,1.7
	L23.2,6.6L23.2,6.6z M30.9,11.6c-0.2-0.4-0.6-0.6-1.1-0.6c-0.2,0-0.4,0-0.6,0.1l-2.9,1.5L25,9.8c-0.1-0.2-0.2-0.3-0.3-0.4
	c0,0,0,0,0-0.1l-2.1-1.8l-0.6-0.5l-1.3-1.1c0,0,0,0-0.1,0c0,0,0,0,0,0c0,0,0,0,0,0c-0.2-0.1-0.4-0.2-0.6-0.2h-5.2
	c-0.4,0-0.8,0.2-1,0.6l-3.2,5.1c-0.3,0.6-0.2,1.3,0.4,1.6c0.2,0.1,0.4,0.2,0.6,0.2c0.4,0,0.8-0.2,1-0.6L15.4,8h3.7l-4.9,7.9
	c0,0,0,0.1,0,0.1c0,0,0,0,0,0c-0.1,0.2-0.1,0.3-0.1,0.5v5.6l-2.4,2.5l-2,2.2l-0.7,0.7c-0.6,0.6-0.6,1.6,0.1,2.2
	c0.3,0.3,0.7,0.4,1.1,0.4c0.4,0,0.9-0.2,1.2-0.5l1.9-2.1l0.7-0.8l0,0l0.8-0.8l1.2-1.3l0.1-0.2c0.1,0,0.2,0,0.2,0
	c0.2,0,0.4,0,0.6-0.1l6.2-2.6c0.5-0.2,0.8-0.6,0.9-1.1c0.1-0.5,0-1-0.3-1.4l-3-3.6l2.3-3.9l1.4,3c0.1,0.3,0.4,0.5,0.7,0.6
	c0.1,0,0.3,0.1,0.4,0.1c0.2,0,0.4,0,0.6-0.1l4-2.1C30.9,12.9,31.2,12.2,30.9,11.6L30.9,11.6z M17.4,20.8v-2.9c0.4,0,0.8-0.1,1.2-0.2
	l1.6,2L17.4,20.8L17.4,20.8z M4.5,23.1h5c0,0,1.2,0,1.2,0l2-2.1H4.5c-0.6,0-1.1,0.5-1.1,1.1C3.4,22.6,3.9,23.1,4.5,23.1L4.5,23.1z
	 M8.1,19.5h3.7c0,0,0.9,0,0.9,0.1l-0.1-2.2H8.1c-0.6,0-1.1,0.5-1.1,1.1S7.5,19.5,8.1,19.5L8.1,19.5z"/>
</svg>
