<svg version="1.1" xmlns="http://www.w3.org/2000/svg" xmlns:xlink="http://www.w3.org/1999/xlink" viewBox="0 0 32 32">
<path id="Fill-2_7_"  d="M25.2,31H6.8c-0.8,0-1.4-0.6-1.4-1.4V2.4C5.4,1.6,6,1,6.8,1h18.4c0.8,0,1.4,0.6,1.4,1.4v27.2
	C26.6,30.4,26,31,25.2,31L25.2,31z M6.8,2C6.6,2,6.4,2.2,6.4,2.4v27.2c0,0.2,0.2,0.4,0.4,0.4h18.4c0.2,0,0.4-0.2,0.4-0.4V2.4
	c0-0.2-0.2-0.4-0.4-0.4H6.8L6.8,2z"/>
<path id="Fill-3_9_"  d="M23.9,4.9c-0.4,0-0.8-0.3-0.8-0.8s0.3-0.8,0.8-0.8c0.4,0,0.8,0.3,0.8,0.8S24.3,4.9,23.9,4.9
	L23.9,4.9z M23.9,3.7c-0.2,0-0.4,0.2-0.4,0.4c0,0.2,0.2,0.4,0.4,0.4c0.2,0,0.4-0.2,0.4-0.4C24.3,3.9,24.1,3.7,23.9,3.7L23.9,3.7z"/>
<path id="Fill-4_10_"  d="M21.6,4.9c-0.4,0-0.8-0.3-0.8-0.8s0.3-0.8,0.8-0.8c0.4,0,0.8,0.3,0.8,0.8S22,4.9,21.6,4.9
	L21.6,4.9z M21.6,3.7c-0.2,0-0.4,0.2-0.4,0.4c0,0.2,0.2,0.4,0.4,0.4c0.2,0,0.4-0.2,0.4-0.4C22,3.9,21.8,3.7,21.6,3.7L21.6,3.7z"/>
<path id="Fill-5_9_"  d="M19.2,3.5c0.3,0,0.6,0.3,0.6,0.6c0,0.3-0.3,0.6-0.6,0.6c-0.3,0-0.6-0.3-0.6-0.6
	C18.7,3.8,18.9,3.5,19.2,3.5"/>
<path id="Fill-6_8_"  d="M19.2,4.9c-0.4,0-0.8-0.3-0.8-0.8s0.3-0.8,0.8-0.8c0.4,0,0.8,0.3,0.8,0.8S19.7,4.9,19.2,4.9
	L19.2,4.9z M19.2,3.7c-0.2,0-0.4,0.2-0.4,0.4c0,0.2,0.2,0.4,0.4,0.4c0.2,0,0.4-0.2,0.4-0.4C19.7,3.9,19.5,3.7,19.2,3.7L19.2,3.7z"/>
<path id="Fill-7_7_"  d="M16.1,26c-4.2,0-7.7-3.5-7.7-7.7c0-4.2,3.5-7.7,7.7-7.7c4.2,0,7.7,3.4,7.7,7.7
	C23.8,22.6,20.4,26,16.1,26L16.1,26z M16.1,11.6c-3.7,0-6.7,3-6.7,6.7c0,3.7,3,6.7,6.7,6.7s6.7-3,6.7-6.7
	C22.8,14.6,19.8,11.6,16.1,11.6L16.1,11.6z"/>
<path id="Fill-8_5_"  d="M16.1,24.4c-3.4,0-6.1-2.7-6.1-6.1c0-3.4,2.7-6.1,6.1-6.1c3.4,0,6.1,2.7,6.1,6.1
	C22.2,21.7,19.5,24.4,16.1,24.4L16.1,24.4z M16.1,13.2c-2.8,0-5.1,2.3-5.1,5.1c0,2.8,2.3,5.1,5.1,5.1s5.1-2.3,5.1-5.1
	C21.2,15.5,18.9,13.2,16.1,13.2L16.1,13.2z"/>
<polygon id="Fill-9_4_"  points="5.9,6 26.1,6 26.1,6.9 5.9,6.9 "/>
<path id="Fill-10_4_"  d="M12.5,20.4h-0.1c-1.3-0.1-2.1-1.2-2.2-1.2l0.8-0.6c0,0,0.6,0.8,1.4,0.8c0.5,0,1-0.3,1.6-0.9
	c0.9-1,1.8-1.5,2.6-1.5c1.2,0,2,1.1,2.4,1.6c0.4,0.5,1.2,0.8,1.7,0.6c0.3-0.1,0.5-0.4,0.5-1h1c0,1-0.4,1.6-1.2,1.9
	c-0.9,0.3-2.1-0.1-2.8-1c-0.5-0.6-1-1.2-1.6-1.2h0c-0.5,0-1.1,0.4-1.8,1.1C14.1,20,13.3,20.4,12.5,20.4"/>
</svg>
