<svg version="1.1" xmlns="http://www.w3.org/2000/svg" xmlns:xlink="http://www.w3.org/1999/xlink" viewBox="0 0 32 32">
<path id="Fill-3_19_"  d="M30.1,26.8H1.9c-0.5,0-0.9-0.4-0.9-0.9v-1C1,24.5,1.4,24,1.9,24h28.2c0.5,0,0.9,0.4,0.9,0.9
	v1C31,26.4,30.6,26.8,30.1,26.8L30.1,26.8z M1.9,24.9l0,1l28.2,0c0,0,0,0,0,0v-1L1.9,24.9L1.9,24.9z"/>
<path id="Fill-4_20_"  d="M28.8,23.8H9.7c-0.1,0-0.3-0.1-0.3-0.2c-0.1-0.1-0.1-0.2-0.1-0.4c0-0.1,0.6-2.5,2.3-4.4
	c0.7-0.8,1.5-1.6,2.2-2.4c-0.9,0.5-1.9,1.2-3,2.2c-2.2,2.2-3,4.7-3,4.8c-0.1,0.2-0.2,0.3-0.4,0.3H3.2c-0.2,0-0.4-0.2-0.4-0.4
	C2.8,16,8.7,10.1,16,10.1S29.2,16,29.2,23.3C29.2,23.6,29,23.8,28.8,23.8L28.8,23.8z M10.3,22.9h18.1C28.1,16.3,22.7,11,16,11
	S3.9,16.3,3.6,22.9H7c0.3-0.8,1.2-2.9,3.1-4.8c2.7-2.7,5.3-3.2,5.4-3.3c0.2,0,0.4,0.1,0.5,0.2c0.1,0.2,0.1,0.4-0.1,0.5
	c0,0-2.3,2.1-3.7,3.8C11.1,20.6,10.5,22.1,10.3,22.9L10.3,22.9z"/>
<polygon id="Fill-5_19_"  points="15.6,8.6 16.4,8.6 16.4,10.5 15.6,10.5 "/>
<path id="Fill-6_13_"  d="M16,9c-1.1,0-1.9-0.9-1.9-1.9c0-1.1,0.9-1.9,1.9-1.9s1.9,0.9,1.9,1.9C17.9,8.1,17.1,9,16,9
	L16,9z M16,6c-0.6,0-1,0.5-1,1c0,0.6,0.5,1,1,1s1-0.5,1-1C17,6.5,16.6,6,16,6L16,6z"/>
</svg>
