<svg version="1.1" xmlns="http://www.w3.org/2000/svg" xmlns:xlink="http://www.w3.org/1999/xlink" viewBox="0 0 32 32">
<path id="Fill-2_16_"  d="M30,13.7H2c-0.7,0-0.9-0.3-1-0.5c-0.1-0.2,0-0.6,0.5-1l13.2-9c0.7-0.5,1.9-0.5,2.5,0l13.2,9
	c0.6,0.4,0.6,0.8,0.5,1C30.9,13.4,30.7,13.7,30,13.7L30,13.7z M2.3,12.8h27.4L16.8,4c-0.4-0.3-1.1-0.3-1.5,0L2.3,12.8L2.3,12.8z"/>
<path id="Fill-3_18_"  d="M29.4,29.1H2.6c-0.5,0-0.9-0.2-1.1-0.5s-0.2-0.8-0.1-1.2l0.3-0.6C2.1,26,3,25.3,3.9,25.3
	h24.3c0.9,0,1.8,0.6,2.1,1.4l0.3,0.6c0.2,0.4,0.2,0.9-0.1,1.2C30.2,28.9,29.8,29.1,29.4,29.1L29.4,29.1z M3.9,26.3
	c-0.5,0-1.1,0.4-1.3,0.8l-0.3,0.6c-0.1,0.2-0.1,0.3,0,0.4c0.1,0.1,0.2,0.1,0.3,0.1h26.7c0.2,0,0.3,0,0.3-0.1c0.1-0.1,0-0.2,0-0.4
	l-0.3-0.6c-0.2-0.5-0.8-0.8-1.3-0.8H3.9L3.9,26.3z"/>
<polygon id="Fill-4_19_"  points="5.6,13.4 6.5,13.4 6.5,25.9 5.6,25.9 "/>
<polygon id="Fill-5_18_"  points="8,13.4 8.9,13.4 8.9,25.9 8,25.9 "/>
<polygon id="Fill-6_12_"  points="11.4,13.4 12.3,13.4 12.3,25.9 11.4,25.9 "/>
<polygon id="Fill-7_9_"  points="13.8,13.4 14.8,13.4 14.8,25.9 13.8,25.9 "/>
<polygon id="Fill-8_7_"  points="17.2,13.4 18.2,13.4 18.2,25.9 17.2,25.9 "/>
<polygon id="Fill-9_6_"  points="19.7,13.4 20.6,13.4 20.6,25.9 19.7,25.9 "/>
<polygon id="Fill-10_5_"  points="23.1,13.4 24,13.4 24,25.9 23.1,25.9 "/>
<polygon id="Fill-11_4_"  points="25.5,13.4 26.4,13.4 26.4,25.9 25.5,25.9 "/>
</svg>
