<svg version="1.1" xmlns="http://www.w3.org/2000/svg" xmlns:xlink="http://www.w3.org/1999/xlink" viewBox="0 0 32 32">
<path id="Shape_49_"  d="M23.7,25.3l-3.6-3.6c-0.3-0.3-0.8-0.3-1.1,0l0,0.1l-1-1c-0.8-0.9-1-2.9-1-4.3
	c0,0,0-0.1,0-0.1c0.1-0.4,0.1-0.9,0.1-1.4c0-0.4-0.1-0.8-0.1-1.2c0-0.1,0-0.3-0.1-0.4c0,0,0,0,0,0c-0.4-2-1.5-4-3.2-5.6
	C10.1,3.9,4.8,3.4,2.1,6.2C1.9,6.6,1.8,6.7,1.7,6.9c-1.4,3.3-1,7.4,2.4,10.6c2.1,2.1,4.8,3.3,7.2,3.3c0.5,0,0.9,0,1.4-0.1
	c1.4,0,3.5,0.2,4.4,1.1l1.1,1.1c-0.3,0.3-0.3,0.8,0,1.1l3.6,3.6c0.2,0.2,1,0.1,1.5-0.5C23.8,26.4,23.9,25.6,23.7,25.3L23.7,25.3z
	 M14.1,17.9c-0.9,0.9-2,1.1-2.9,1.1c-2,0-4.1-1-5.9-2.7c-2.8-2.8-3.6-6.8-1.6-8.7c0.9-0.9,2-1.1,2.9-1.1c1.2,0,2.2,0.2,3.3,0.8
	c0-0.1,0,0.1,0,0c0.9,0.4,1.7,1,2.5,1.8c1.4,1.4,2.3,3,2.7,4.6h0C15.3,15.3,15.1,16.9,14.1,17.9L14.1,17.9z M15.2,19.5
	c0.1-0.1,0.2-0.2,0.4-0.3c0.1-0.1,0.2-0.2,0.2-0.3c0,0.2,0.1,0.5,0.2,0.7C15.7,19.6,15.4,19.6,15.2,19.5L15.2,19.5z"/>
<path id="Shape_50_"  d="M30.9,12.8c-0.1-1.1-0.7-2.3-1.6-3.1c-0.9-0.9-1.8-1.4-3-1.6c-0.1,1-0.6,2.7-2.3,4.3
	c-1.6,1.7-3.3,2.1-4.4,2.1c0.1,1.1,0.7,2.3,1.6,3.1c0.9,0.9,2,1.4,3.1,1.6c0.1-1,0.6-2.7,2.1-4.4C28.2,13.2,29.9,12.8,30.9,12.8
	L30.9,12.8z M25,8c-1.4,0-2.7,0.6-3.8,1.7c-1,1-1.6,2.4-1.6,3.7c0.9,0,2.3-0.4,3.7-1.7C24.7,10.3,25,8.8,25,8L25,8z M27.3,15.7
	c-1.3,1.4-1.7,2.8-1.7,3.7c1.3,0,2.6-0.4,3.7-1.6c1.1-1.1,1.7-2.4,1.7-3.8C30,14,28.7,14.2,27.3,15.7L27.3,15.7z"/>
</svg>
