<svg version="1.1" xmlns="http://www.w3.org/2000/svg" xmlns:xlink="http://www.w3.org/1999/xlink" viewBox="0 0 32 32">
<path id="Shape_89_"  d="M31,2.2c0-0.1,0-0.2-0.1-0.2c-0.1-0.1-0.1-0.1-0.2-0.1c0,0-0.1,0-0.1,0c0,0-0.1,0-0.1,0H7.6
	c-0.1,0-0.1,0-0.2,0c0,0,0,0-0.1,0L1.1,6.3h0C1.1,6.3,1,6.4,1,6.5c0,0,0,0.1,0,0.1v23.2c0,0.1,0,0.2,0.1,0.2
	c0.1,0.1,0.1,0.1,0.2,0.1h23.2c0.1,0,0.2,0,0.2-0.1l6.2-6.2c0.1-0.1,0.1-0.1,0.1-0.2V2.2L31,2.2z M7.8,6.8h16.4v16.5H7.8V6.8
	L7.8,6.8z M2,29.5l5.6-5.6h16.6v5.6H2L2,29.5z M24.8,23.9H30L24.8,29V23.9L24.8,23.9z M30.4,2.7v20.6h-5.6V6.7L30.4,2.7L30.4,2.7z
	 M1.6,6.8h5.6v16.7L1.6,29V6.8z"/>
</svg>
