<svg version="1.1" xmlns="http://www.w3.org/2000/svg" xmlns:xlink="http://www.w3.org/1999/xlink" viewBox="0 0 32 32">
<path id="Shape_84_"  stroke="#AA7E2C" stroke-width="0.2" d="M16,1c-5.2,0-9.4,4.2-9.4,9.4c0,4.3,2.9,8,6.9,9.1h-2
	c-1.2,0-2.1,0.9-2.1,2.1s0.9,2.1,2.1,2.1h0.3c1.1,0.9,2.1,2.1,2.1,3.4v3.6c0,0.2,0.2,0.3,0.3,0.3h3.5c0.1,0,0.2-0.1,0.3-0.2
	c0.1-0.1,0.1-0.2,0-0.4c-0.1-0.1-0.2-0.2-0.3-0.2h-3.1v-3.2c0-1.4-0.8-2.5-1.8-3.4h6.3c-0.9,0.9-1.8,2-1.8,3.4v1.5
	c0,0.1,0.1,0.2,0.2,0.3c0.1,0.1,0.2,0.1,0.4,0c0.1-0.1,0.2-0.2,0.2-0.3v-1.5c0-1.3,1.1-2.5,2.1-3.4h0.3c1.2,0,2.1-0.9,2.1-2.1
	s-0.9-2.1-2.1-2.1h-2c4-1.1,6.9-4.8,6.9-9.1C25.4,5.2,21.2,1,16,1z M16,1.7c4.8,0,8.7,3.9,8.7,8.7s-3.9,8.7-8.7,8.7
	s-8.7-3.9-8.7-8.7S11.2,1.7,16,1.7z M14.6,3.1c-0.4,0-0.7,0.3-0.7,0.7c0,0.4,0.3,0.7,0.7,0.7c0.4,0,0.7-0.3,0.7-0.7
	C15.3,3.4,15,3.1,14.6,3.1z M17.4,3.1c-0.4,0-0.7,0.3-0.7,0.7c0,0.4,0.3,0.7,0.7,0.7c0.4,0,0.7-0.3,0.7-0.7
	C18.1,3.4,17.8,3.1,17.4,3.1z M13.2,4.8c-0.4,0-0.7,0.3-0.7,0.7c0,0.4,0.3,0.7,0.7,0.7c0.4,0,0.7-0.3,0.7-0.7
	C13.9,5.1,13.6,4.8,13.2,4.8z M16,4.8c-0.4,0-0.7,0.3-0.7,0.7c0,0.4,0.3,0.7,0.7,0.7c0.4,0,0.7-0.3,0.7-0.7
	C16.7,5.1,16.4,4.8,16,4.8z M18.8,4.8c-0.4,0-0.7,0.3-0.7,0.7c0,0.4,0.3,0.7,0.7,0.7c0.4,0,0.7-0.3,0.7-0.7
	C19.5,5.1,19.2,4.8,18.8,4.8z M11.5,20.2h9.1c0.8,0,1.4,0.6,1.4,1.4S21.3,23,20.5,23h-9.1c-0.8,0-1.4-0.6-1.4-1.4
	S10.7,20.2,11.5,20.2z"/>
</svg>
