<svg version="1.1" xmlns="http://www.w3.org/2000/svg" xmlns:xlink="http://www.w3.org/1999/xlink" viewBox="0 0 32 32">
<g id="Shape_90_">
	<path  d="M22.1,14.2l-5.9-5.9c-0.1-0.1-0.2-0.1-0.3-0.1c-0.1,0-0.1,0-0.2,0.1c-0.1,0-0.1,0.1-0.1,0.1l-6,5.8
		c-0.2,0.2-0.2,0.6,0,0.8c0.1,0.1,0.2,0.1,0.3,0.1c0.1,0,0.3-0.1,0.3-0.1l5-5v16.9c0,0.3,0.2,0.6,0.6,0.6c0.3,0,0.6-0.2,0.6-0.6V9.9
		l5,5c0.1,0.1,0.2,0.1,0.3,0.1s0.3-0.1,0.3-0.1C22.3,14.8,22.3,14.4,22.1,14.2z"/>
</g>
<g id="Line_1_">
	<rect x="1" y="4.6"  width="30" height="2.4"/>
</g>
</svg>
