<svg version="1.1" xmlns="http://www.w3.org/2000/svg" xmlns:xlink="http://www.w3.org/1999/xlink" viewBox="0 0 32 32">
<path id="Fill-2_24_"  d="M22.6,17.3c-1.5,0-2.7-1.2-2.7-2.7c0-1.5,1.2-2.7,2.7-2.7c1.5,0,2.7,1.2,2.7,2.7
	S24.1,17.3,22.6,17.3L22.6,17.3z M22.6,12.4c-1.2,0-2.1,1-2.1,2.1c0,1.2,1,2.1,2.1,2.1c1.2,0,2.1-1,2.1-2.1
	C24.8,13.4,23.8,12.4,22.6,12.4L22.6,12.4z"/>
<path id="Fill-4_26_"  d="M13.1,19.6c-0.7,0-1.3-0.5-1.5-0.9c-0.3-0.6-1-0.6-2-0.2l-0.9,0.4L9.3,18
	c0.1-0.1,2.4-3.5,6.2-4c-0.1-0.7-0.2-2.3,0-2.7c0.2-0.7,2.2-2.2,3-2.4c1-0.3,1.4-0.2,1.9,0.2c0.3,0.3,0.4,0.5,0.4,0.8
	c0,0.3-0.1,0.6-0.4,0.8c-0.4,0.4-1.9,1.2-2.5,1.5c0,0.5,0.1,2.2,0.8,3.4c1,1.7,0.2,2.8,0.2,2.9l-0.2,0.3l-0.2-0.2
	c0,0-0.8-0.7-1.7-0.7c-0.6,0-1.2,0.3-1.8,0.9C14.3,19.3,13.7,19.6,13.1,19.6L13.1,19.6z M10.8,17.6c0.6,0,1.1,0.3,1.4,0.8
	c0.2,0.3,0.5,0.6,1,0.6c0.4,0,0.9-0.3,1.4-0.8c0.7-0.7,1.4-1.1,2.2-1.1c0.8,0,1.5,0.4,1.8,0.6c0.1-0.4,0.2-1-0.4-1.9
	c-1-1.6-0.9-3.8-0.9-3.9l0-0.2l0.2-0.1c0.8-0.4,2.2-1.2,2.5-1.5c0.1-0.1,0.2-0.3,0.2-0.4c0-0.1-0.1-0.3-0.2-0.4
	c-0.3-0.3-0.6-0.3-1.3-0.1c-0.8,0.3-2.6,1.7-2.7,2c-0.1,0.3,0,1.9,0.1,2.8l0,0.3l-0.3,0c-2.6,0.3-4.6,2.1-5.5,3.1
	C10.5,17.6,10.6,17.6,10.8,17.6L10.8,17.6z"/>
<path id="Fill-5_24_"  d="M6.9,21.4c-0.5,0-1.2-0.3-2.1-1c-1.6-1.3-3.3,0.2-3.4,0.3L1,20.2c0,0,2.1-1.9,4.1-0.3
	c1.7,1.4,2.2,0.8,2.8,0.2c0.5-0.5,1.4-1,2.3-0.9c0.7,0.1,1.3,0.4,1.7,1c0.2,0.3,0.5,0.5,0.8,0.5c0.7,0.1,1.6-0.5,2.2-1
	c0.2-0.2,0.9-0.7,1.7-0.6c0.5,0.1,1,0.4,1.4,0.9l0,0c0.3,0.4,0.6,0.6,1,0.6c0.6,0.1,1.1-0.4,1.3-0.5c0.4-0.4,1.6-1.3,2.7-1.1
	c0.5,0.1,0.9,0.3,1.2,0.8c0.3,0.5,0.7,0.7,1.2,0.8c0.7,0.1,1.5-0.3,1.9-0.7c0.8-0.9,1.6-1.5,3.6,0.1l-0.4,0.5
	c-1.7-1.4-2.2-0.8-2.8-0.2c-0.5,0.5-1.4,1-2.3,0.9c-0.7-0.1-1.3-0.4-1.7-1c-0.2-0.3-0.5-0.5-0.8-0.5c-0.7-0.1-1.6,0.5-2.2,1
	c-0.2,0.2-0.9,0.7-1.7,0.6c-0.5-0.1-1-0.4-1.4-0.9l0,0c-0.3-0.4-0.6-0.6-1-0.6c-0.6-0.1-1.1,0.4-1.3,0.5c-0.4,0.4-1.6,1.3-2.7,1.1
	c-0.5-0.1-0.9-0.3-1.2-0.8c-0.3-0.5-0.7-0.7-1.2-0.8c-0.7-0.1-1.5,0.3-1.9,0.7C8,21,7.5,21.4,6.9,21.4"/>
<path id="Fill-6_17_"  d="M6.5,23.4c-0.5,0-1.2-0.3-2.1-1c-1.6-1.3-2.5-0.3-2.6-0.2l-0.4-0.4c0,0,1.3-1.5,3.4,0.1
	c1.7,1.4,2.2,0.8,2.8,0.2c0.5-0.5,1.4-1,2.3-0.9c0.7,0.1,1.3,0.4,1.7,1c0.2,0.3,0.5,0.5,0.8,0.5c0.7,0.1,1.6-0.5,2.2-1
	c0.2-0.2,0.9-0.7,1.7-0.6c0.5,0.1,1,0.4,1.4,0.9l0,0c0.3,0.4,0.6,0.6,1,0.6c0.6,0.1,1.1-0.4,1.3-0.5c0.4-0.4,1.6-1.3,2.7-1.1
	c0.5,0.1,0.9,0.3,1.2,0.8c0.3,0.5,0.7,0.7,1.2,0.8c0.7,0.1,1.5-0.3,1.9-0.7c0.8-0.9,1.6-1.5,3.6,0.1l-0.4,0.5
	c-1.7-1.4-2.2-0.8-2.8-0.2c-0.5,0.5-1.4,1-2.3,0.9c-0.7-0.1-1.3-0.4-1.7-1c-0.2-0.3-0.5-0.5-0.8-0.5c-0.7-0.1-1.6,0.5-2.2,1
	c-0.2,0.2-0.9,0.7-1.7,0.6c-0.5-0.1-1-0.4-1.4-0.9l0,0c-0.3-0.4-0.6-0.6-1-0.6c-0.6-0.1-1.1,0.4-1.3,0.5c-0.4,0.4-1.6,1.3-2.7,1.1
	c-0.5-0.1-0.9-0.3-1.2-0.8c-0.3-0.5-0.7-0.7-1.2-0.8c-0.7-0.1-1.5,0.3-1.9,0.7C7.6,23,7.2,23.4,6.5,23.4"/>
</svg>
