<svg version="1.1" xmlns="http://www.w3.org/2000/svg" xmlns:xlink="http://www.w3.org/1999/xlink" viewBox="0 0 32 32">
<path id="Shape_85_"  d="M30.4,26.8c-0.8,0-1.2-0.4-1.7-0.9c-0.5-0.6-1.2-1.3-2.4-1.3c-1.3,0-1.9,0.7-2.4,1.3
	c-0.5,0.5-0.9,0.9-1.7,0.9c-0.8,0-1.2-0.4-1.7-0.9c-0.5-0.6-1.2-1.3-2.4-1.3c-1.3,0-1.9,0.7-2.4,1.3c-0.5,0.5-0.9,0.9-1.7,0.9
	s-1.2-0.4-1.7-0.9c-0.5-0.6-1.2-1.3-2.4-1.3s-1.9,0.7-2.4,1.3c-0.5,0.5-0.9,0.9-1.7,0.9c-0.8,0-1.2-0.4-1.7-0.9
	c-0.5-0.6-1.2-1.3-2.4-1.3c-0.3,0-0.5,0.2-0.5,0.5c0,0.3,0.2,0.5,0.5,0.5c0.8,0,1.2,0.4,1.7,0.9c0.5,0.6,1.2,1.3,2.4,1.3
	c1.3,0,1.9-0.7,2.4-1.3C8.7,26,9,25.6,9.8,25.6c0.8,0,1.2,0.4,1.7,0.9c0.5,0.6,1.2,1.3,2.4,1.3c1.3,0,1.9-0.7,2.4-1.3
	c0.5-0.5,0.9-0.9,1.7-0.9c0.8,0,1.2,0.4,1.7,0.9c0.5,0.6,1.2,1.3,2.4,1.3c1.3,0,1.9-0.7,2.4-1.3c0.5-0.5,0.9-0.9,1.7-0.9
	c0.8,0,1.2,0.4,1.7,0.9c0.5,0.6,1.2,1.3,2.4,1.3c0.3,0,0.5-0.2,0.5-0.5C30.9,27,30.7,26.8,30.4,26.8z"/>
<path id="Shape_86_"  d="M30.4,19.9c-0.8,0-1.2-0.4-1.7-0.9c-0.5-0.6-1.2-1.3-2.4-1.3c-1.3,0-1.9,0.7-2.4,1.3
	c-0.5,0.5-0.9,0.9-1.7,0.9c-0.8,0-1.2-0.4-1.7-0.9c-0.5-0.6-1.2-1.3-2.4-1.3s-1.9,0.7-2.4,1.3c-0.5,0.5-0.9,0.9-1.7,0.9
	c-0.8,0-1.2-0.4-1.7-0.9c-0.5-0.6-1.2-1.3-2.4-1.3s-1.9,0.7-2.4,1.3c-0.5,0.5-0.9,0.9-1.7,0.9c-0.8,0-1.2-0.4-1.7-0.9
	c-0.5-0.6-1.2-1.3-2.4-1.3c-0.3,0-0.5,0.2-0.5,0.5c0,0.3,0.2,0.5,0.5,0.5c0.8,0,1.2,0.4,1.7,0.9c0.5,0.6,1.2,1.3,2.4,1.3
	c1.3,0,1.9-0.7,2.4-1.3c0.5-0.5,0.9-0.9,1.7-0.9c0.8,0,1.2,0.4,1.7,0.9c0.5,0.6,1.2,1.3,2.4,1.3c1.3,0,1.9-0.7,2.4-1.3
	c0.5-0.5,0.9-0.9,1.7-0.9c0.8,0,1.2,0.4,1.7,0.9c0.5,0.6,1.2,1.3,2.4,1.3c1.3,0,1.9-0.7,2.4-1.3c0.5-0.5,0.9-0.9,1.7-0.9
	c0.8,0,1.2,0.4,1.7,0.9c0.5,0.6,1.2,1.3,2.4,1.3c0.3,0,0.5-0.2,0.5-0.5C30.9,20.1,30.7,19.9,30.4,19.9z"/>
<path id="Shape_87_"  d="M1.5,12.1c0.8,0,1.2,0.4,1.7,0.9c0.5,0.6,1.2,1.3,2.4,1.3c1.3,0,1.9-0.7,2.4-1.3
	c0.5-0.5,0.9-0.9,1.7-0.9c0.8,0,1.2,0.4,1.7,0.9c0.5,0.6,1.2,1.3,2.4,1.3s1.9-0.7,2.4-1.3c0.5-0.5,0.9-0.9,1.7-0.9
	c0.8,0,1.2,0.4,1.7,0.9c0.5,0.6,1.2,1.3,2.4,1.3s1.9-0.7,2.4-1.3c0.5-0.5,0.9-0.9,1.7-0.9s1.2,0.4,1.7,0.9c0.5,0.6,1.2,1.3,2.4,1.3
	c0.3,0,0.5-0.2,0.5-0.5s-0.2-0.5-0.5-0.5c-0.8,0-1.2-0.4-1.7-0.9c-0.5-0.6-1.2-1.3-2.4-1.3c-1.3,0-1.9,0.7-2.4,1.3
	c-0.5,0.5-0.9,0.9-1.7,0.9c-0.8,0-1.2-0.4-1.7-0.9c-0.5-0.6-1.2-1.3-2.4-1.3c-1.3,0-1.9,0.7-2.4,1.3c-0.5,0.5-0.9,0.9-1.7,0.9
	c-0.8,0-1.2-0.4-1.7-0.9c-0.5-0.6-1.2-1.3-2.4-1.3c-1.3,0-1.9,0.7-2.4,1.3c-0.5,0.5-0.9,0.9-1.7,0.9c-0.8,0-1.2-0.4-1.7-0.9
	c-0.5-0.6-1.2-1.3-2.4-1.3c-0.3,0-0.5,0.2-0.5,0.5S1.2,12.1,1.5,12.1z"/>
<path id="Shape_88_"  d="M30.5,6.4c-0.8,0-1.2-0.4-1.7-0.9c-0.5-0.6-1.2-1.3-2.4-1.3c-1.3,0-1.9,0.7-2.4,1.3
	c-0.5,0.5-0.9,0.9-1.7,0.9c-0.8,0-1.2-0.4-1.7-0.9c-0.5-0.6-1.2-1.3-2.4-1.3s-1.9,0.7-2.4,1.3C15.2,6,14.8,6.4,14,6.4
	c-0.8,0-1.2-0.4-1.7-0.9c-0.5-0.6-1.2-1.3-2.4-1.3C8.7,4.2,8,4.9,7.5,5.5C7,6,6.6,6.4,5.8,6.4S4.7,6,4.2,5.5C3.6,4.9,3,4.2,1.7,4.2
	c-0.3,0-0.5,0.2-0.5,0.5s0.2,0.5,0.5,0.5c0.8,0,1.2,0.4,1.7,0.9c0.5,0.6,1.2,1.3,2.4,1.3s1.9-0.7,2.4-1.3c0.5-0.5,0.9-0.9,1.7-0.9
	s1.2,0.4,1.7,0.9c0.5,0.6,1.2,1.3,2.4,1.3s1.9-0.7,2.4-1.3c0.5-0.5,0.9-0.9,1.7-0.9s1.2,0.4,1.7,0.9c0.5,0.6,1.2,1.3,2.4,1.3
	c1.3,0,1.9-0.7,2.4-1.3c0.5-0.5,0.9-0.9,1.7-0.9c0.8,0,1.2,0.4,1.7,0.9c0.5,0.6,1.2,1.3,2.4,1.3C30.8,7.5,31,7.2,31,7
	S30.8,6.4,30.5,6.4z"/>
</svg>
