<svg version="1.1" xmlns="http://www.w3.org/2000/svg" xmlns:xlink="http://www.w3.org/1999/xlink" viewBox="0 0 32 32">
<g id="Group-2_2_" transform="translate(6.000000, 13.000000)">
	<path id="Shape_79_"  d="M24.6-2.1h-9.8c-0.2,0-0.4,0.1-0.4,0.4l0,0c0,0.2,0.1,0.4,0.4,0.4h9.4V3H15
		c-0.2,0-0.4,0.1-0.4,0.4c0,0.2,0.1,0.4,0.4,0.4h9.3V8H-4.3v-9.4h2.3c0.2,0,0.4-0.1,0.4-0.4l0,0c0-0.2-0.1-0.4-0.4-0.4h-2.7
		C-4.9-2.1-5-1.9-5-1.7V8.4c0,0.2,0.1,0.4,0.4,0.4h29.3c0.2,0,0.4-0.1,0.4-0.4V-1.7C25-1.9,24.9-2.1,24.6-2.1z"/>
	<path id="Shape_80_"  d="M6.4,5.8c3.1,0,5.6-2.5,5.6-5.6c0-0.7-0.1-1.3-0.3-1.9c-0.8-2.1-2.8-3.6-5.2-3.6
		S2-3.9,1.3-1.7C1-1.2,0.9-0.5,0.9,0.2C0.9,3.3,3.4,5.8,6.4,5.8z M11.3,0.2c0,2.7-2.2,4.8-4.8,4.8S1.6,2.9,1.6,0.2s2.2-4.8,4.8-4.8
		S11.3-2.5,11.3,0.2z"/>
	<path id="Shape_81_"  d="M3.4,0.2c0,0.2,0.1,0.4,0.4,0.4c0.2,0,0.4-0.1,0.4-0.4C4.2-1,5.2-2,6.5-2
		c0.2,0,0.4-0.1,0.4-0.4c0-0.2-0.1-0.4-0.4-0.4C4.8-2.8,3.4-1.4,3.4,0.2z"/>
	<path id="Shape_82_"  d="M2.3,11.4c0.2,0,0.4-0.1,0.4-0.4c0-0.2-0.1-0.4-0.4-0.4h-3.8c-0.2,0-0.4,0.1-0.4,0.4
		c0,0.2,0.1,0.4,0.4,0.4H2.3z"/>
	<path id="Shape_83_"  d="M21.4,11.4c0.2,0,0.4-0.1,0.4-0.4c0-0.2-0.1-0.4-0.4-0.4h-3.8c-0.2,0-0.4,0.1-0.4,0.4
		c0,0.2,0.1,0.4,0.4,0.4H21.4z"/>
</g>
</svg>
