<svg version="1.1" xmlns="http://www.w3.org/2000/svg" xmlns:xlink="http://www.w3.org/1999/xlink" viewBox="0 0 32 32">
<path id="Fill-2_26_"  d="M27.8,16.8H4.2c-1.7,0-3.2-1.4-3.2-3.2V5.3h30v8.3C31,15.4,29.6,16.8,27.8,16.8L27.8,16.8z
	 M2,6.3v7.3c0,1.2,1,2.2,2.2,2.2h23.7c1.2,0,2.2-1,2.2-2.2V6.3H2L2,6.3z M27.9,14.2h-24c-0.3,0-0.5-0.2-0.5-0.5s0.2-0.5,0.5-0.5h24
	c0.3,0,0.5,0.2,0.5,0.5S28.2,14.2,27.9,14.2L27.9,14.2z M27.9,12.2h-24c-0.3,0-0.5-0.2-0.5-0.5s0.2-0.5,0.5-0.5h24
	c0.3,0,0.5,0.2,0.5,0.5C28.4,11.9,28.2,12.2,27.9,12.2L27.9,12.2z"/>
<path id="Fill-3_26_"  d="M7.3,26.7L3.6,22H5v-3.9h4.7V22h1.5L7.3,26.7L7.3,26.7z M5.7,23l1.6,2L9,23H8.7v-3.9H6V23
	H5.7L5.7,23z"/>
<path id="Fill-4_28_"  d="M16.5,26.7L12.9,22h1.4v-3.9H19V22h1.5L16.5,26.7L16.5,26.7z M14.9,23l1.6,2l1.7-2H18v-3.9
	h-2.7V23H14.9L14.9,23z"/>
<path id="Fill-5_26_"  d="M25.8,26.7L22.1,22h1.4v-3.9h4.7V22h1.5L25.8,26.7L25.8,26.7z M24.2,23l1.6,2l1.7-2h-0.3
	v-3.9h-2.7V23H24.2L24.2,23z"/>
</svg>
