<svg version="1.1" xmlns="http://www.w3.org/2000/svg" xmlns:xlink="http://www.w3.org/1999/xlink" viewBox="0 0 32 32">
<path id="Shape_15_"  d="M31,15.8c0-0.8-0.6-1.5-1.5-1.6H5V9.3c0-1,0.8-1.8,1.8-1.8c0.5,0,0.9,0.1,1.3,0.5
	c0.3,0.3,0.5,0.8,0.5,1.3h0.8c0-0.7-0.3-1.3-0.7-1.8C8.1,7,7.5,6.8,6.8,6.8c-1.4,0-2.5,1.1-2.5,2.5v4.9H2.4c-0.8,0-1.4,0.6-1.4,1.4
	c-0.1,0.8,0.5,1.5,1.2,1.6c0.2,1.5,1.3,3.2,4.3,4.2v3.7h1.7L9,22.1c2.3,0.4,4.7,0.6,7,0.5c2.3,0,4.7-0.1,7-0.5l0.8,3h1.7v-3.6
	c2.6-0.9,4.2-2.3,4.3-4.4C30.5,17.1,31,16.5,31,15.8z M7.6,24.4H7.3v-2.7l1,0.2L7.6,24.4z M24.7,24.4h-0.3L23.7,22
	c0.3-0.1,0.6-0.1,1-0.2V24.4z M25.5,20.8l-2.5,0.6c-2.3,0.3-4.6,0.5-6.9,0.4c-8.1,0-12.6-1.6-13.1-4.6h26.1
	C28.9,18.4,28.2,19.9,25.5,20.8z M29.5,16.5H2.4c-0.4,0-0.8-0.3-0.8-0.8C1.7,15.3,2,15,2.4,15h27.1c0.4,0,0.8,0.3,0.8,0.8
	C30.3,16.2,30,16.5,29.5,16.5z M9.4,10.6C9.4,10.8,9.2,11,9,11c-0.2,0-0.4-0.2-0.4-0.4c0-0.2,0.2-0.4,0.4-0.4
	C9.2,10.1,9.4,10.3,9.4,10.6z M9.4,12.1c0,0.2-0.2,0.4-0.4,0.4c-0.2,0-0.4-0.2-0.4-0.4c0-0.2,0.2-0.4,0.4-0.4c0.1,0,0.2,0,0.3,0.1
	C9.3,11.8,9.4,11.9,9.4,12.1L9.4,12.1z M9.4,13.6C9.4,13.8,9.2,14,9,14c-0.2,0-0.4-0.2-0.4-0.4s0.2-0.4,0.4-0.4c0.1,0,0.2,0,0.3,0.1
	C9.4,13.3,9.4,13.5,9.4,13.6L9.4,13.6z"/>
</svg>
