<svg version="1.1" xmlns="http://www.w3.org/2000/svg" xmlns:xlink="http://www.w3.org/1999/xlink" viewBox="0 0 32 32">
<path id="Shape_97_"  d="M1.7,1C1.3,1,1,1.4,1,1.7v6.1c0,0.4,0.3,0.7,0.7,0.7s0.7-0.3,0.7-0.7V3.3l9.1,9.1
	c0.3,0.3,0.7,0.3,1,0c0.3-0.3,0.3-0.7,0-1L3.3,2.4h4.5c0.4,0,0.7-0.3,0.7-0.7S8.2,1,7.8,1H1.7z M24.2,1c-0.4,0-0.7,0.3-0.7,0.7
	s0.3,0.7,0.7,0.7h4.5l-9.1,9.1c-0.3,0.2-0.3,0.7,0,1c0.3,0.3,0.7,0.3,1,0l9.1-9.1v4.5c0,0.4,0.3,0.7,0.7,0.7c0.4,0,0.7-0.3,0.7-0.7
	V1.7C31,1.4,30.7,1,30.3,1H24.2z M11.9,19.4c-0.2,0-0.4,0.1-0.5,0.2l-9.1,9.1v-4.5c0-0.4-0.3-0.7-0.7-0.7S1,23.8,1,24.2v6.1
	C1,30.6,1.3,31,1.7,31h6.1c0.4,0,0.7-0.3,0.7-0.7s-0.3-0.7-0.7-0.7H3.3l9.1-9.1c0.3-0.2,0.3-0.7,0-1C12.3,19.5,12.1,19.4,11.9,19.4z
	 M20.1,19.4c-0.2,0-0.4,0.1-0.5,0.2c-0.3,0.3-0.3,0.7,0,1l9.1,9.1h-4.5c-0.4,0-0.7,0.3-0.7,0.7s0.3,0.7,0.7,0.7h6.1
	c0.4,0,0.7-0.4,0.7-0.7v-6.1c0-0.4-0.3-0.7-0.7-0.7c-0.4,0-0.7,0.3-0.7,0.7v4.5l-9.1-9.1C20.4,19.5,20.3,19.4,20.1,19.4z"/>
</svg>
