<svg version="1.1" xmlns="http://www.w3.org/2000/svg" xmlns:xlink="http://www.w3.org/1999/xlink" viewBox="0 0 32 32">
<path id="Fill-2_25_"  d="M11.3,31c-0.3,0-1.2-0.1-1.3-1.5c-0.1-0.6,0-1.2,0.1-1.8c0.1-0.9,0.2-1.9-0.2-2.4
	c-0.2-0.3-0.3-0.5-0.4-0.7c-0.1-0.1-0.1-0.2-0.2-0.3c0,0.1,0,0.2,0,0.3c0,1,0,2.9-2.1,3.2c-2,0.3-3.5-0.1-4.3-0.9
	c-0.3-0.4-0.6-1.2-0.3-1.8c0.1-0.4,0.4-0.7,0.9-0.8c0.2,0,0.3-0.1,0.5-0.1c0.9,0,1.7,0.5,1.9,0.7c0,0,0.2,0.1,0.4-0.1
	c0.1-0.2,0.1-0.5,0-0.9C6.2,23.4,6.1,23,6,22.7c-0.3-1-0.6-1.9-0.6-3c0-1.1-0.1-1.2-0.2-1.3c0,0-0.1-0.1-0.1-0.1
	C3.9,17,2,15.2,2,14.4c0-0.7,0.1-3.3,0.1-3.3c0.1-0.6,0.5-1.4,1.3-1.4c0.3,0,0.9,0.1,0.9,0.8c0.1,0.2,0.1,0.9,0,3.1
	c0.2,0.4,1.3,2.8,5.2,3c0.8,0,3-2,3.1-4c0-0.5,0-1.3,1-1.4c0.1,0,0.2,0,0.2,0c0.9,0,0.9,0.7,0.9,1.1c0,0,0,4.7-4,6.5
	c-0.1,1.2,0,2.6,0.2,2.9c0.1,0.1,0.2,0.2,0.3,0.4c0.7,0.9,1.9,2.5,1.9,4.5c0.1,2.4-0.2,3.5-0.9,4.1C12,30.9,11.6,31,11.3,31L11.3,31
	z M9.2,23.3c0.5,0,0.7,0.3,1,0.8c0.1,0.2,0.2,0.4,0.4,0.7c0.5,0.8,0.4,1.9,0.3,3c-0.1,0.6-0.1,1.1-0.1,1.6c0,0.5,0.2,0.8,0.5,0.8
	c0.2,0,0.4-0.1,0.5-0.2c0.4-0.4,0.6-1.4,0.6-3.4c0-1.8-1.2-3.2-1.8-4c-0.1-0.2-0.3-0.3-0.3-0.5c-0.5-0.7-0.3-2.9-0.3-3.6l0-0.2
	l0.2-0.1c3.6-1.5,3.7-5.8,3.7-5.9c0-0.1,0-0.2,0-0.3c0,0-0.1,0-0.1,0c0,0-0.1,0-0.2,0c-0.2,0-0.2,0-0.2,0.6
	c-0.1,2.3-2.6,4.8-3.9,4.8c-4.8-0.2-5.9-3.4-6-3.6l0-0.1l0-0.1c0-1.2,0-2.6,0-2.9c0-0.1,0-0.2,0-0.2c0,0,0,0-0.1,0
	c-0.3,0-0.5,0.6-0.5,0.7c0,0-0.1,2.5-0.1,3.2c0.1,0.4,1.5,2,2.9,3.2l0.1,0.1c0,0.1,0.1,0.1,0.1,0.1c0.2,0.3,0.3,0.6,0.4,1.8
	c0,1,0.3,1.8,0.5,2.8c0.1,0.4,0.2,0.8,0.3,1.2c0.2,0.9,0,1.3-0.2,1.6c-0.2,0.3-0.5,0.4-0.9,0.4c-0.2,0-0.4-0.1-0.6-0.2
	c-0.2-0.2-1.1-0.7-1.9-0.5c-0.1,0-0.2,0.1-0.3,0.3c-0.1,0.3,0,0.9,0.2,1C4.1,27,5.3,27.2,7.1,27c1.3-0.2,1.4-1.2,1.4-2.4
	c0-0.6,0-1.1,0.5-1.2C9.1,23.3,9.1,23.3,9.2,23.3L9.2,23.3z"/>
<path id="Fill-3_25_"  d="M8.3,15.9c-1.6,0-2.8-1.3-2.8-2.8s1.3-2.8,2.8-2.8s2.8,1.3,2.8,2.8S9.9,15.9,8.3,15.9
	L8.3,15.9z M8.3,11c-1.1,0-2,0.9-2,2s0.9,2,2,2s2-0.9,2-2S9.5,11,8.3,11L8.3,11z"/>
<path id="Fill-4_27_"  d="M23.6,15c-1.5,0-2.6-1.2-2.6-2.6s1.2-2.6,2.6-2.6c1.5,0,2.6,1.2,2.6,2.6S25.1,15,23.6,15
	L23.6,15z M23.6,10.5c-1,0-1.8,0.8-1.8,1.8s0.8,1.8,1.8,1.8c1,0,1.8-0.8,1.8-1.8S24.7,10.5,23.6,10.5L23.6,10.5z"/>
<path id="Fill-5_25_"  d="M24.1,30.5c-0.3,0-0.5-0.1-0.7-0.3c-0.7-0.5-1.2-1.4-1.4-1.9c-0.2-0.5-0.9-2.7-1.2-3.7
	l-1.1-0.2l-0.1-0.2c0-0.1-0.9-3.4,0.5-7.1c-0.9-0.4-3.1-1.6-3.1-4c0-0.6,0-1.1,0-1.5c0-1.2,0-1.4,0.2-2C17.4,9.2,17.7,9,18.5,9
	c0.2,0,0.6,0,0.8,0.3c0.2,0.2,0.2,0.5,0.1,0.7c0,0,0,0.1,0,0.1v3c0,0,0.2,1.2,2,1.8c1.1,0.3,1.7,0.4,2.1,0.4c0.4,0,0.8,0.1,1.3,0.3
	c0.1,0.1,0.3,0.1,0.4,0.1c0.9,0,2.1-0.8,2.6-2.5c0-0.1,0-0.1,0-0.1c0.1-0.3,0.3-1.2,1.1-1.2c0.4,0,0.7,0.1,0.9,0.4
	c0.2,0.3,0.3,0.7,0.2,1.2c-0.1,0.3-0.7,2.9-2.3,3.7c-0.8,0.4-1.3,0.7-1.6,0.8c0.1,1.1,0.4,3.4,1.3,4.1l0.4,0.3l-0.3,0.3
	c-0.3,0.3-0.9,0.6-1.3,0.8c0.2,0.3,0.5,0.8,1.2,0.9c0.3,0.1,0.7,0.1,1.1,0.1c0.1,0,0.2,0,0.3,0c0.5,0,1,0.1,1.2,0.9
	c0.1,0.5,0,0.9-0.2,1.2C29.1,27,28.4,27,27.8,27c-1.2,0-3.6-0.8-4.3-2.9c0,0-0.1,0-0.1,0h0c0,0-0.1,0.1,0,0.4
	c0.1,0.2,0.4,0.8,0.6,1.5c1,2.1,1.4,3.1,1.3,3.5C25.1,30.1,24.7,30.5,24.1,30.5L24.1,30.5z M20.4,23.8l1.1,0.2l0.1,0.2
	c0.2,0.7,1,3.3,1.2,3.8c0.2,0.4,0.6,1.2,1.1,1.5c0.3,0.2,0.5,0.1,0.6-0.3c0-0.4-0.8-2.1-1.2-3c-0.3-0.7-0.6-1.3-0.7-1.6
	c-0.1-0.5-0.1-0.8,0-1.1c0.1-0.2,0.4-0.3,0.7-0.4h0c0.4,0,0.7,0.2,0.8,0.3l0.1,0.1l0,0.1c0.5,1.7,2.6,2.4,3.6,2.4
	c0.6,0,1-0.1,1.1-0.2c0.1-0.1,0.1-0.3,0-0.5c-0.1-0.3-0.1-0.3-0.4-0.3l-0.3,0c-0.4,0-0.9,0-1.3-0.1c-1.5-0.3-1.9-1.7-1.9-1.8
	L25.1,23l0.3-0.1c0.2-0.1,0.7-0.4,1.1-0.6c-1.1-1.4-1.3-4.5-1.3-4.6l0-0.3l0.3-0.1c0,0,0.5-0.2,1.8-0.9c1.1-0.6,1.7-2.3,1.9-3.2
	c0.1-0.3,0-0.5,0-0.6c0,0-0.1-0.1-0.3-0.1c-0.1,0-0.2,0.2-0.3,0.6c0,0.1,0,0.2-0.1,0.2c-0.6,2.1-2.1,3.1-3.4,3.1
	c-0.3,0-0.6-0.1-0.8-0.2c-0.3-0.2-0.6-0.2-1-0.2c-0.5,0-1.2-0.1-2.3-0.5c-2.3-0.7-2.5-2.5-2.5-2.5l0-3c0-0.1,0-0.1,0-0.2
	c0,0,0,0,0,0c0,0-0.1,0-0.1,0c-0.3,0-0.4,0-0.4,0.1c-0.1,0.6-0.1,0.6-0.1,1.8c0,0.4,0,0.9,0,1.5c0,2.4,2.9,3.4,3,3.4l0.4,0.1
	l-0.2,0.4C19.8,20.1,20.3,23,20.4,23.8L20.4,23.8z"/>
<path id="Fill-6_18_"  d="M14.4,8.7c-2.1,0-3.9-1.7-3.9-3.9S12.3,1,14.4,1s3.9,1.7,3.9,3.9S16.6,8.7,14.4,8.7
	L14.4,8.7z M14.4,1.8c-1.7,0-3.1,1.4-3.1,3.1s1.4,3.1,3.1,3.1c1.7,0,3.1-1.4,3.1-3.1S16.1,1.8,14.4,1.8L14.4,1.8z"/>
</svg>
