<svg version="1.1" xmlns="http://www.w3.org/2000/svg" xmlns:xlink="http://www.w3.org/1999/xlink" viewBox="0 0 32 32">
<path id="Shape_98_"  d="M15.6,20.4c-0.1,0-0.1,0-0.2,0c-0.3-0.1-0.5-0.5-0.4-0.8c0.4-1.3,0.7-2.7,0.7-4.1
	c0-0.4,0.3-0.6,0.7-0.6c0.4,0,0.6,0.3,0.6,0.7c-0.1,1.5-0.3,3-0.8,4.4C16.2,20.2,15.9,20.4,15.6,20.4z"/>
<path id="Shape_99_"  d="M27.3,28c-0.1,0-0.2,0-0.4-0.1c-0.3-0.2-0.4-0.6-0.2-0.9c0.7-1.1,1.3-2.3,1.7-3.6
	c0.7-2.3,1.1-4.8,1.3-7.2c0.2-3.6-1.1-7-3.5-9.6C23.8,4,20.5,2.5,17,2.3l-0.6,0C9.2,2.3,3.3,7.9,3,15.1c0,0.2,0,0.4-0.1,0.5
	c-0.6,2.1-0.8,4.3-0.4,6.4c0.1,0.3-0.2,0.7-0.5,0.8c-0.3,0.1-0.7-0.2-0.8-0.5c-0.4-2.3-0.3-4.7,0.4-7c0-0.1,0-0.1,0-0.2
	C2.1,7.2,8.5,1,16.4,1L17,1c3.9,0.2,7.5,1.9,10.2,4.8c2.6,2.9,4,6.6,3.8,10.5c-0.1,2.6-0.6,5.1-1.3,7.5c-0.4,1.4-1.1,2.7-1.9,3.9
	C27.7,27.9,27.5,28,27.3,28z"/>
<path id="Shape_100_"  d="M19,31c-0.3,0-0.5-0.2-0.6-0.5c-0.1-0.3,0.1-0.7,0.4-0.8c3.4-1,6-3.7,7-7
	c0.7-2.1,1-4.3,1.1-6.5c0.1-2.8-0.9-5.6-2.8-7.7c-1.9-2.1-4.5-3.3-7.4-3.5l-0.5,0C10.6,5,6,9.5,5.7,15.2c0,0.4-0.1,0.8-0.2,1.2
	c-0.8,2.7-0.6,5.6,0.8,8.1c0.6,1.2,1.5,2.2,2.5,3.1C9,27.9,9,28.3,8.8,28.5c-0.2,0.3-0.6,0.3-0.9,0.1c-1.1-1-2.1-2.1-2.8-3.5
	c-1.5-2.8-1.8-6.1-0.9-9.1c0.1-0.3,0.1-0.6,0.2-0.9C4.7,8.7,10,3.7,16.4,3.7l0.5,0c3.2,0.1,6.1,1.5,8.3,3.9c2.1,2.4,3.2,5.4,3.1,8.6
	c-0.1,2.3-0.5,4.6-1.2,6.8c-1.2,3.8-4.1,6.7-7.9,7.9C19.1,31,19,31,19,31z"/>
<path id="Shape_101_"  d="M15.7,28.8c-0.9,0-1.8-0.1-2.7-0.4l0,0c-2.4-0.7-4.3-2.3-5.4-4.5c-1.2-2.2-1.4-4.7-0.7-7
	c0.2-0.5,0.2-1,0.3-1.6c0.2-4.9,4.3-8.8,9.2-8.8l0.4,0c2.5,0.1,4.7,1.2,6.4,3c1.7,1.8,2.5,4.2,2.4,6.6c-0.1,2.1-0.5,4.2-1.1,6.2
	C23.3,26.1,19.7,28.8,15.7,28.8z M13.3,27.1c0.8,0.2,1.5,0.4,2.3,0.4c3.5,0,6.5-2.2,7.6-5.6c0.6-1.9,0.9-3.9,1-5.8
	c0.1-2.1-0.6-4.1-2.1-5.7c-1.4-1.6-3.4-2.5-5.5-2.6l-0.4,0c-4.2,0-7.7,3.3-7.9,7.6c0,0.6-0.1,1.3-0.3,1.9c-0.6,2-0.4,4.2,0.6,6
	C9.6,25.1,11.3,26.5,13.3,27.1L13.3,27.1z"/>
<path id="Shape_102_"  d="M15.7,26c-0.6,0-1.3-0.1-1.9-0.3c-1.7-0.5-3-1.6-3.8-3.2c-0.8-1.5-1-3.3-0.5-4.9
	c0.2-0.7,0.4-1.5,0.4-2.3c0.2-3.5,3-6.2,6.5-6.2l0.3,0c1.7,0.1,3.3,0.8,4.5,2.1c1.2,1.3,1.8,2.9,1.7,4.7c-0.1,1.9-0.4,3.7-1,5.5
	C21,24.2,18.5,26,15.7,26z M16.3,10.5c-2.8,0-5.1,2.2-5.2,5c0,0.9-0.2,1.7-0.4,2.6c-0.4,1.3-0.3,2.7,0.4,4c0.6,1.2,1.7,2.1,3.1,2.5
	c0.5,0.2,1,0.2,1.5,0.2c2.3,0,4.3-1.5,5-3.7c0.5-1.7,0.8-3.4,0.9-5.2c0.1-1.4-0.4-2.7-1.4-3.7c-0.9-1-2.2-1.6-3.6-1.7L16.3,10.5z"/>
<path id="Shape_103_"  d="M15.7,23.3c-0.4,0-0.7-0.1-1.1-0.2c-1-0.3-1.7-0.9-2.2-1.8c-0.5-0.9-0.6-1.9-0.3-2.9
	c0.3-1,0.5-1.9,0.5-2.9c0.1-2,1.8-3.6,3.8-3.6l0.2,0c1,0,1.9,0.5,2.6,1.2c0.7,0.7,1,1.7,1,2.7c-0.1,1.6-0.4,3.3-0.8,4.8
	C18.8,22.2,17.3,23.3,15.7,23.3z M16.3,13.2c-1.3,0-2.4,1-2.5,2.4c-0.1,1.1-0.2,2.2-0.6,3.3c-0.2,0.6-0.1,1.3,0.2,1.9
	c0.3,0.6,0.8,1,1.5,1.2c0.2,0.1,0.5,0.1,0.7,0.1c1.1,0,2-0.7,2.4-1.7c0.4-1.5,0.7-3,0.8-4.5c0-0.7-0.2-1.3-0.6-1.8
	c-0.4-0.5-1-0.8-1.7-0.8L16.3,13.2z"/>
</svg>
