<svg version="1.1" xmlns="http://www.w3.org/2000/svg" xmlns:xlink="http://www.w3.org/1999/xlink" viewBox="0 0 32 32">
<path  d="M31,24.4H1V7.6h13.7L13.6,11l1.6,4l-1.6,2.6l2.6,2l0.4,1.2l0.8-1.4l-1.8-2.8l1.8-1.9l-1.8-4.1l3.6-3.1H31
	V24.4z M16.6,23.2h13.3V8.8H19.6L17,11.1l1.7,4l-0.4,0.4L17,16.8l1.7,2.6l-0.3,0.5L16.6,23.2z M2.1,23.2h14.1l-1-3l-3.2-2.4l0.4-0.7
	l1.5-2.4l-1.5-3.8l0.1-0.3l0.6-2h-11V23.2z"/>
<rect x="15.5" y="-2.6" transform="matrix(0.7783 0.6279 -0.6279 0.7783 13.5938 -6.4991)"  width="1.1" height="37.2"/>
</svg>
