<svg version="1.1" xmlns="http://www.w3.org/2000/svg" xmlns:xlink="http://www.w3.org/1999/xlink" viewBox="0 0 32 32">
<g id="Group-24_1_" transform="translate(9.000000, 7.000000)">
	<path id="Shape_111_"  d="M17.7,4.9c0-0.7-0.1-1.4-0.2-2.1c-1-5.6-6.5-9.6-12.1-8.7C0.1-5.1-3.8-0.6-3.8,4.8V23H-8v1
		h30v-1h-4.3v-4.9C17.8,13.7,17.8,9.3,17.7,4.9z M0.9-2.8c1.5-1.3,3.3-2,5.3-2.1l0.4,0v8.3L0.6-2.5L0.9-2.8z M-2.7,3.8
		c0.2-1.9,0.9-3.7,2.1-5.2l0.2-0.3l5.9,5.9h-8.3L-2.7,3.8z M6.5,23h-9.1V5.3h9.2L6.5,23L6.5,23z M14.5-1.4c1.1,1.2,2.1,3.5,2.1,5.2
		v0.4H8.5l5.8-5.8L14.5-1.4z M7.5-4.8l0.3,0c1.4-0.1,4.1,0.9,5.3,2.1l0.2,0.2L7.5,3.4V-4.8L7.5-4.8z M16.7,23H7.5V5.3h9.2V23z"/>
	<path id="Shape_112_"  d="M5.3,15c0,0.5-0.4,0.8-0.8,0.9c-0.4,0-0.8-0.4-0.9-0.8c0-0.4,0.4-0.8,0.8-0.9
		C4.9,14.1,5.3,14.5,5.3,15z M9.5,15.8c-0.4,0-0.8-0.4-0.8-0.9c0-0.4,0.4-0.8,0.9-0.8s0.8,0.4,0.8,0.9S10,15.8,9.5,15.8z"/>
</g>
</svg>
