<svg version="1.1" xmlns="http://www.w3.org/2000/svg" xmlns:xlink="http://www.w3.org/1999/xlink" viewBox="0 0 32 32">
<rect id="Rectangle-path_44_" x="12.4" y="12.1"  width="1.1" height="13.8"/>
<rect id="Rectangle-path_45_" x="15.5" y="12.1"  width="1.1" height="13.8"/>
<rect id="Rectangle-path_46_" x="18.6" y="12.1"  width="1.1" height="13.8"/>
<path id="Shape_92_"  d="M25.9,27.4h-3.2V10.2c0-0.3-0.2-0.5-0.5-0.5h-2.5V4c0-0.3-0.2-0.5-0.5-0.5h-2.6v-2
	C16.5,1.2,16.3,1,16,1s-0.5,0.2-0.5,0.5v2h-2.6c-0.3,0-0.5,0.2-0.5,0.5v5.7H9.9c-0.3,0-0.5,0.2-0.5,0.5v17.2H6.1
	c-0.3,0-0.5,0.2-0.5,0.5c0,0.3,0.2,0.5,0.5,0.5h3.7h12.3h3.7c0.3,0,0.5-0.2,0.5-0.5C26.4,27.6,26.1,27.4,25.9,27.4z M13.4,4.5h5.2
	v5.2h-5.2V4.5z M21.6,27.4H10.4V10.7h2.5h6.2h2.5V27.4L21.6,27.4z"/>
<path id="Shape_93_"  d="M25.9,30H6.1c-0.3,0-0.5,0.2-0.5,0.5S5.9,31,6.1,31h19.7c0.3,0,0.5-0.2,0.5-0.5
	S26.1,30,25.9,30z"/>
<rect id="Rectangle-path_47_" x="14.9" y="5.5"  width="2.3" height="1.1"/>
<rect id="Rectangle-path_48_" x="14.9" y="7.6"  width="2.3" height="1.1"/>
</svg>
