<svg version="1.1" xmlns="http://www.w3.org/2000/svg" xmlns:xlink="http://www.w3.org/1999/xlink" viewBox="0 0 32 32">
<path  d="M16,31c-0.2,0-0.5-0.1-0.6-0.3L7.8,16.3C7,14.7,6.4,13.2,6.4,11c0-5.8,4-10,9.6-10s9.6,4.2,9.6,10
	c0,2.3-0.5,3.7-1.4,5.3l-7.6,14.3C16.5,30.9,16.2,31,16,31z M16,2.3c-4.9,0-8.2,3.5-8.2,8.6c0,2,0.4,3.2,1.2,4.7l7,13.2l7-13.2
	c0.8-1.6,1.2-2.7,1.2-4.7C24.2,5.8,20.9,2.3,16,2.3z M16,15.1c-2.5,0-4.5-2-4.5-4.5S13.5,6,16,6s4.5,2,4.5,4.5S18.5,15.1,16,15.1z
	 M16,7.4c-1.8,0-3.2,1.4-3.2,3.2s1.4,3.2,3.2,3.2s3.2-1.4,3.2-3.2S17.8,7.4,16,7.4z"/>
</svg>
