<svg version="1.1" xmlns="http://www.w3.org/2000/svg" xmlns:xlink="http://www.w3.org/1999/xlink" viewBox="0 0 32 32">
<path  d="M16,31.1c-0.1,0-0.2,0-0.3-0.1c-0.4-0.3-0.9-0.6-1.3-0.9c-2.2-1.4-4.4-2.9-6.2-4.5c-2.6-2.3-3.8-4.5-3.8-6.8
	V5.5c0-0.2,0.1-0.4,0.3-0.4l11.2-4.2c0.1,0,0.2,0,0.3,0l11.2,4.2c0.2,0.1,0.3,0.2,0.3,0.4v13.3c0,2.3-1.2,4.5-3.8,6.8
	c-1.8,1.6-4.1,3.1-6.2,4.5c-0.5,0.3-0.9,0.6-1.3,0.9C16.2,31.1,16.1,31.1,16,31.1z M5.3,5.8v12.9c0,2.1,1.1,4,3.5,6.1
	c1.7,1.6,4,3,6.1,4.5c0.4,0.2,0.7,0.5,1.1,0.7c0.4-0.2,0.7-0.5,1.1-0.7c2.2-1.4,4.4-2.9,6.1-4.5c2.4-2.1,3.5-4.1,3.5-6.1V5.8L16,1.8
	L5.3,5.8z M17.4,19.2L17.4,19.2c-0.1,0-0.2,0-0.3-0.1c-0.2-0.2-0.2-0.5,0-0.6l2.7-2.7h-8.7c-0.2,0-0.4-0.2-0.4-0.4s0.2-0.4,0.4-0.4
	h8.7l-2.7-2.7c-0.2-0.2-0.2-0.5,0-0.6c0.1-0.1,0.2-0.1,0.3-0.1c0.1,0,0.2,0,0.3,0.1l3.4,3.5c0.1,0.1,0.2,0.2,0.2,0.3
	c0,0.2-0.1,0.3-0.2,0.3l-3.4,3.5C17.6,19.2,17.5,19.2,17.4,19.2z"/>
</svg>
