<svg version="1.1" xmlns="http://www.w3.org/2000/svg" xmlns:xlink="http://www.w3.org/1999/xlink" viewBox="0 0 32 32">
<path  d="M16.1,31.2L16.1,31.2c-2.7,0-4.9-2.2-4.9-4.9v-8.2c0-1.5-0.6-3-1.6-3.9C8,12.6,7.1,10.5,7,8.2l0,0l0,0
	c0-0.1,0-0.3,0-0.5c0-2.6,1.1-5,3-6.7c0.1-0.1,0.2-0.1,0.3-0.1h1.6c0.3,0,0.5,0.2,0.5,0.5v6.3c0,0.1,0,0.2,0,0.3
	c0,0.1,0,0.2,0.1,0.3c0.4,1.4,2,2.5,3.5,2.5c0.1,0,0.2,0,0.3,0l0,0c0.1,0,0.2,0,0.3,0c0.3-0.1,0.6-0.2,0.9-0.3
	c1.2-0.6,2.1-1.8,2.1-2.9V1.4c0-0.3,0.2-0.5,0.5-0.5h1.6c0.2,0,0.3,0,0.4,0.1c1.9,1.7,3,4.2,3,6.7c0,2.5-1,4.9-2.9,6.6
	c-0.9,1-1.4,2.4-1.4,3.8v8.3C20.8,29,18.7,31.1,16.1,31.2L16.1,31.2z M11.8,15.7c0.3,0.7,0.4,1.5,0.4,2.3v8.2c0,2.1,1.7,3.9,3.8,3.9
	h0.1c2,0,3.7-1.7,3.7-3.8v-8.3c0-0.8,0.1-1.6,0.4-2.3c-1.3,0.7-2.7,1-4.2,1C14.5,16.8,13.1,16.4,11.8,15.7z M16,28.7
	c-1.3,0-2.3-1.1-2.3-2.3v-7.9c0-0.3,0.2-0.5,0.5-0.5h3.7c0.3,0,0.5,0.2,0.5,0.5v7.9C18.3,27.7,17.3,28.7,16,28.7z M14.7,19v7.4
	c0,0.7,0.6,1.3,1.3,1.3s1.3-0.6,1.3-1.3V19H14.7z M10.5,1.9C9,3.3,8.1,5.2,8,7.3c0,0.1,0,0.3,0,0.4C8,7.8,8,8,8,8.1l0,0.1
	c0.3,4.3,3.8,7.6,8,7.6s7.8-3.3,8-7.5l0-0.1c0-0.1,0-0.3,0-0.4c0-2.2-0.9-4.3-2.5-5.8h-0.8v5.8c0,2-1.7,3.4-3.3,3.9
	c-0.1,0-0.2,0.1-0.3,0.1c-0.1,0-0.2,0-0.2,0.1l-0.1,0c-0.1,0-0.3,0-0.4,0.1l-0.1,0c0,0-0.1,0-0.1,0l-0.2,0c-0.1,0-0.3,0-0.4,0
	c-1-0.1-2-0.5-2.8-1.2c-0.6-0.5-1.1-1.2-1.3-1.9c0-0.1,0-0.1,0-0.2c0-0.1,0-0.1,0-0.2c0-0.1,0-0.2-0.1-0.3l0,0c0-0.1,0-0.3,0-0.4
	V1.9H10.5z"/>
</svg>
