<svg version="1.1" xmlns="http://www.w3.org/2000/svg" xmlns:xlink="http://www.w3.org/1999/xlink" viewBox="0 0 32 32">
<path  d="M5.3,31.1H2.9l0.5-0.5l-2.4-2.4v-1.4l0.2,0.2L5.3,31.1z"/>
<path  d="M31.1,31h-1.8l0.5-0.5L20,20.7L18,22.6l8.5,8.4h-2.4l0.5-0.5l-9.9-9.9l-1.9,1.9l8.4,8.4h-2.4l0.5-0.5
	l-9.9-9.9l-1.9,1.9l8.4,8.4h-2.4l0.5-0.5l-9.8-9.8l-1.9,1.9l8.3,8.4H8.1l0.5-0.5l-7.7-7.7v-1.4l0.5,0.5L4,19.3l7.3-7.3l-1.9-1.9
	l-8.4,8.4v-1.4l0,0l5-5l-1.9-1.9l-3.1,3.1v-2.4l0.5,0.5l1.9-1.9L0.9,7V5.6l5.8,5.8l1.9-1.9L0.9,1.8V1h1.8L2.1,1.6l7.2,7.2l0,0
	l0.1,0.1l2.6,2.6L14,9.4L5.5,1H8L7.5,1.5l9.9,9.8l1.9-1.9l-8.4-8.4h2.4l-0.5,0.5l9.9,9.9l1.9-1.9l-8.4-8.4h2.4l-0.5,0.5L26,9.3l0,0
	l1.9,1.9l1.9-1.9l-8.4-8.4h2.4l-0.5,0.5l7.8,7.8v1.4l-0.5-0.5L20.7,20l1.9,1.9l8.5-8.5v1.4L26,19.9l1.9,1.9l3.2-3.2v2.5l-0.5-0.5
	l-1.9,1.9l2.4,2.4v1.4l-5.8-5.8l-1.9,1.9l7.8,7.7V31z M4.9,20l1.9,1.9l2-2l0.6-0.6l7.3-7.3l-1.9-1.9L4.9,20z M15.4,20l1.9,1.9
	l9.9-9.9l-1.9-1.9L15.4,20z M10.1,20l1.9,1.9l2.6-2.6L22,12L20,10.1l-2.6,2.6L10.1,20z"/>
<path  d="M31.1,5.3l-3.2-3.2h0l-1.1-1.2h2.4l-0.5,0.5l2.5,2.4V5.3z"/>
</svg>
