<svg version="1.1" xmlns="http://www.w3.org/2000/svg" xmlns:xlink="http://www.w3.org/1999/xlink" viewBox="0 0 32 32">
<g id="Group_10_" transform="translate(7.000000, 12.637820)">
	<path id="Shape_110_"  d="M0.6-5.4c-0.1,0-0.2,0.1-0.3,0.2L-6,8.2C-6,8.3-6,8.5-5.9,8.6s0.2,0.2,0.4,0.2H5.3v2.5H2.3
		c0,0-0.1,0-0.1,0c-0.2,0-0.4,0.2-0.4,0.5c0,0.2,0.2,0.4,0.5,0.4h13.3c0.2,0,0.3-0.1,0.4-0.2c0.1-0.1,0.1-0.3,0-0.4
		c-0.1-0.1-0.2-0.2-0.4-0.2h-2.9V8.8h10.8c0.1,0,0.3-0.1,0.4-0.2C24,8.5,24,8.3,24,8.2L17.7-5.1c-0.1-0.1-0.2-0.2-0.4-0.2H9H0.6
		C0.6-5.4,0.6-5.4,0.6-5.4L0.6-5.4z M0.9-4.6h3.4L3.7-2.1h-3.9L0.9-4.6L0.9-4.6z M5.2-4.6h3.4v2.5h-4L5.2-4.6z M9.4-4.6h3.4l0.6,2.5
		h-4V-4.6z M13.7-4.6h3.4l1.2,2.5h-3.9L13.7-4.6z M-0.6-1.2h4L2.8,1.3h-4.6L-0.6-1.2C-0.6-1.2-0.6-1.2-0.6-1.2L-0.6-1.2z M4.3-1.2
		h4.3v2.5H3.7L4.3-1.2z M9.4-1.2h4.3l0.6,2.5H9.4V-1.2L9.4-1.2z M14.5-1.2h4c0,0,0,0,0.1,0l1.2,2.5h-4.6L14.5-1.2L14.5-1.2z
		 M-2.2,2.1h4.8L2,4.6h-5.4L-2.2,2.1L-2.2,2.1z M3.5,2.1h5.1v2.5H2.9L3.5,2.1L3.5,2.1z M9.4,2.1h5.1l0.6,2.5H9.4V2.1L9.4,2.1z
		 M15.4,2.1h4.8l1.2,2.5H16L15.4,2.1L15.4,2.1z M-3.8,5.4h5.6L1.2,7.9h-6.1L-3.8,5.4L-3.8,5.4z M2.7,5.4h5.9v2.5H2L2.7,5.4z
		 M9.4,5.4h5.9L16,7.9h-3.6H9.4V5.4z M16.2,5.4h5.6l1.2,2.5h-6.1L16.2,5.4z M6.1,8.8h5.8v2.5H6.1V8.8z"/>
</g>
</svg>
