<svg version="1.1" xmlns="http://www.w3.org/2000/svg" xmlns:xlink="http://www.w3.org/1999/xlink" viewBox="0 0 32 32">
<path  d="M22.8,31.1c-0.2,0-0.4-0.2-0.4-0.4v-4.7c-2.3-0.3-4.1-3.7-4.1-7.7c0-4.3,2-7.7,4.5-7.7s4.5,3.5,4.5,7.7
	c0,4-1.8,7.4-4.1,7.7v4.7C23.2,30.9,23,31.1,22.8,31.1z M23.2,22.4v3c1.9-0.3,3.4-3.4,3.4-7c0-3.9-1.7-7-3.8-7s-3.8,3.2-3.8,7
	c0,3.6,1.5,6.7,3.4,7v-4.9l-1.9-2.3c-0.1-0.1-0.1-0.4,0-0.5c0.1-0.1,0.4-0.1,0.5,0l1.4,1.6v-3.3c0-0.2,0.2-0.4,0.4-0.4
	s0.4,0.2,0.4,0.4v5.2l1.7-2.1c0.1-0.1,0.4-0.2,0.5-0.1c0.1,0.1,0.1,0.1,0.1,0.2c0,0.1,0,0.2-0.1,0.3L23.2,22.4z"/>
<path  d="M11.3,31.1c-0.3,0-0.5-0.2-0.5-0.5v-6.9c-3.4-0.4-6.1-5.4-6.1-11.4c0-6.3,3-11.4,6.6-11.4s6.6,5.1,6.6,11.4
	c0,6-2.7,11-6.1,11.4v6.9C11.8,30.9,11.6,31.1,11.3,31.1z M11.3,1.9c-3.1,0-5.7,4.7-5.7,10.5c0,5.4,2.3,10,5.2,10.4v-7.3L7.9,12
	c-0.1-0.1-0.1-0.2-0.1-0.3c0-0.1,0.1-0.2,0.2-0.3c0.2-0.2,0.5-0.1,0.7,0l2.2,2.5v-5c0-0.3,0.2-0.5,0.5-0.5c0.3,0,0.5,0.2,0.5,0.5
	v7.8l2.5-3.2c0.2-0.2,0.5-0.2,0.7-0.1c0.1,0.1,0.2,0.2,0.2,0.3c0,0.1,0,0.3-0.1,0.4l-3.3,4.1v4.4c2.9-0.5,5.2-5,5.2-10.4
	C17,6.5,14.4,1.9,11.3,1.9z"/>
</svg>
