<svg version="1.1" xmlns="http://www.w3.org/2000/svg" xmlns:xlink="http://www.w3.org/1999/xlink" viewBox="0 0 32 32">
<path  d="M18,25.7h-4.1l0,0H2c-0.2,0-0.4-0.2-0.4-0.4v-11H1.2c-0.1,0-0.3-0.1-0.3-0.2c-0.1-0.1-0.1-0.2,0-0.4l3.9-6.1
	c0.1-0.1,0.2-0.2,0.3-0.2h9.9l0.8-1c0.2-0.2,0.4-0.2,0.6,0l0.8,1h10c0.1,0,0.2,0.1,0.3,0.1l3.8,6.1c0.1,0.1,0,0.2,0,0.2
	c0,0.2-0.2,0.4-0.4,0.4h-0.5v11c0,0.2-0.2,0.4-0.4,0.4H18.2C18.1,25.6,18.1,25.7,18,25.7z M18.4,24.9h11.2V14.3h-7.9
	c-0.2,0-0.2-0.1-0.3-0.1L16,7.3l-5.4,6.8c-0.1,0.1-0.1,0.1-0.3,0.1H2.4v10.6h11.2v-3.6c0-1.3,1.1-2.4,2.4-2.4s2.4,1.1,2.4,2.4V24.9z
	 M14.4,24.9h3.3v-3.6c0-0.9-0.7-1.6-1.6-1.6s-1.6,0.7-1.6,1.6V24.9z M30.2,13.9h0.6c0,0,0,0,0,0L30.2,13.9z M21.9,13.5h7.9l0.2,0
	h0.2l-3.4-5.3h-9.1L21.9,13.5z M1.9,13.5h8.2l4.2-5.3H5.3L1.9,13.5z"/>
<path  d="M7.7,23.5H4.6V20h3.1V23.5z M5.4,22.8H7v-2H5.4V22.8z"/>
<path  d="M7.7,18.8H4.6v-3.5h3.1V18.8z M5.4,18H7v-2H5.4V18z"/>
<path  d="M11.9,18.8H8.7v-3.5h3.1V18.8z M9.5,18h1.6v-2H9.5V18z"/>
<path  d="M11.9,23.5H8.7V20h3.1V23.5z M9.5,22.8h1.6v-2H9.5V22.8z"/>
<path  d="M27.4,18.8h-3.1v-3.5h3.1V18.8z M25.1,18h1.6v-2h-1.6V18z"/>
<g id="Shape_121_">
	<path  d="M27.4,23.5h-3.1V20h3.1V23.5z M25.1,22.8h1.6v-2h-1.6V22.8z"/>
</g>
<path  d="M23.3,18.8h-3.1v-3.5h3.1V18.8z M20.9,18h1.6v-2h-1.6V18z"/>
<g id="Shape_123_">
	<path  d="M23.3,23.5h-3.1V20h3.1V23.5z M20.9,22.8h1.6v-2h-1.6V22.8z"/>
</g>
<path  d="M16,16.9c-1.6,0-3-1.3-3-3s1.3-3,3-3s3,1.3,3,3S17.7,16.9,16,16.9z M16,11.7c-1.2,0-2.2,1-2.2,2.2
	s1,2.2,2.2,2.2c1.2,0,2.2-1,2.2-2.2C18.3,12.6,17.3,11.7,16,11.7z"/>
</svg>
