<svg version="1.1" xmlns="http://www.w3.org/2000/svg" xmlns:xlink="http://www.w3.org/1999/xlink" viewBox="0 0 32 32">
<path id="Shape_64_"  d="M1.9,25h28.1h0c0.5,0,0.9-0.4,0.9-0.9c0-0.1,0-0.1,0-0.2c-0.1-8-6.3-14.5-14-15l0-1
	c1.1-0.4,1.9-1.4,1.9-2.7c0-1.6-1.3-2.8-2.8-2.8c-1.6,0-2.8,1.3-2.8,2.8c0,1.3,0.8,2.3,1.9,2.7l0,1C7.2,9.5,1,16.1,1,24.1
	C1,24.6,1.4,25,1.9,25L1.9,25z M15,5.3c0-0.5,0.4-1,1-1c0.5,0,1,0.4,1,1c0,0.5-0.4,1-1,1C15.5,6.3,15,5.9,15,5.3L15,5.3z M30.1,27.6
	H1.9c-0.5,0-0.9,0.4-0.9,0.9c0,0.5,0.4,0.9,0.9,0.9h28.1c0.5,0,0.9-0.4,0.9-0.9C31,28.1,30.6,27.6,30.1,27.6L30.1,27.6z"/>
<path id="Shape_65_"  d="M16.1,14.3C16.1,14.3,16.1,14.3,16.1,14.3L16.1,14.3C16.1,15,16.7,14.3,16.1,14.3L16.1,14.3z
	 M15.1,12.9c-4.8,0-9.4,6.1-9.4,12.5c0,0.8,0.5,1.4,1,1.4c0.6,0,1-0.6,1-1.4c0-4.8,4.7-11.1,8.3-11.1C16.1,13.5,15.7,12.9,15.1,12.9
	L15.1,12.9z"/>
</svg>
