<svg version="1.1" xmlns="http://www.w3.org/2000/svg" xmlns:xlink="http://www.w3.org/1999/xlink" viewBox="0 0 32 32">
<g>
	<path  d="M13.2,28c-1.8,0-3.3-1.5-3.3-3.2s1.5-3.2,3.3-3.2s3.3,1.5,3.3,3.2S15,28,13.2,28z M13.2,22.4
		c-1.4,0-2.5,1.1-2.5,2.4c0,1.3,1.1,2.4,2.5,2.4s2.5-1.1,2.5-2.4C15.6,23.4,14.5,22.4,13.2,22.4z"/>
</g>
<g>
	<path  d="M27.9,18.7H12L9.3,5H31L27.9,18.7z M12.7,17.8h14.5l2.8-12H10.3L12.7,17.8z"/>
</g>
<g>
	<path  d="M25,28c-1.8,0-3.3-1.5-3.3-3.2s1.5-3.2,3.3-3.2s3.3,1.5,3.3,3.2S26.8,28,25,28z M25,22.4
		c-1.4,0-2.5,1.1-2.5,2.4c0,1.3,1.1,2.4,2.5,2.4s2.5-1.1,2.5-2.4C27.5,23.4,26.4,22.4,25,22.4z"/>
</g>
<g>
	<path  d="M28.6,22.3H9.2L5.8,6.9H1V4h7.1l3.4,15.4h17V22.3z M9.9,21.5h17.9v-1.3H10.9L7.5,4.8H1.8v1.3h4.6L9.9,21.5z
		"/>
</g>
<g id="Oval">
	<circle  cx="13.3" cy="25.3" r="1.4"/>
</g>
<g id="Oval_1_">
	<circle  cx="25.4" cy="25.3" r="1.4"/>
</g>
<g id="Shape_1_">
	<polygon  points="13.9,7.1 12.6,7.1 13.5,16.5 14.8,16.5 	"/>
</g>
<g id="Shape_2_">
	<polygon  points="17.8,7.1 16.5,7.1 17.4,16.5 18.7,16.5 	"/>
</g>
<g id="Shape_3_">
	<polygon  points="21.7,7.1 20.4,7.1 21.2,16.5 22.5,16.5 	"/>
</g>
<g id="Shape_4_">
	<polygon  points="25.6,7.1 24.3,7.1 25.1,16.5 26.4,16.5 	"/>
</g>
</svg>
