<svg version="1.1" xmlns="http://www.w3.org/2000/svg" xmlns:xlink="http://www.w3.org/1999/xlink" viewBox="0 0 32 32">
<rect id="Rectangle-path_30_" x="1" y="4.9"  width="30" height="1.6"/>
<rect id="Rectangle-path_31_" x="1" y="25.4"  width="30" height="1.6"/>
<rect id="Rectangle-path_32_" x="1" y="4.9"  width="1.6" height="20.5"/>
<rect id="Rectangle-path_33_" x="29.4" y="4.9"  width="1.6" height="20.5"/>
<polygon id="Shape_35_"  points="5.7,12.8 2.6,12.8 2.6,14.4 5.7,14.4 5.7,17.6 2.6,17.6 2.6,19.1 5.7,19.1 7.3,19.1 
	7.3,17.6 7.3,14.4 7.3,12.8 "/>
<polygon id="Shape_36_"  points="29.4,14.4 29.4,12.8 26.2,12.8 24.7,12.8 24.7,14.4 24.7,17.6 24.7,19.1 26.2,19.1 
	29.4,19.1 29.4,17.6 26.2,17.6 26.2,14.4 "/>
<rect id="Rectangle-path_34_" x="15.2" y="6.5"  width="1.6" height="18.9"/>
<ellipse id="Oval_4_"  cx="16" cy="16" rx="2.4" ry="3.2"/>
</svg>
