<svg version="1.1" xmlns="http://www.w3.org/2000/svg" xmlns:xlink="http://www.w3.org/1999/xlink" viewBox="0 0 32 32">
<path id="Shape_44_"  d="M16,1c-3.2,0-5.7,2.6-5.7,5.7s2.6,5.7,5.7,5.7s5.7-2.6,5.7-5.7S19.2,1,16,1z M16,1.7
	c2.8,0,5,2.2,5,5s-2.2,5-5,5s-5-2.2-5-5S13.2,1.7,16,1.7z M16,13.9c-5.5,0-10,4.6-10,10.4c0,0.2,0.2,0.4,0.4,0.4h17.1
	c0.1,0,0.2-0.1,0.3-0.2c0.1-0.1,0.1-0.2,0-0.4c-0.1-0.1-0.2-0.2-0.3-0.2H6.7c0.2-5.2,4.2-9.3,9.3-9.3c5.1,0,9.3,4.3,9.3,9.6
	c0,0.1,0.1,0.2,0.2,0.3c0.1,0.1,0.2,0.1,0.4,0c0.1-0.1,0.2-0.2,0.2-0.3C26,18.5,21.5,13.9,16,13.9z M7.1,26C6.5,26,6,26.5,6,27.1
	v2.9C6,30.5,6.5,31,7.1,31h17.9c0.6,0,1.1-0.5,1.1-1.1v-2.9c0-0.6-0.5-1.1-1.1-1.1H7.1z M7.1,26.7h17.9c0.2,0,0.4,0.2,0.4,0.4v2.9
	c0,0.2-0.2,0.4-0.4,0.4H7.1c-0.2,0-0.4-0.2-0.4-0.4v-2.9C6.7,26.9,6.9,26.7,7.1,26.7z M8.4,28.1c-0.2,0-0.3,0.2-0.3,0.4
	s0.2,0.3,0.4,0.3h2.9c0.1,0,0.2-0.1,0.3-0.2c0.1-0.1,0.1-0.2,0-0.4c-0.1-0.1-0.2-0.2-0.3-0.2H8.4C8.5,28.1,8.5,28.1,8.4,28.1z
	 M14.5,28.1c-0.2,0-0.3,0.2-0.3,0.4c0,0.2,0.2,0.3,0.4,0.3h2.9c0.1,0,0.2-0.1,0.3-0.2c0.1-0.1,0.1-0.2,0-0.4
	c-0.1-0.1-0.2-0.2-0.3-0.2H14.5C14.5,28.1,14.5,28.1,14.5,28.1z M20.6,28.1c-0.2,0-0.3,0.2-0.3,0.4c0,0.2,0.2,0.3,0.4,0.3h2.9
	c0.1,0,0.2-0.1,0.3-0.2c0.1-0.1,0.1-0.2,0-0.4c-0.1-0.1-0.2-0.2-0.3-0.2H20.6C20.6,28.1,20.6,28.1,20.6,28.1z"/>
</svg>
