<svg version="1.1" xmlns="http://www.w3.org/2000/svg" xmlns:xlink="http://www.w3.org/1999/xlink" viewBox="0 0 32 32">
<path id="Shape_60_"  d="M9.8,31H1.5C1.2,31,1,30.8,1,30.5V16.2c0-0.3,0.2-0.5,0.5-0.5h8.3c0.3,0,0.5,0.2,0.5,0.5
	v14.3C10.3,30.8,10,31,9.8,31z M2,30h7.3V16.7H2V30z"/>
<path id="Shape_61_"  d="M22.1,31H9.8c-0.3,0-0.5-0.2-0.5-0.5v-29C9.3,1.2,9.5,1,9.8,1h12.3c0.3,0,0.5,0.2,0.5,0.5v29
	C22.6,30.8,22.4,31,22.1,31z M10.3,30h11.3V2H10.3V30z"/>
<path id="Shape_62_"  d="M30.5,31h-8.4c-0.3,0-0.5-0.2-0.5-0.5V16.2c0-0.3,0.2-0.5,0.5-0.5h8.4c0.3,0,0.5,0.2,0.5,0.5
	v14.3C31,30.8,30.8,31,30.5,31z M22.6,30H30V16.7h-7.4V30z"/>
<path id="Shape_63_"  d="M18.6,31h-5.4c-0.3,0-0.5-0.2-0.5-0.5v-7.7c0-0.3,0.2-0.5,0.5-0.5h5.4c0.3,0,0.5,0.2,0.5,0.5
	v7.7C19.1,30.8,18.9,31,18.6,31z M13.7,30h4.4v-6.7h-4.4V30z"/>
</svg>
