<svg version="1.1" xmlns="http://www.w3.org/2000/svg" xmlns:xlink="http://www.w3.org/1999/xlink" viewBox="0 0 32 32">
<circle id="Oval_5_"  cx="17.7" cy="3.8" r="2.3"/>
<path id="Shape_43_"  d="M28.5,20.6c-0.5-1.3-1.6-2.3-2.8-2.8c-0.7-0.3-1.4-0.4-2.1-0.4c-0.4,0-0.7,0-1.1,0.1L21,12.6
	h1.3c1.4,0,1.4-2,0-2l-3.8,0l-2.5-4.5c-0.7-1-2.1-1.5-3-0.4l-4.9,5.5c-0.9,1-0.7,2.1,0.3,2.7l1.2,0.7l-0.8,2.8c-1-0.2-2.1-0.1-3,0.3
	c-1.9,0.8-3.2,2.8-3.2,4.9c0,0.7,0.1,1.4,0.4,2.1c0.3,0.6,0.6,1.2,1.1,1.7c2.6,2.6,7.2,1.7,8.6-1.7c0.2-0.5,0.4-1.1,0.4-1.6h0.6
	c0.2,0.6,0.7,1,1.3,1c0.7,0,1.3-0.7,1.3-1.5v0l4.6-7l0.7,2.2c-0.6,0.3-1.2,0.6-1.6,1.1c-1.8,1.8-2.1,4.6-0.7,6.7
	c1.4,2.1,4.2,3,6.5,2C28.3,26.4,29.6,23.3,28.5,20.6L28.5,20.6z M9.4,18.8c1.3,0.6,2.2,1.8,2.5,3.2H8.4L9.4,18.8L9.4,18.8z
	 M7.7,26.9c-2.3,0-4.2-1.9-4.2-4.2s1.9-4.2,4.2-4.2c0.2,0,0.4,0,0.6,0l-1.2,3.9c-0.1,0.3,0,0.7,0.4,0.7l4.3,0
	C11.7,25.2,9.9,26.9,7.7,26.9L7.7,26.9z M13.5,22H13c-0.1-0.5-0.2-0.9-0.4-1.4c-0.3-0.6-0.7-1.2-1.1-1.7c-0.5-0.5-1.1-0.9-1.7-1.1
	c0,0,0,0-0.1,0l0.8-2.6l3,2V22L13.5,22L13.5,22z M16.2,20.6v-4.4c0,0,0.1-0.4-0.1-0.8h3.6L16.2,20.6L16.2,20.6z M15,14.3l-2.6-1.6
	l3.1-3.4l1.5,2.6c0.3,0.5,0.6,0.7,1,0.7v0h2l0.5,1.7H15L15,14.3z M23.6,26.9c-2.3,0-4.2-1.9-4.2-4.2c0-1.7,1-3.1,2.4-3.8l1.2,3.8
	c0.2,0.7,1.3,0.4,1-0.3l-1.2-3.8c0.2,0,0.5-0.1,0.7-0.1c2.3,0,4.2,1.9,4.2,4.2S25.9,26.9,23.6,26.9L23.6,26.9z"/>
<rect id="Rectangle" x="1" y="28"  width="30" height="2.4"/>
</svg>
