<svg version="1.1" xmlns="http://www.w3.org/2000/svg" xmlns:xlink="http://www.w3.org/1999/xlink" viewBox="0 0 32 32">
<path id="Shape_5_"  d="M29.9,24.9v-1.1h-1.1v-1.1h-1.1l0-3.5c0,0-0.1-0.7,0-0.9c-0.7-0.1-1.1,0-1.1,0v-1.1h1.1V16
	c0,0-0.9,0.1-3.1-0.8c-1.9-0.7-2.5-2.5-2.5-2.5l-0.4-0.4c0,0,0,0-0.1-0.1L16,6l-5.7,6.2c0,0,0,0-0.1,0.1l-0.4,0.4
	c0,0-0.6,1.8-2.5,2.5C5.3,16.1,4.3,16,4.3,16v1.1h1.1v1.1c0,0-0.3,0-1.1,0c0,0.3,0,0.9,0,0.9l0,3.5H3.2v1.1H2.1v1.1H1V26h30v-1.1
	H29.9L29.9,24.9z M24.3,17.1h1.1v1.1h-1.1V17.1L24.3,17.1z M23.2,17.1v1.1h-1.1v-1.1H23.2L23.2,17.1z M21,17.1v1.1h-1.1v-1.1H21
	L21,17.1z M18.8,17.1v1.1h-1.1v-1.1H18.8L18.8,17.1z M8.8,17.1h1.1v1.1H8.8V17.1L8.8,17.1z M5.4,21.6l0-1.7l0.4-0.4h1.2L7.6,20
	l0.1,1.6H5.4L5.4,21.6z M7.7,18.2H6.6v-1.1h1.1V18.2L7.7,18.2z M8.8,21.6l-0.3-1.7l0.4-0.4h1.2l0.5,0.5l0.4,1.6H8.8L8.8,21.6z
	 M11,17.1h1.1v1.1H11V17.1L11,17.1z M12.1,21.6l-0.5-1.7l0.4-0.4h1.2l0.5,0.5l0.6,1.6H12.1L12.1,21.6z M14.3,18.2h-1.1v-1.1h1.1
	V18.2L14.3,18.2z M16.6,21.6h-1.1v-2.2h1.1V21.6L16.6,21.6z M16.6,18.2h-1.1v-1.1h1.1V18.2L16.6,18.2z M19.9,21.6h-2.2l0.6-1.6
	l0.5-0.5H20l0.4,0.4L19.9,21.6L19.9,21.6z M23.2,21.6H21l0.4-1.6l0.5-0.5h1.2l0.4,0.4L23.2,21.6L23.2,21.6z M26.6,21.6h-2.2l0.1-1.6
	l0.5-0.5h1.2l0.4,0.4L26.6,21.6L26.6,21.6z"/>
</svg>
