<svg version="1.1" xmlns="http://www.w3.org/2000/svg" xmlns:xlink="http://www.w3.org/1999/xlink" viewBox="0 0 32 32">
<path id="Shape_41_"  d="M15.1,10.8h-12c-1.2,0-2.1,1-2.1,2.1v12c0,1.2,1,2.1,2.1,2.1h12c1.2,0,2.1-1,2.1-2.1v-12
	C17.3,11.8,16.3,10.8,15.1,10.8L15.1,10.8z M5.8,24.8c-0.9,0-1.6-0.7-1.6-1.6c0-0.9,0.7-1.6,1.6-1.6s1.6,0.7,1.6,1.6
	C7.4,24.1,6.7,24.8,5.8,24.8L5.8,24.8z M5.8,20.6c-0.9,0-1.6-0.7-1.6-1.6c0-0.9,0.7-1.6,1.6-1.6s1.6,0.7,1.6,1.6
	C7.4,19.8,6.7,20.6,5.8,20.6L5.8,20.6z M5.8,16.3c-0.9,0-1.6-0.7-1.6-1.6c0-0.9,0.7-1.6,1.6-1.6s1.6,0.7,1.6,1.6
	C7.4,15.6,6.7,16.3,5.8,16.3L5.8,16.3z M12.2,24.8c-0.9,0-1.6-0.7-1.6-1.6c0-0.9,0.7-1.6,1.6-1.6c0.9,0,1.6,0.7,1.6,1.6
	C13.8,24.1,13.1,24.8,12.2,24.8L12.2,24.8z M12.2,20.6c-0.9,0-1.6-0.7-1.6-1.6c0-0.9,0.7-1.6,1.6-1.6c0.9,0,1.6,0.7,1.6,1.6
	C13.8,19.8,13.1,20.6,12.2,20.6L12.2,20.6z M12.2,16.3c-0.9,0-1.6-0.7-1.6-1.6c0-0.9,0.7-1.6,1.6-1.6c0.9,0,1.6,0.7,1.6,1.6
	C13.8,15.6,13.1,16.3,12.2,16.3L12.2,16.3z"/>
<path id="Shape_42_"  d="M30.5,12.2l-6.8-6.8c-0.7-0.7-1.8-0.7-2.5,0l-6.8,6.8c-0.7,0.7-0.7,1.8,0,2.5l6.8,6.8
	c0.7,0.7,1.8,0.7,2.5,0l6.8-6.8C31.2,14,31.2,12.9,30.5,12.2L30.5,12.2z M22.2,8.2c0.5-0.5,1.3-0.5,1.8,0c0.5,0.5,0.5,1.3,0,1.8
	c-0.5,0.5-1.3,0.5-1.8,0C21.7,9.5,21.7,8.7,22.2,8.2L22.2,8.2z M19.1,15c-0.5,0.5-1.3,0.5-1.8,0c-0.5-0.5-0.5-1.3,0-1.8
	c0.5-0.5,1.3-0.5,1.8,0C19.6,13.6,19.6,14.5,19.1,15L19.1,15z M19.7,10.7c0.5-0.5,1.3-0.5,1.8,0c0.5,0.5,0.5,1.3,0,1.8
	c-0.5,0.5-1.3,0.5-1.8,0C19.2,12,19.2,11.2,19.7,10.7L19.7,10.7z M22.8,18.6c-0.5,0.5-1.3,0.5-1.8,0c-0.5-0.5-0.5-1.3,0-1.8
	c0.5-0.5,1.3-0.5,1.8,0C23.3,17.3,23.3,18.1,22.8,18.6L22.8,18.6z M25.3,16.2c-0.5,0.5-1.3,0.5-1.8,0c-0.5-0.5-0.5-1.3,0-1.8
	c0.5-0.5,1.3-0.5,1.8,0C25.8,14.9,25.8,15.7,25.3,16.2L25.3,16.2z M27.7,13.7c-0.5,0.5-1.3,0.5-1.8,0c-0.5-0.5-0.5-1.3,0-1.8
	c0.5-0.5,1.3-0.5,1.8,0C28.2,12.4,28.2,13.2,27.7,13.7L27.7,13.7z"/>
</svg>
