<svg version="1.1" xmlns="http://www.w3.org/2000/svg" xmlns:xlink="http://www.w3.org/1999/xlink" viewBox="0 0 32 32">
<path id="Fill-2_15_"  d="M15.6,26.4c-0.2,0-1.9-0.1-2.8-2.1c-0.8-1.9,0.1-4,0.4-4.7c0-0.1,0.1-0.2,0.1-0.2
	c0-0.1,0.1-0.2,0.1-0.3c0.4-1,1.6-3.5-0.1-6c0,0,0-0.1,0-0.1c0,0,0.1-0.1,0.1-0.1c0.1,0,2.8,0.4,4.5,4.6c1.7,4.2,0.1,7-0.8,7.4
	c-0.1,0-0.1,0-0.2-0.1c0-0.1,0-0.1,0.1-0.2c0.8-0.4,2.3-3.1,0.7-7.1c-1.3-3.2-3.2-4.1-4-4.3c1.6,2.5,0.4,5.1,0,6
	c-0.1,0.1-0.1,0.2-0.1,0.3c0,0.1-0.1,0.1-0.1,0.2c-0.3,0.8-1.1,2.7-0.4,4.5c0.8,2,2.4,2,2.5,2c0.1,0,0.1,0.1,0.1,0.1
	C15.8,26.3,15.7,26.4,15.6,26.4C15.6,26.4,15.6,26.4,15.6,26.4"/>
<path id="Fill-3_17_"  d="M14.7,25.7C14.7,25.7,14.6,25.7,14.7,25.7c-0.1-0.1-1.7-1.8-0.7-4.4c0.4-1,0.8-1.5,1.1-2
	c0.5-0.7,0.8-1.2,0.6-2.6c0-0.1,0-0.1,0.1-0.1c0.1,0,0.1,0,0.2,0c0,0,3.7,3.6,1.6,7.6c0,0.1-0.1,0.1-0.2,0.1c-0.1,0-0.1-0.1-0.1-0.2
	c0,0,0.8-1.7,0.1-3c-0.3-0.6-0.6-1.2-0.8-1.8c-0.2,0.5-0.6,1.5-0.8,1.9c-0.3,0.5-0.2,1.3-0.2,1.4c0,0,0,0.1,0,0.1
	c0,0-0.1,0.1-0.1,0.1c-0.1,0-0.1,0-0.2-0.2c-0.1-0.1-0.3-0.5-0.4-0.8c-0.3,0.7-0.8,2.1,0,3.8c0,0,0,0.1,0,0.1
	C14.8,25.7,14.8,25.7,14.7,25.7L14.7,25.7L14.7,25.7z M15.9,17.2c0.1,1.2-0.2,1.7-0.7,2.4c-0.3,0.4-0.7,1-1,1.9
	c-0.5,1.3-0.3,2.4,0,3.1c-0.4-2,0.6-3.4,0.6-3.4c0-0.1,0.1-0.1,0.2,0c0.1,0,0.1,0.1,0.1,0.2c-0.1,0.2,0.1,0.6,0.2,0.9
	c0-0.3,0.1-0.7,0.2-1.1c0.3-0.6,0.9-2.2,0.9-2.3c0-0.1,0.1-0.1,0.1-0.1c0.1,0,0.1,0,0.1,0.1c0.2,0.8,0.5,1.5,0.9,2.2
	c0.2,0.3,0.2,0.6,0.3,0.9C17.9,19.7,16.5,17.9,15.9,17.2L15.9,17.2z"/>
<path id="Fill-4_18_"  d="M15.8,31h-0.2c0,0,0,0,0,0c-3.8-0.1-4.8-2.2-4.9-2.3c0-0.1,0-0.1,0-0.2V10.7
	c0-0.2,0.1-0.7,0.5-1.2c0.3-0.4,1.2-0.6,2.1-0.8c0.1,0,0.3-0.1,0.3-0.1l0-1c0-0.2,0.1-0.3,0.3-0.4l0.1,0c0,0,0.1,0,0.1,0h3.4
	c0.1,0,0.2,0.1,0.3,0.1c0.1,0.1,0.1,0.2,0.1,0.3v1c0.1,0,0.2,0.1,0.3,0.1c0.9,0.2,1.7,0.4,2.1,0.8c0.3,0.4,0.5,0.8,0.5,1.2v17.9
	c0,0.1,0,0.1,0,0.2C20.6,28.8,19.7,30.9,15.8,31C15.8,31,15.8,31,15.8,31L15.8,31z M11.5,28.5c0.2,0.3,1.2,1.7,4.2,1.7
	c3.1,0,4-1.4,4.2-1.7V10.7c0-0.1,0-0.4-0.3-0.7c-0.2-0.2-1.3-0.5-1.6-0.6c-0.2,0-0.3-0.1-0.4-0.1c-0.4-0.1-0.6-0.6-0.6-0.8V7.9h-2.7
	v0.7c0,0.2-0.1,0.6-0.5,0.8c-0.1,0-0.2,0.1-0.4,0.1C13,9.5,11.9,9.7,11.8,10c-0.3,0.3-0.3,0.6-0.3,0.7L11.5,28.5L11.5,28.5
	L11.5,28.5z"/>
<path id="Fill-5_17_"  d="M17,7.7h-2.8c-0.2,0-0.4-0.2-0.4-0.4h-0.3c-0.2,0-0.4-0.2-0.4-0.4V6.8l-1.8,0.1
	c-0.2,0-0.4-0.2-0.4-0.4l-0.1-1.3c0-0.1,0-0.2,0.1-0.3c0.1-0.1,0.2-0.1,0.3-0.1l1.9-0.1c0-0.1,0.1-0.2,0.3-0.2
	c-0.1-0.3-0.1-0.5-0.1-0.6c0-0.3,0.3-0.5,0.4-0.5c0.6-0.4,1.7-1.1,2.3-1.3c0.6-0.2,1.7-0.5,1.9-0.5c0.1,0,0.6-0.3,0.9-0.5
	C18.9,1,19.4,0.9,20,1.1c0.3,0.1,0.4,0.3,0.5,0.4c0.1,0.2,0,0.4-0.1,0.6c-0.1,0.2-0.2,0.2-0.3,0.3l-0.1,0c-0.2,0.1-0.4,0.2-0.8,0.2
	c-0.3,0.1-1.5,0.6-2,0.8l-0.1,0.2l1.6,0.5c0,0,1.4,0.3,2.4,1.1c0,0,0.1,0.1,0.1,0.1c0,0.1,0.1,0.3,0,0.6C21.2,6,21,6.1,20.8,6.1
	c0,0-0.1,0-0.2,0c-0.5-0.2-1.2-0.5-1.6-0.5c-0.4,0-0.9,0-1.2-0.1v0c0,0.1,0,0.2-0.1,0.2l-0.3,0.3l0,1.2C17.4,7.6,17.2,7.7,17,7.7
	L17,7.7z M14.6,6.9h2l0-0.9c0-0.1,0-0.2,0.1-0.2L17,5.4V5.1c0-0.1,0-0.2,0.1-0.3c0.1-0.1,0.2-0.1,0.3-0.1c0,0,0.5,0.1,1,0.1
	l-1.9-0.6c-0.1,0-0.2-0.1-0.2-0.2c0-0.1-0.1-0.2,0-0.3L16.5,3c0-0.1,0.1-0.2,0.2-0.2c0,0,0.5-0.2,1.1-0.4c-0.4,0.1-1.1,0.3-1.5,0.4
	C16,2.9,15.2,3.4,14.3,4c0,0-0.1,0.1-0.1,0.1c0,0,0,0,0,0.1h0.1c0.2,0,0.4,0.2,0.4,0.4v0.3c0,0.2-0.2,0.4-0.4,0.4h-0.3
	c-0.1,0.1-0.2,0.2-0.3,0.2l-1.9,0.1l0,0.5L13.5,6c0.1,0,0.2,0,0.3,0.1c0,0,0.1,0.1,0.1,0.1C13.9,6.1,14.1,6,14.2,6
	c0.2,0,0.4,0.2,0.4,0.4L14.6,6.9L14.6,6.9L14.6,6.9z"/>
</svg>
