<svg version="1.1" xmlns="http://www.w3.org/2000/svg" xmlns:xlink="http://www.w3.org/1999/xlink" viewBox="0 0 32 32">
<path id="Fill-2_12_"  d="M9.6,25.9c-0.8,0-1.5-0.2-2-0.7c-1.1-0.8-4-4-4.6-4.9c-0.6-1-1.3-2.6-1.2-4.1
	c0-0.4,0.1-0.8,0.2-1.1c0.2-1,0.4-1.9-0.3-3.6C0.9,9.8,0.8,8,1.4,7.1c0.5-0.7,1.3-0.9,2.2-0.6c2.2,0.8,4.5,1,5.4,1h1.1
	c0.9,0,3.2-0.2,5.4-1c0.9-0.3,1.7-0.1,2.2,0.6c0.6,1,0.6,2.8-0.2,4.4c-0.7,1.7-0.5,2.6-0.3,3.6c0.1,0.4,0.2,0.7,0.2,1.1
	c0.1,1.6-0.6,3.2-1.2,4.1c-0.6,1-3.5,4.1-4.6,4.9C11.1,25.7,10.3,25.9,9.6,25.9L9.6,25.9z M2.8,7.1c-0.3,0-0.5,0.1-0.7,0.4
	c-0.5,0.7-0.4,2.3,0.2,3.7c0.8,1.9,0.6,3,0.4,4c-0.1,0.4-0.1,0.7-0.2,1c-0.1,1.4,0.5,2.8,1.1,3.7c0.6,0.9,3.4,4,4.4,4.7
	c0.8,0.6,2.3,0.6,3.1,0c1-0.7,3.8-3.8,4.4-4.7c0.5-0.8,1.2-2.3,1.1-3.7c0-0.3-0.1-0.7-0.2-1c-0.2-1-0.4-2.2,0.4-4.1
	c0.6-1.4,0.7-2.9,0.2-3.7c-0.3-0.4-0.7-0.5-1.2-0.3c-2,0.7-4.4,1.1-5.7,1.1H9C7.7,8.3,5.4,8,3.3,7.2C3.1,7.2,3,7.1,2.8,7.1L2.8,7.1z
	"/>
<path id="Fill-3_14_"  d="M4,13.5c-0.2,0-0.3-0.1-0.4-0.2c-0.1-0.1,0-0.3,0.1-0.4c0,0,0.9-1.1,2.3-1.1
	c0.8,0,1.5,0.4,2.2,1.1c0.1,0.1,0.2,0.3,0.1,0.4c-0.1,0.2-0.2,0.3-0.4,0.3L4,13.5C4,13.5,4,13.5,4,13.5L4,13.5z M6,12.5
	c-0.3,0-0.5,0.1-0.7,0.1l1.4,0C6.4,12.6,6.2,12.5,6,12.5L6,12.5z"/>
<path id="Fill-4_15_"  d="M10.7,13.5c-0.2,0-0.3-0.1-0.4-0.2c-0.1-0.1,0-0.3,0.1-0.4c0,0,0.9-1.1,2.3-1.1
	c0.8,0,1.5,0.4,2.2,1.1C15,12.9,15,13,15,13.2c-0.1,0.2-0.2,0.3-0.4,0.3L10.7,13.5C10.7,13.5,10.7,13.5,10.7,13.5L10.7,13.5z
	 M12.7,12.5c-0.3,0-0.5,0.1-0.7,0.1l1.4,0C13.1,12.6,12.9,12.5,12.7,12.5L12.7,12.5z"/>
<path id="Fill-5_14_"  d="M9.4,22.1c-4,0-5.2-4.3-5.2-4.3c-0.1-0.2,0.1-0.4,0.3-0.5c0.2-0.1,0.4,0.1,0.5,0.3
	c0,0.1,1,3.7,4.4,3.7c3.6,0,4.3-3.5,4.3-3.7c0-0.2,0.3-0.4,0.5-0.3c0.2,0,0.4,0.2,0.3,0.5C14.5,17.8,13.7,22.1,9.4,22.1"/>
<path id="Fill-6_10_"  d="M16.9,26.6c-1.3,0-2.5-0.7-3.1-1.8c-0.2-0.3-0.4-0.9-0.7-1.7c-0.1-0.2,0-0.4,0.3-0.5
	c0.2-0.1,0.4,0,0.5,0.3c0.3,0.7,0.5,1.3,0.6,1.6c0.5,1,1.7,1.6,2.8,1.4c1.2-0.2,5.1-1.8,6-2.3c0.9-0.5,2-1.6,2.6-2.8
	c0.1-0.3,0.2-0.7,0.3-1c0.3-1,0.5-2.1,2.1-3.5c1.2-1.1,2-2.5,1.8-3.4c0-0.1-0.2-0.5-0.9-0.6c-2.2-0.2-4.4-0.9-5.6-1.5l-1-0.5
	c-1.2-0.6-3.1-1.9-4.6-3.5c-0.3-0.3-0.6-0.5-0.9-0.4c-0.3,0-0.7,0.3-1,0.7c-0.1,0.2-0.4,0.2-0.6,0.1c-0.2-0.1-0.2-0.4-0.1-0.6
	c0.4-0.7,1-1.1,1.6-1.1c0.4,0,0.9,0.1,1.5,0.7C20.2,7.8,22.2,9,23,9.4l1,0.5c0.8,0.4,2.9,1.2,5.3,1.4c1.1,0.1,1.5,0.8,1.6,1.2
	c0.4,1.1-0.5,2.9-2,4.2c-1.4,1.2-1.6,2.1-1.9,3.1c-0.1,0.4-0.2,0.7-0.3,1.1c-0.6,1.4-1.9,2.6-2.9,3.2c-1,0.6-5,2.2-6.3,2.4
	C17.3,26.5,17.1,26.6,16.9,26.6"/>
<path id="Fill-7_8_"  d="M18.6,14.1c-1.2,0-1.8-0.6-2.2-1.1c-0.1-0.2-0.1-0.4,0.1-0.6c0,0,0.1-0.1,0.2-0.1
	c-0.1-0.1-0.2-0.3-0.1-0.5c0.1-0.2,0.4-0.3,0.6-0.2l2.8,1.4c0.1,0.1,0.2,0.2,0.2,0.4c0,0.2-0.1,0.3-0.3,0.4
	C19.4,14,19,14.1,18.6,14.1L18.6,14.1z M17.2,12.6c0.3,0.4,0.8,0.6,1.3,0.7L17.2,12.6L17.2,12.6z"/>
<path id="Fill-8_6_"  d="M24.6,17L24.6,17c-1.7,0-2.6-1.5-2.7-2.3c0-0.2,0-0.3,0.1-0.4c0.1-0.1,0.3-0.1,0.4,0L26,16
	c0.1,0.1,0.2,0.2,0.2,0.4c0,0.2-0.1,0.3-0.3,0.4C25.5,16.9,25,17,24.6,17L24.6,17z M23.2,15.6c0.3,0.3,0.7,0.6,1.2,0.6L23.2,15.6
	L23.2,15.6z"/>
<path id="Fill-9_5_"  d="M20.6,24c0,0-0.1,0-0.1,0c-0.2-0.1-0.3-0.3-0.3-0.5c0-0.1,0.8-2.8-1.7-4
	c-0.6-0.3-1.2-0.4-1.9-0.3c-0.2,0-0.4-0.1-0.5-0.3c0-0.2,0.1-0.4,0.3-0.5c0.8-0.1,1.6,0,2.4,0.4c3.1,1.5,2.2,4.9,2.2,4.9
	C21,23.8,20.8,24,20.6,24"/>
</svg>
