<svg version="1.1" xmlns="http://www.w3.org/2000/svg" xmlns:xlink="http://www.w3.org/1999/xlink" viewBox="0 0 32 32">
<path id="Shape_51_"  d="M21.5,15.8c-0.4,0.4-0.6,0.9-0.6,1.5s0.2,1.1,0.6,1.5c0.4,0.4,0.9,0.6,1.5,0.6
	s1.1-0.2,1.5-0.6c0.4-0.4,0.6-0.9,0.6-1.5s-0.2-1.1-0.6-1.5c-0.4-0.4-0.9-0.6-1.5-0.6C22.4,15.2,21.9,15.4,21.5,15.8L21.5,15.8z
	 M20,20.5c-0.6,0-1.1,0.2-1.5,0.6c-0.4,0.4-0.6,0.9-0.6,1.5c0,0.6,0.2,1.1,0.6,1.5c0.4,0.4,0.9,0.6,1.5,0.6c0.6,0,1.1-0.2,1.5-0.6
	c0.4-0.4,0.6-0.9,0.6-1.5c0-0.6-0.2-1.1-0.6-1.5C21.1,20.7,20.6,20.5,20,20.5L20,20.5z M14.7,23.5c-0.6,0-1.1,0.2-1.5,0.6
	c-0.4,0.4-0.6,0.9-0.6,1.5c0,0.6,0.2,1.1,0.6,1.5c0.4,0.4,0.9,0.6,1.5,0.6s1.1-0.2,1.5-0.6c0.8-0.8,0.8-2.2,0-3
	C15.8,23.7,15.2,23.5,14.7,23.5L14.7,23.5z M9.4,20.6c-0.6,0-1.1,0.2-1.5,0.6c-0.4,0.4-0.6,0.9-0.6,1.5s0.2,1.1,0.6,1.5
	c0.4,0.4,0.9,0.6,1.5,0.6c0.6,0,1.1-0.2,1.5-0.6c0.8-0.8,0.8-2.2,0-3C10.5,20.8,10,20.6,9.4,20.6L9.4,20.6z M7.8,15.8
	c-0.4-0.4-0.9-0.6-1.5-0.6c-0.6,0-1.1,0.2-1.5,0.6c-0.4,0.4-0.6,0.9-0.6,1.5c0,0.6,0.2,1.1,0.6,1.5c0.4,0.4,0.9,0.6,1.5,0.6
	s1.1-0.2,1.5-0.6C8.6,17.9,8.6,16.6,7.8,15.8L7.8,15.8z M11.6,8.2C11,7.7,10.3,7.4,9.7,7.4c-0.5,0-1,0.2-1.4,0.6
	c-0.8,0.8-0.7,2.3,0.3,3.3c0.5,0.5,1.2,0.8,1.9,0.8c0.5,0,1-0.2,1.4-0.6c0.4-0.4,0.6-1,0.5-1.6C12.3,9.3,12,8.7,11.6,8.2L11.6,8.2z
	 M30.9,2.4c-0.1-0.1-0.3-0.2-0.4-0.1l-2.1,0.5c-0.1,0-0.9,0.2-1.2,0.6c-0.6,0.6-0.7,1.4-0.5,2.1c-0.1,0-0.3,0-0.4,0.1l-3.4,2.7
	c-0.1,0.1-0.2,0.2-0.2,0.3c0,0,0,0,0,0c0,0,0,0,0,0c-0.1,0-0.3,0.1-0.3,0.2L20.2,11c-0.7,0.3-1.4,0.7-1.9,1.2
	c-0.4,0.4-0.9,0.6-1.4,0.6c-0.5,0-1-0.2-1.4-0.6c-0.4-0.4-0.6-1-0.6-1.5c0,0,0-0.1,0-0.1c0-0.1,0-0.1,0-0.2c0,0,0,0,0,0c0,0,0,0,0,0
	c-0.1-1.4-0.6-2.8-1.6-3.8c-1.1-1.1-2.5-1.6-4-1.6C8,4.8,6.9,5.2,6,5.9C5.7,6.1,5.4,6.3,5.2,6.5C5.1,6.6,5.1,6.6,5,6.7l0,0
	c0,0,0,0,0,0c-5.2,5.2-5.2,13.8,0,19c2.5,2.5,5.9,3.9,9.5,3.9c3.6,0,7-1.4,9.5-3.9c2.6-2.6,4-6.1,3.9-9.7c0,0,0-0.1,0-0.1
	c-0.1-1.4-0.6-2.7-1.6-3.7c-0.5-0.5-1.1-0.9-1.8-1.2l0,0c0.1-0.1,0.2-0.2,0.2-0.3c0,0,0,0,0,0l0,0c0,0,0,0,0,0
	c0.1,0,0.3-0.1,0.3-0.2L27.7,7c0.1-0.1,0.1-0.2,0.1-0.4c0.2,0.1,0.4,0.1,0.7,0.1c0.5,0,1.1-0.2,1.4-0.6c0.3-0.3,0.6-1.4,1.1-3.4
	C31,2.6,31,2.5,30.9,2.4L30.9,2.4z M25.6,12.9c0.9,0.9,1.3,2,1.4,3.2c0,0,0,0.1,0,0.1c0,3.4-1.3,6.5-3.7,8.9
	c-2.4,2.4-5.5,3.7-8.8,3.7S8,27.5,5.6,25.2C0.8,20.3,0.7,12.4,5.6,7.5c0,0,0.1-0.1,0.1-0.1l0.1-0.1c0.1-0.1,0.1-0.1,0.2-0.2
	C6.1,7,6.3,6.8,6.5,6.7c0.8-0.6,1.7-0.9,2.7-0.9c1.2,0,2.4,0.5,3.3,1.4c0.8,0.8,1.3,2,1.4,3.2c0,0,0,0,0,0c0,0,0,0.1,0,0.1
	c0,0,0,0.1,0,0.1c0,0,0,0.1,0,0.1c0,0.8,0.3,1.6,0.9,2.1c0.6,0.6,1.3,0.9,2.1,0.9c0.3,0,0.6,0,0.9-0.1l-3.3,3.6
	c-0.1,0.1-0.1,0.1-0.1,0.2l-0.2,1.1c0,0.2,0,0.3,0.1,0.4c0,0,0.1,0.1,0.1,0.1c0,0,0,0,0,0c0.1,0,0.1,0,0.2,0c0,0,0,0,0,0
	c0,0,0.1,0,0.1,0l1.1-0.2c0.1,0,0.2-0.1,0.2-0.1l7.6-7C24.4,12,25,12.4,25.6,12.9L25.6,12.9z M29.2,5.5c-0.4,0.4-1.1,0.4-1.5,0
	c-0.4-0.4-0.4-1.1,0-1.6c0.1-0.1,0.5-0.3,0.8-0.3l1.4-0.3C29.6,4.4,29.4,5.4,29.2,5.5L29.2,5.5z"/>
</svg>
