<svg version="1.1" xmlns="http://www.w3.org/2000/svg" xmlns:xlink="http://www.w3.org/1999/xlink" viewBox="0 0 32 32">
<path id="Shape_17_"  d="M23.7,1H9.5v14.2h14.2V1L23.7,1z M21.9,13.4H11.3V2.8h10.7V13.4L21.9,13.4z M16.6,31h13.3
	V16.5H16.6V31z M2.1,31h13.3V16.5H2.1V31L2.1,31z M14.9,10.1h3.4l0.9,2.4h1.5l-3.3-8.8h-1.6l-3.3,8.8h1.5L14.9,10.1L14.9,10.1z
	 M16.1,6.5c0.2-0.6,0.4-1.1,0.5-1.6c0,0.2,0.1,0.4,0.2,0.8C16.9,6,17,6.3,17.1,6.4l0.8,2.4h-2.6L16.1,6.5L16.1,6.5z"/>
<path id="Shape_18_" fill="#FFFFFF" d="M24.2,27c-0.9,0-1.5-0.3-2-0.8c-0.5-0.6-0.7-1.4-0.7-2.4c0-1,0.2-1.8,0.7-2.4
	s1.1-0.9,1.9-0.9c0.4,0,0.7,0.1,1,0.2c0.3,0.1,0.6,0.2,0.9,0.4l0.5-1.2c-0.8-0.4-1.6-0.6-2.5-0.6c-0.9,0-1.6,0.2-2.2,0.5
	s-1.1,0.9-1.4,1.6c-0.3,0.7-0.5,1.5-0.5,2.4c0,1.4,0.3,2.6,1,3.3c0.7,0.8,1.7,1.2,3,1.2c0.9,0,1.7-0.1,2.3-0.4v-1.2
	c-0.4,0.1-0.7,0.2-1.1,0.3C24.9,27,24.5,27,24.2,27L24.2,27z"/>
<path id="Shape_19_" fill="#FFFFFF" d="M11.4,24.1c-0.3-0.3-0.7-0.6-1.4-0.7v-0.1c0.5-0.1,0.9-0.3,1.1-0.6c0.3-0.3,0.4-0.8,0.4-1.3
	c0-0.8-0.3-1.3-0.8-1.7c-0.5-0.4-1.4-0.5-2.6-0.5H5.5V28h3.2c1,0,1.7-0.2,2.3-0.7c0.5-0.4,0.8-1.1,0.8-1.8
	C11.8,24.9,11.7,24.5,11.4,24.1L11.4,24.1z M7,20.5L7,20.5h1.2c0.6,0,1.1,0.1,1.4,0.3c0.3,0.2,0.4,0.5,0.4,0.9c0,0.5-0.1,0.8-0.4,1
	c-0.3,0.2-0.7,0.3-1.3,0.3H7V20.5L7,20.5z M9.8,26.5c-0.3,0.2-0.8,0.3-1.4,0.3H7V24h1.4c0.6,0,1.1,0.1,1.4,0.3
	c0.3,0.2,0.5,0.6,0.5,1C10.3,25.9,10.1,26.2,9.8,26.5L9.8,26.5z"/>
</svg>
