<svg version="1.1" xmlns="http://www.w3.org/2000/svg" xmlns:xlink="http://www.w3.org/1999/xlink" viewBox="0 0 32 32">
<path id="Shape_23_"  d="M27.2,7.6l-0.9-1.7c-1-0.3-2-0.5-2.8-0.6c-0.9-0.1-1.7-0.2-2.4-0.2c-1.4,0-2.5,0.2-3.3,0.5
	C17,6,16.4,6.6,16,7.4c-0.4-0.8-1.1-1.4-1.8-1.8c-0.8-0.4-1.8-0.5-3.2-0.5c-0.8,0-1.6,0.1-2.5,0.2C7.5,5.4,6.6,5.6,5.6,5.9L4.6,7.7
	L1,7.8v19.1l12.6-0.8c0.5,0.2,0.9,0.4,1.4,0.5c0.4,0.1,0.8,0.2,1.2,0.2c0.4,0,0.7-0.1,1.1-0.2c0.4-0.1,0.8-0.3,1.2-0.5L31,26.9V7.7
	L27.2,7.6L27.2,7.6z M26,7.8l1.2,2.3v12.7L26,20.5V7.8L26,7.8z M17.2,9.8c0-1.1,0.3-1.9,0.8-2.3c0.7-0.6,1.6-0.9,2.9-0.9
	c0.5,0,1.1,0,1.7,0.1C23.3,6.8,24,7,24.7,7.1v12.2c-0.6-0.2-1.3-0.3-1.9-0.4c-0.6-0.1-1.3-0.1-1.9-0.1c-0.9,0-1.7,0.1-2.2,0.3
	c-0.5,0.2-1,0.6-1.5,1.1L17.2,9.8L17.2,9.8z M20.8,20.3c0.7,0,1.5,0.1,2.3,0.2c0.8,0.1,1.8,0.3,2.8,0.5l1.2,2.4l-9.4-0.8
	c-0.3,0.4-0.8,0.7-1.4,0.8C16.3,21.3,17.8,20.3,20.8,20.3L20.8,20.3z M7.2,7.2c0.7-0.2,1.4-0.3,2-0.4c0.6-0.1,1.3-0.1,1.9-0.1
	c1.2,0,2.1,0.3,2.7,0.8c0.6,0.5,0.9,1.3,0.9,2.4v10.6c-0.8-0.9-2-1.4-3.8-1.4c-0.4,0-1,0-1.6,0.1c-0.6,0.1-1.3,0.2-2.1,0.4L7.2,7.2
	L7.2,7.2z M8.8,20.4c0.8-0.1,1.6-0.1,2.3-0.1c1.5,0,2.6,0.2,3.4,0.7c0.7,0.5,1.1,1.2,1.2,2.3c-0.6-0.1-1.1-0.4-1.4-0.7l-9.4,0.7
	l1.2-2.4C7.1,20.7,8,20.5,8.8,20.4L8.8,20.4z M4.8,10.1L6,7.9v12.6l-1.2,2.3V10.1L4.8,10.1z M29.1,25l-10.8-0.8
	c-0.4,0.2-0.8,0.4-1.1,0.5c-0.4,0.1-0.7,0.2-1.1,0.2c-0.4,0-0.7-0.1-1.1-0.2c-0.4-0.1-0.8-0.3-1.2-0.5L2.9,25V8.4l1.4-0.1L3.8,9.2
	v14.7l10.3-0.6c0.5,0.4,1.1,0.6,1.9,0.6c0.8,0,1.4-0.2,1.9-0.6l10.3,0.6V9.2l-0.6-1l1.6,0.1V25L29.1,25z"/>
</svg>
