<svg version="1.1" xmlns="http://www.w3.org/2000/svg" xmlns:xlink="http://www.w3.org/1999/xlink" viewBox="0 0 32 32">
<path id="Shape_20_"  d="M25.9,8.9c0,0.3-0.2,0.5-0.3,0.7C31.5,14.6,33.5,10,25.9,8.9L25.9,8.9z M25.5,9.8
	C25.5,9.8,25.5,9.8,25.5,9.8C25.5,9.7,25.5,9.7,25.5,9.8C25.5,9.8,25.5,9.8,25.5,9.8L25.5,9.8z M24.5,7.2c0,0,0,0.1,0,0.1h0
	C24.5,7.2,24.5,7.2,24.5,7.2L24.5,7.2z M25.9,8.7c0,0,0.1,0,0.1,0C26,8.7,26,8.7,25.9,8.7L25.9,8.7L25.9,8.7z M24.3,7.3
	c-1-7.7-5.2-5.9-0.7,0.3C23.9,7.4,24.1,7.3,24.3,7.3L24.3,7.3z M25.9,8.5c7.7-0.8,5.9-5.2-0.3-0.7C25.8,8.1,25.9,8.3,25.9,8.5
	L25.9,8.5z M25.6,7.7C25.6,7.7,25.6,7.7,25.6,7.7C25.6,7.7,25.6,7.7,25.6,7.7C25.6,7.7,25.6,7.7,25.6,7.7L25.6,7.7z M23.4,9.7
	C23.4,9.7,23.4,9.7,23.4,9.7C23.5,9.7,23.5,9.7,23.4,9.7C23.4,9.7,23.4,9.7,23.4,9.7L23.4,9.7z M23.1,8.7c0,0-0.1,0-0.1,0
	C23,8.7,23.1,8.7,23.1,8.7C23.1,8.7,23.1,8.7,23.1,8.7L23.1,8.7z M23.1,8.5c0-0.3,0.1-0.5,0.3-0.7C17.6,3,15.5,7.6,23.1,8.5
	L23.1,8.5z M24.7,7.3c0.3,0,0.5,0.1,0.7,0.3C30.2,1.7,25.6-0.3,24.7,7.3L24.7,7.3z M23.4,9.5c-0.1-0.2-0.2-0.4-0.3-0.7
	C15.4,9.8,17.1,14.1,23.4,9.5L23.4,9.5z M23.6,7.7C23.5,7.6,23.5,7.6,23.6,7.7C23.5,7.6,23.5,7.6,23.6,7.7
	C23.6,7.7,23.6,7.7,23.6,7.7L23.6,7.7z M24.1,8.2C24.1,8.2,24,8.2,24.1,8.2C24,8.2,24,8.3,24.1,8.2c-0.2,0.2-0.2,0.3-0.2,0.4
	c0,0,0,0,0,0.1c0,0,0,0,0,0c0,0,0,0,0,0c0,0,0,0.1,0,0.1c0,0.1,0.1,0.2,0.1,0.3c0,0,0,0,0,0.1c0,0,0,0,0,0c0,0,0,0,0.1,0
	c0.1,0.1,0.2,0.1,0.3,0.1c0,0,0.1,0,0.1,0c0,0,0,0,0,0c0,0,0,0,0,0c0,0,0,0,0.1,0c0.1,0,0.2-0.1,0.3-0.1c0,0,0,0,0.1,0c0,0,0,0,0,0
	c0,0,0,0,0-0.1c0.1-0.1,0.1-0.2,0.1-0.3c0,0,0-0.1,0-0.1c0,0,0,0,0,0c0,0,0,0,0,0c0,0,0,0,0-0.1c0-0.1-0.1-0.2-0.1-0.3
	c0,0,0,0,0-0.1c0,0,0,0,0,0c0,0,0,0-0.1-0.1c-0.1-0.1-0.2-0.1-0.3-0.1c0,0,0,0-0.1,0c0,0,0,0,0,0c0,0,0,0,0,0c0,0-0.1,0-0.1,0
	C24.3,8.1,24.2,8.1,24.1,8.2C24.1,8.2,24.1,8.2,24.1,8.2L24.1,8.2z M29.5,24.4h-4.2c0,0,0.1-0.2,0-1.8V13c1.4,4.1,3.9,2.2,0.1-3.2
	c0,0,0,0-0.1,0c-0.2,0.1-0.4,0.2-0.6,0.3c0,0-0.1,0.1-0.1,0.1h0l0,0c-0.1,0-0.1,0-0.2,0c-0.2,0-0.4-0.1-0.5-0.2
	c-0.1,0-0.1-0.1-0.2-0.1c-4.3,5.1-1.3,7.3,0.2,2.7v11.9h-1.4H9.7v-3.2c0.2,0.2,0.4,0.4,0.7,0.6c1,0.6,4.2-0.4,4.4-4.2
	c-1.5,1-2.7,0.3-3.6,0.4c-0.6,0.1-1.1,0.4-1.5,1.1v-2.7c0.9-0.7,1.4-2.5,0.1-5.5c3.3,7.8,9,2.3,1.2-1.2c7.8,3.4,7.8-5.2,0-1.8
	c7.8-3.3,2.1-9-1.2-1.2c3.3-7.8-5.3-7.8-1.8,0C4.5-1.2-0.9,4.5,6.8,7.8c-7.8-3.3-7.8,5.3,0,1.8c-7.8,3.4-2.3,8.9,1.2,1.2
	c-1.4,3.2-0.8,5.1,0.2,5.7v1.7C8,18.1,7.8,18,7.5,18c-0.9-0.1-2.1,0.5-3.6-0.4c0.1,3.6,3.1,4.7,4.2,4.3v2.6H4
	c-0.8,0-1.5,0.7-1.5,1.5l3.8,3.8c0,0.8,0.7,1.5,1.5,1.5h17.7c0.8,0,1.5-0.7,1.5-1.5l3.8-3.8C31,25.1,30.3,24.4,29.5,24.4L29.5,24.4z
	 M8.9,9.7c-0.6,0-1-0.5-1-1c0-0.6,0.5-1,1-1c0.6,0,1,0.5,1,1C10,9.3,9.5,9.7,8.9,9.7L8.9,9.7z"/>
<path id="Shape_21_"  d="M29.2,18.2c-1-0.6-2.2,0.2-2.2,0.2l0-0.2c-1.1,0.5-1.2,1.1-1.2,1.1l0-0.2
	c-0.6,0.4-0.3,2.1-0.3,2.1c0.7,0,1-0.3,1.5-0.8c-0.3,0.7-0.8,1.1-1.4,1c0,0,1.3,0.8,1.8,0.2l-0.1-0.1c0,0,0.6,0.1,1.3-1l-0.2-0.1
	C28.4,20.4,29.5,19.5,29.2,18.2L29.2,18.2z"/>
<path id="Shape_22_"  d="M24.1,21.2c0,0,0.3-1.6-0.3-2.1l0,0.2c0,0-0.1-0.7-1.2-1.1l0,0.2c0,0-1.2-0.8-2.2-0.2
	c-0.2,1.2,0.8,2.2,0.8,2.2L21,20.6c0.7,1.1,1.3,1,1.3,1l-0.1,0.1c0.5,0.6,1.8-0.2,1.8-0.2c-0.6,0-1.1-0.3-1.4-1
	C23,20.9,23.4,21.2,24.1,21.2L24.1,21.2z"/>
</svg>
