<svg version="1.1" xmlns="http://www.w3.org/2000/svg" xmlns:xlink="http://www.w3.org/1999/xlink" viewBox="0 0 32 32">
<path id="Fill-2_10_"  d="M22.1,21l-0.2,0L20,20.4c-0.4-0.1-0.7-0.6-0.6-1l0.6-1.1c-0.2,0-0.5,0-0.7-0.1
	c-1.5-0.4-2.3-1.9-1.9-3.4c0.4-1.3,1.8-2.2,3.2-1.9c-0.1-0.4,0-0.8,0.1-1.2c0.4-1.4,2-2.3,3.5-1.9c0.7,0.2,1.3,0.7,1.7,1.3
	c0.4,0.6,0.4,1.4,0.2,2.1c-0.1,0.4-0.3,0.7-0.6,1c1.3,0.5,2.1,1.9,1.7,3.3c-0.3,1.2-1.4,2-2.7,2c-0.3,0-0.5,0-0.8-0.1
	c-0.2-0.1-0.4-0.2-0.7-0.3l-0.1,1.1C22.8,20.8,22.5,21,22.1,21L22.1,21z M20.5,19.6L22,20l0.3-3l0.8,1c0.2,0.3,0.6,0.5,0.9,0.6
	c0.9,0.3,2-0.3,2.2-1.2c0.3-0.9-0.3-1.9-1.2-2.2c-0.1,0-0.4-0.1-0.6-0.3l-0.1-0.1l0-0.3c0-0.1,0.1-0.3,0.3-0.5
	c0.3-0.2,0.5-0.5,0.6-0.9c0.1-0.5,0.1-0.9-0.2-1.3c-0.2-0.4-0.6-0.7-1.1-0.8c-0.9-0.3-2,0.3-2.2,1.2c-0.1,0.3-0.1,0.6,0,0.9
	c0.1,0.5-0.1,0.8-0.2,0.9c0,0-0.4,0.2-0.9,0.1c-0.9-0.3-2,0.3-2.2,1.2C18,16,18.6,17,19.5,17.3c0.4,0.1,0.8,0.1,1.1,0l1.2-0.4
	L20.5,19.6L20.5,19.6z"/>
<path id="Fill-3_12_"  d="M12.2,21c-0.1,0-0.2,0-0.3-0.1c-0.2-0.1-0.3-0.3-0.4-0.5l-0.2-1.2c-0.2,0.1-0.4,0.2-0.6,0.3
	c-1.3,0.5-2.8-0.3-3.3-1.7C7,16.5,7.6,15,8.8,14.4c-0.3-0.3-0.4-0.6-0.6-1C8,12.7,8,12,8.3,11.3s0.8-1.2,1.5-1.4
	c0.7-0.2,1.3-0.2,2,0.1c0.6,0.3,1.1,0.9,1.3,1.6c0.1,0.4,0.2,0.8,0.1,1.2c1.1-0.3,2.2,0.2,2.8,1.2l-0.8,0.5c-0.4-0.7-1.2-1-1.9-0.7
	c-0.1,0-0.4,0.1-0.6,0.1l-0.2,0l-0.2-0.2c-0.1-0.1-0.1-0.3-0.1-0.6c0.1-0.3,0.1-0.7,0-1c-0.1-0.4-0.4-0.8-0.8-1
	c-0.4-0.2-0.8-0.2-1.3-0.1c-0.4,0.2-0.8,0.5-1,0.9c-0.2,0.4-0.2,0.9-0.1,1.4c0.1,0.3,0.3,0.6,0.5,0.8c0.4,0.3,0.4,0.6,0.3,0.8
	c0,0-0.1,0.4-0.6,0.6c-0.9,0.3-1.3,1.3-1,2.3c0.3,0.9,1.2,1.4,2.1,1.1c0.3-0.1,0.6-0.4,0.8-0.7l0.7-1l0.4,3l1.4-0.5l-1.4-2.7
	l1.1,0.4c0.3,0.1,0.7,0.1,1,0c0.1,0,0.2-0.1,0.2-0.1l0.4,0.9c-0.1,0.1-0.2,0.1-0.4,0.2c-0.2,0.1-0.4,0.1-0.6,0.1l0.5,1
	c0.1,0.3,0.1,0.5,0,0.7c-0.1,0.2-0.2,0.3-0.4,0.4L12.4,21C12.3,21,12.2,21,12.2,21"/>
<path id="Fill-4_13_"  d="M23.9,27.3c-0.2,0-0.4,0-0.6-0.1L14,24.8c-0.6-0.2-1.1-0.5-1.4-1.1
	c-0.3-0.5-0.4-1.1-0.2-1.7l4.8-16.8C17.4,4,18.8,3.3,20,3.6L29.3,6c0.6,0.2,1.1,0.5,1.4,1.1c0.3,0.5,0.4,1.1,0.2,1.7l-4.8,16.8
	C25.9,26.6,24.9,27.3,23.9,27.3L23.9,27.3z M19.4,4.4c-0.6,0-1.2,0.4-1.3,1l-4.8,16.8c-0.1,0.3,0,0.7,0.1,1c0.2,0.3,0.5,0.5,0.8,0.6
	l9.3,2.4c0.7,0.2,1.5-0.2,1.7-0.9L30,8.5c0.1-0.3,0-0.7-0.1-1C29.7,7.2,29.4,7,29,6.9l-9.3-2.4C19.6,4.4,19.5,4.4,19.4,4.4L19.4,4.4
	z"/>
<path id="Fill-5_12_"  d="M10.4,28.5c-0.9,0-1.8-0.5-2.2-1.4l-7-16.7c-0.2-0.6-0.2-1.2,0-1.8c0.2-0.6,0.7-1,1.3-1.3
	l8.9-3.7c1.2-0.5,2.6,0.1,3.1,1.3L16,8.7L15.1,9l-1.6-3.7c-0.3-0.7-1.1-1-1.8-0.7L2.8,8.2C2.5,8.4,2.2,8.6,2.1,9
	c-0.1,0.3-0.1,0.7,0,1.1l7,16.7c0.3,0.7,1.1,1,1.8,0.7l3.3-1.4l0.4,0.9l-3.3,1.4C11,28.4,10.7,28.5,10.4,28.5"/>
</svg>
