<svg version="1.1" xmlns="http://www.w3.org/2000/svg" xmlns:xlink="http://www.w3.org/1999/xlink" viewBox="0 0 32 32">
<path id="Shape_37_"  d="M29.5,25.3c-0.5,0.4-1.1,0.7-1.9,1.1c-1-1.5-1.9-3.2-2.6-4.9c-0.5-1.3-1-2.8-0.8-4.2
	c0.1-0.8,0.6-1.9,1.7-1.7c0.4,0.1,0.7,0.4,1.1,0.6c0.5,0.3,1.1,0.4,1.8,0.4c1.2-2.9,0.1-6.2-1.7-7.9l-0.5-2.1c-1.4,0-3,0.3-4.1,1.3
	c-0.3,0.3-0.5,0.6-0.7,1h-2.4c-0.1,0-0.3-0.1-0.3-0.2c0,0-0.2-0.6-0.7-0.6h-1.7c-0.7,0-1.1,0.3-1.2,1l-1.5,5.4
	c-0.4,0-0.8,0.1-1.3,0.2c0,0.2-0.1,0.4-0.1,0.6c0,1.6,1.5,3,3.3,3c1.6,0,2.9-1,3.2-2.3c0.1,0,0.1-0.1,0.2-0.1c0,0,0.4-0.4,0.9-0.9
	c0,0.1,0,0.2,0,0.3c0,2.2-1.9,4-4.3,4c-2.4,0-4.3-1.8-4.3-4c0-0.2,0-0.3,0-0.5C7.8,13,4.6,16,4.4,16.2l1.9,2
	c1.5-1.6,3.2-1.9,3.3-1.9c-3,2.8-4.9,7.9-5.5,9.9c-0.7-0.3-1.2-0.6-1.6-1L1,27.2c1.5,1.2,3.5,1.9,5.4,2.4c2.6,0.7,5.2,1,7.9,1.1
	c2.8,0.1,5.7,0,8.5-0.5c2.2-0.4,4.5-0.9,6.5-1.9c0.6-0.3,1.2-0.7,1.8-1.1L29.5,25.3L29.5,25.3z M19.4,13.1c0.3,0.4,0.5,0.9,0.6,1.4
	c-0.4,0.3-0.7,0.7-1,0.9c0-0.1,0-0.2,0-0.2c0-0.6-0.2-1.1-0.5-1.5c-0.1,0-0.2,0.1-0.3,0.1l0.7-2.6c0-0.1,0.1-0.2,0.3-0.2h1.5
	C20.4,11.7,20,12.5,19.4,13.1L19.4,13.1z M15.5,28.3c-3,0-6-0.3-8.9-1.2c2-3.1,5.4-5.5,9.3-5.2c3.6,0.2,6.7,2.5,8.7,5.3
	c0,0,0.1,0.1,0.1,0.1C21.6,28.1,18.5,28.4,15.5,28.3L15.5,28.3z M17.5,7.3c1.6,0,2.8-1.3,2.8-3s-1.3-3-2.8-3s-2.8,1.3-2.8,3
	S16,7.3,17.5,7.3L17.5,7.3z"/>
</svg>
