<svg version="1.1" xmlns="http://www.w3.org/2000/svg" xmlns:xlink="http://www.w3.org/1999/xlink" viewBox="0 0 32 32">
<path id="Fill-2_18_"  d="M14.7,5.8c-1.3,0-2.4-1.1-2.4-2.4S13.3,1,14.7,1s2.4,1.1,2.4,2.4C17.1,4.7,16,5.8,14.7,5.8
	L14.7,5.8z M14.7,1.8c-0.9,0-1.6,0.7-1.6,1.6S13.8,5,14.7,5s1.6-0.7,1.6-1.6S15.5,1.8,14.7,1.8L14.7,1.8z"/>
<path id="Fill-3_21_"  d="M13.3,31c0,0-0.1,0-0.1,0c-0.2-0.1-0.3-0.2-0.3-0.4c0-7.7,0.1-19.1,0-20.5
	C12.1,9.6,6.5,8.4,2.3,9.8c-0.2,0.1-0.4,0-0.5-0.3C1.7,9.3,1.8,9.1,2,9c0,0,0,0,0,0c0,0,0,0,0,0c0.1-0.1,3.4-2.4,9.1-1.9
	c5.4,0.4,11.2-0.3,13-1.1c0.2-0.1,0.4,0,0.5,0.2c0.1,0.2,0.1,0.4-0.1,0.5c-0.1,0.1-3.1,2.9-7.6,2.6v4.6c1.2,0,4.8,0.1,7.2,0.9
	c2.9,1,5.6,2.4,5.7,2.4c0.2,0.1,0.3,0.3,0.2,0.5c-0.1,0.2-0.3,0.3-0.5,0.3c-0.1,0-7.3-1.6-13.7-1.2c-0.1,2-0.5,11.4-2.4,14.1
	C13.6,30.9,13.5,31,13.3,31L13.3,31z M7,8.3c3,0,5.7,0.6,6.4,1.1c0.1,0,0.3,0.2,0.3,0.4c0.1,0.4,0,13.2,0,18.8
	c1.3-4.1,1.5-12.2,1.5-12.3c0-0.2,0.2-0.4,0.4-0.4c3.9-0.3,8.3,0.2,11.2,0.7c-0.8-0.4-1.8-0.7-2.7-1c-2.8-0.9-7.3-0.9-7.4-0.9
	c-0.1,0-0.2,0-0.3-0.1c-0.1-0.1-0.1-0.2-0.1-0.3V8.8c0-0.1,0-0.2,0.1-0.3c0.1-0.1,0.2-0.1,0.3-0.1c2.2,0.2,4-0.4,5.4-1
	c-2.7,0.5-6.9,0.8-11,0.5C9,7.7,7.1,8,5.7,8.4C6.1,8.3,6.6,8.3,7,8.3L7,8.3z"/>
</svg>
