<svg version="1.1" xmlns="http://www.w3.org/2000/svg" xmlns:xlink="http://www.w3.org/1999/xlink" viewBox="0 0 32 32">
<g id="Shape_16_">
	<path  d="M21.5,31.5h-2.3v-0.6h-6.4v0.6h-2.3v-0.6l-1.6,0c-1.8-0.2-3.1-1.6-3.1-3.4V8.6c0-1.8,1.3-3.2,3.1-3.4
		l0.5-0.1l0,0h1.3V1.7c0-0.7,0.6-1.2,1.2-1.2h8.3c0.7,0,1.2,0.6,1.2,1.2v3.4l1.8,0c1.8,0.2,3.1,1.6,3.1,3.4v18.9
		c0,1.8-1.3,3.2-3.1,3.4l-0.5,0l0,0h-1.1V31.5z M20.2,30.5h0.3v-0.6H21V6.2h-0.6V1.7c0-0.1-0.1-0.2-0.2-0.2h-8.3
		c-0.1,0-0.2,0.1-0.2,0.2v4.4H11v23.7h0.5v0.6h0.3v-0.6h8.4V30.5z M23.6,6.3v23.5c1-0.3,1.7-1.2,1.7-2.3V8.6
		C25.3,7.5,24.6,6.6,23.6,6.3z M8.4,6.3c-1,0.3-1.7,1.2-1.7,2.3v18.9c0,1.1,0.7,2,1.7,2.3V6.3z M19.9,6.2h-7.8V2h7.8V6.2z M13.1,5.2
		h5.8V3h-5.8V5.2z"/>
</g>
</svg>
