<svg version="1.1" xmlns="http://www.w3.org/2000/svg" xmlns:xlink="http://www.w3.org/1999/xlink" viewBox="0 0 32 32">
<ellipse id="Oval_6_"  cx="16" cy="4.3" rx="1.1" ry="3.3"/>
<path id="Shape_45_"  d="M24.8,27.7c-0.2-1.5-2.9-1.6-5.5-1.8v-6.7c0,0,0-0.1,0-0.1l0,0c1.8-0.9,4.2-2.5,4.3-6
	c0-2.6-2.2-4.5-4-6c-0.5-0.4-1.5-1.3-1.6-1.6c-0.1-0.7-0.6-1.3-1.4-1.3c-0.2,0-0.5,0.1-0.7,0.2c-0.2-0.1-0.4-0.2-0.7-0.2
	c-0.7,0-1.3,0.6-1.4,1.3c-0.2,0.3-1.1,1.1-1.6,1.6c-1.8,1.5-4,3.4-3.9,6c0.1,3.6,2,4.8,4,5.8l0.3,0.1c0,0.1,0,0.2,0,0.3v6.7
	c-2.6,0.2-5.2,0.3-5.4,1.8c-0.1,0.6,0.1,1.2,0.5,1.7C8.9,30.8,13.2,31,15,31h0c0.4,0,0.7-0.1,1-0.4c0.3,0.2,0.6,0.4,1,0.4h0
	c1.8,0,6.1-0.2,7.2-1.6C24.7,28.9,24.8,28.3,24.8,27.7L24.8,27.7z M17.7,16.7c0,0-0.6-0.2-1-0.3L16,17.2l-0.8-0.8c0,0,0,0,0,0
	c-0.3,0.1-0.6,0.2-0.9,0.3c-2.2-1-3.1-1.5-3.2-3.7c0-1.3,1.6-2.7,3-3.9C14.8,8.5,15.5,8,16,7.3c0.5,0.6,1.2,1.2,1.9,1.8
	c1.3,1.1,3,2.6,3,3.9c0,2.1-0.9,2.6-3,3.6L17.7,16.7L17.7,16.7z M16,9.5c-1.8,0-3.3,1.5-3.3,3.3c0,1.8,1.5,3.3,3.3,3.3
	c1.8,0,3.3-1.5,3.3-3.3S17.8,9.5,16,9.5L16,9.5z"/>
</svg>
