<svg version="1.1" xmlns="http://www.w3.org/2000/svg" xmlns:xlink="http://www.w3.org/1999/xlink" viewBox="0 0 32 32">
<path id="Fill-2_19_"  d="M14.5,27.1c-6.9,0-12.5-5.6-12.5-12.5c0-0.7,0.1-1.5,0.2-2.2c0-0.2,0.2-0.4,0.4-0.4h23.6
	c0.2,0,0.4,0.2,0.4,0.4c0.1,0.7,0.2,1.5,0.2,2.2C27,21.5,21.4,27.1,14.5,27.1L14.5,27.1z M3.1,13C3,13.5,3,14.1,3,14.7
	C3,21,8.2,26.2,14.5,26.2c6.4,0,11.6-5.2,11.6-11.6c0-0.6,0-1.1-0.1-1.7H3.1L3.1,13z"/>
<path id="Fill-3_22_"  d="M23.7,23.8c-0.5,0-0.8-0.1-0.8-0.1c-0.2-0.1-0.4-0.3-0.3-0.5c0.1-0.2,0.3-0.4,0.5-0.3
	c0,0,1.9,0.4,4.7-1.1c1.7-0.9,2.5-2.7,2.3-4c-0.1-0.5-0.3-1.5-1.5-1.9c-0.2-0.1-0.8-0.2-1.7,0.1c-0.2,0.1-0.5,0-0.6-0.3
	c-0.1-0.2,0-0.5,0.3-0.6c1.2-0.4,1.9-0.2,2.2-0.1c1.3,0.4,2.1,1.3,2.2,2.6c0.2,1.9-0.9,3.9-2.8,4.9C26.2,23.6,24.6,23.8,23.7,23.8"
	/>
<path id="Fill-4_22_"  d="M18.9,11.7c-0.1,0-0.2,0-0.3-0.1c-0.2-0.2-0.2-0.4,0-0.6c0,0,1-1.1,0.9-2.2
	c-0.1-0.6-0.5-1.2-1.2-1.7c-1.1-0.7-1.7-1.6-1.8-2.5c-0.2-1.3,0.6-2.3,0.7-2.3c0.2-0.2,0.4-0.2,0.6-0.1c0.2,0.2,0.2,0.4,0.1,0.6
	c0,0-0.6,0.7-0.5,1.6c0.1,0.7,0.6,1.3,1.4,1.9c1,0.6,1.5,1.4,1.6,2.3c0.2,1.6-1.1,2.9-1.1,2.9C19.1,11.7,19,11.7,18.9,11.7"/>
<path id="Fill-5_20_"  d="M14.3,11.7c-0.1,0-0.2,0-0.3-0.1c-0.2-0.2-0.2-0.4,0-0.6c0,0,1-1.1,0.9-2.2
	c-0.1-0.6-0.5-1.2-1.2-1.7c-1.1-0.7-1.7-1.6-1.8-2.5c-0.2-1.3,0.6-2.3,0.7-2.3c0.2-0.2,0.4-0.2,0.6-0.1c0.2,0.2,0.2,0.4,0.1,0.6
	c0,0-0.6,0.7-0.5,1.6c0.1,0.7,0.6,1.3,1.4,1.9c1,0.6,1.5,1.4,1.6,2.3c0.2,1.6-1.1,2.9-1.1,2.9C14.5,11.7,14.4,11.7,14.3,11.7"/>
<path id="Fill-6_14_"  d="M9.6,11.7c-0.1,0-0.2,0-0.3-0.1c-0.2-0.2-0.2-0.4,0-0.6c0,0,1-1.1,0.9-2.2
	C10.1,8.1,9.7,7.6,9,7.1C7.9,6.4,7.3,5.5,7.2,4.6C7,3.3,7.8,2.3,7.8,2.3C8,2.1,8.3,2.1,8.5,2.2c0.2,0.2,0.2,0.4,0.1,0.6
	c0,0-0.6,0.7-0.5,1.6c0.1,0.7,0.6,1.3,1.4,1.9c1,0.6,1.5,1.4,1.6,2.3c0.2,1.6-1.1,2.9-1.1,2.9C9.9,11.7,9.8,11.7,9.6,11.7"/>
<path id="Fill-7_10_"  d="M27.6,28.4H1.4c-0.2,0-0.4-0.2-0.4-0.4c0-0.2,0.2-0.4,0.4-0.4h26.2c0.2,0,0.4,0.2,0.4,0.4
	C28.1,28.2,27.9,28.4,27.6,28.4"/>
<path id="Fill-8_8_"  d="M22.3,29.9H6.8c-0.2,0-0.4-0.2-0.4-0.4c0-0.2,0.2-0.4,0.4-0.4h15.5c0.2,0,0.4,0.2,0.4,0.4
	C22.7,29.7,22.5,29.9,22.3,29.9"/>
</svg>
