<svg version="1.1" xmlns="http://www.w3.org/2000/svg" xmlns:xlink="http://www.w3.org/1999/xlink" viewBox="0 0 32 32">
<g>
	<path  d="M26.4,14.9h-1.9l0.1-0.6c0.1-0.7,0.2-1.3,0.2-2c0-0.2,0-0.3,0-0.5l0-0.5h1.6c1,0,1.8,0.8,1.8,1.8
		C28.3,14.1,27.4,14.9,26.4,14.9z M25.7,13.9h0.7c0.5,0,0.8-0.4,0.8-0.8c0-0.5-0.4-0.8-0.8-0.8h-0.6c0,0,0,0,0,0
		C25.9,12.8,25.8,13.4,25.7,13.9z"/>
</g>
<g>
	<path  d="M14.5,23h-0.1c-1,0-2-0.2-3-0.5c-0.7-0.2-1.3-0.5-2-0.8c-3.5-1.9-5.6-5.5-5.6-9.5c0-0.5,0-1,0.1-1.5
		C4,10,4.6,9.4,5.4,9.4l18.1,0c0.8,0,1.4,0.6,1.5,1.3c0,0.3,0.1,0.7,0.1,1c0,0.2,0,0.4,0,0.6c0,0.7-0.1,1.5-0.2,2.2
		c-0.7,3-2.6,5.7-5.3,7.2c-0.6,0.3-1.3,0.6-1.9,0.8C16.7,22.8,15.6,23,14.5,23z M5.4,10.4c-0.3,0-0.5,0.2-0.6,0.5
		c-0.1,0.4-0.1,0.9-0.1,1.4c0,3.6,1.9,6.9,5.1,8.6c0.6,0.3,1.2,0.6,1.8,0.7c0.9,0.3,1.8,0.4,2.7,0.4h0.1c1,0,2-0.1,2.9-0.4
		c0.6-0.2,1.2-0.4,1.8-0.8c2.5-1.4,4.2-3.7,4.8-6.5c0.1-0.7,0.2-1.4,0.2-2c0-0.2,0-0.3,0-0.5c0-0.3,0-0.6-0.1-0.9
		c0-0.3-0.3-0.5-0.6-0.5L5.4,10.4z"/>
</g>
<g>
	<path  d="M12.6,21l-0.3-0.1c-0.7-0.2-1.4-0.5-2-0.8c-3.1-1.6-4.9-4.5-4.9-7.7c0-0.9,0.7-1.6,1.5-1.6
		c0.8,0,1.5,0.7,1.5,1.5c0,0.1,0,0.1,0,0.2c-0.2,2.4,0.8,4.6,2.8,6.2c0.5,0.4,1,0.7,1.6,1c0.3,0.2,0.5,0.5,0.4,0.8
		C13.1,20.8,12.9,21,12.6,21z M6.9,11.8c-0.3,0-0.5,0.2-0.5,0.5c0,2.3,1,4.4,2.9,5.9c-1.4-1.6-2.1-3.7-1.9-5.7l0-0.1
		C7.4,12,7.2,11.8,6.9,11.8z"/>
</g>
<circle fill="none" stroke="#AA7E2C" cx="9.1" cy="4" r="0"/>
<g>
	<path  d="M11.1,4l-0.4,0.8l-0.1,0.1l-0.1,0.2c-0.1,0.2-0.2,0.3-0.3,0.5c-0.1,0.1-0.1,0.3-0.2,0.4
		C10,6.1,10,6.2,10,6.3l0,0.1c0,0.1-0.1,0.3-0.1,0.4c0,0.1,0,0.3,0,0.4c0,0.1,0,0.2,0,0.3l0,0.1l0,0.1l0.2,0.9c0,0-1-0.4-1.3-0.5
		C8.6,8,8.5,7.8,8.4,7.7C8.3,7.5,8.2,7.3,8.1,7.1C8,6.9,8,6.6,7.9,6.3c0-0.3,0-0.6,0-0.8c0-0.3,0.1-0.5,0.2-0.8
		c0.1-0.3,0.2-0.5,0.4-0.8l0.2-0.3c0,0,0-0.1,0.1-0.1l0.1-0.1C9,3.2,9.1,3.1,9.2,2.9l0,0c0.1-0.2,0.2-0.5,0.2-0.6c0-0.1,0-0.2,0-0.3
		c0-0.1,0-0.2-0.1-0.2L9.3,1.5L8.9,0.7l1.1,0.1c0.1,0,0.1,0.1,0.2,0.1c0.2,0.1,0.3,0.2,0.4,0.3c0.2,0.2,0.3,0.4,0.4,0.6
		c0.1,0.3,0.2,0.5,0.2,0.8c0,0.3,0,0.6-0.1,0.9c0,0.1,0,0.2-0.1,0.2L11.1,4z M9.9,4.3l0.3-0.7c0,0,0-0.1,0-0.1
		c0-0.2,0.1-0.4,0.1-0.6c0,0,0,0,0,0c-0.1,0.2-0.1,0.4-0.2,0.6L10,3.5c0,0.1-0.1,0.3-0.2,0.4L9.5,4.3L9.4,4.4C9.3,4.6,9.2,4.8,9.1,5
		C9,5.2,9,5.4,9,5.6c0,0.2,0,0.4,0,0.6c0,0,0,0,0,0.1c0,0,0-0.1,0-0.1l0-0.1c0-0.1,0.1-0.3,0.2-0.4c0.1-0.2,0.1-0.3,0.2-0.5
		c0.1-0.2,0.2-0.4,0.3-0.5L9.9,4.3L9.9,4.3z"/>
</g>
<path id="Shape_53_"  d="M24.3,29.8l-4.6-8c-0.3,0.2-0.7,0.3-1,0.5c-0.3,0.1-0.6,0.2-0.8,0.3l2.5,4.3l1.1,2l1.1,1.9
	c0.2,0.3,0.5,0.5,0.9,0.5c0.2,0,0.3,0,0.5-0.1C24.4,30.9,24.6,30.3,24.3,29.8L24.3,29.8z"/>
<path id="Shape_54_"  d="M11,22.7c-0.3-0.1-0.7-0.3-1-0.5l-4.4,7.5c-0.3,0.5-0.1,1,0.4,1.3c0.2,0.1,0.3,0.1,0.5,0.1
	c0.3,0,0.7-0.2,0.8-0.5l1-1.8L9.4,27l2.4-4C11.5,22.9,11.2,22.8,11,22.7L11,22.7z"/>
<path id="Shape_55_"  d="M24.5,24.8H5.4c-0.7,0-1.3,0.6-1.3,1.3c0,0.7,0.6,1.3,1.3,1.3h19.1c0.7,0,1.3-0.6,1.3-1.3
	C25.8,25.4,25.2,24.8,24.5,24.8L24.5,24.8z"/>
<path id="Shape_56_"  d="M14.2,4L14.2,4C14.2,4,14.2,4,14.2,4L14.2,4L14.2,4z M15.7,2.1c-0.1-0.2-0.2-0.3-0.3-0.5
	c-0.1-0.1-0.2-0.2-0.3-0.3c0,0-0.1-0.1-0.1-0.1c0,0-0.1,0-0.1,0c-0.1,0-0.1,0-0.1,0s0,0,0,0.1c0,0,0,0.1,0,0.1c0,0,0,0,0,0.1
	c0,0,0,0,0,0.1c0,0.1,0.1,0.2,0.1,0.3c0,0.1,0,0.3,0,0.4c0,0.3-0.1,0.6-0.3,0.9c0,0,0,0,0,0c-0.1,0.2-0.2,0.3-0.3,0.5l0,0l0,0l0,0.1
	c0,0,0,0,0,0.1l0,0l0,0l0,0l0,0l0,0.1l0,0l0,0l0,0l0,0l-0.1,0.2c-0.1,0.2-0.3,0.4-0.3,0.7c-0.1,0.2-0.2,0.5-0.2,0.7
	c0,0.2,0,0.5,0,0.7c0,0.2,0.1,0.4,0.2,0.6c0.1,0.2,0.2,0.3,0.3,0.5c0.1,0.1,0.2,0.2,0.3,0.3c0,0,0,0,0.1,0c0,0,0,0,0.1,0
	c0,0,0,0,0,0c0,0,0,0,0,0c0.1,0,0.1,0,0.1,0s0,0,0-0.1c0,0,0-0.1,0-0.1c0,0,0-0.1,0-0.1c0-0.1,0-0.2,0-0.3s0-0.3,0-0.4
	c0-0.1,0-0.3,0.1-0.5c0,0,0-0.1,0-0.1c0-0.1,0.1-0.2,0.1-0.4c0.1-0.2,0.1-0.3,0.2-0.5C15,5.2,15.1,5,15.2,4.9l0.1-0.1l0,0l0,0l0-0.1
	l0,0l0,0l0,0l0,0c0,0,0-0.1,0-0.1c0,0,0-0.1,0-0.1l0,0c0,0,0,0,0,0c0-0.1,0.1-0.1,0.1-0.2c0-0.1,0-0.1,0.1-0.2c0,0,0-0.1,0-0.1
	c0,0,0-0.1,0-0.1c0-0.1,0-0.1,0-0.2c0.1-0.2,0.1-0.5,0.1-0.7C15.9,2.6,15.8,2.3,15.7,2.1L15.7,2.1z"/>
<path id="Shape_57_"  d="M19.3,4L19.3,4C19.3,4,19.3,4,19.3,4L19.3,4L19.3,4z M20.8,2.1c-0.1-0.2-0.2-0.3-0.3-0.5
	c-0.1-0.1-0.2-0.2-0.3-0.3c0,0-0.1-0.1-0.1-0.1c0,0-0.1,0-0.1,0c-0.1,0-0.1,0-0.1,0s0,0,0,0.1c0,0,0,0.1,0,0.1c0,0,0,0,0,0.1
	c0,0,0,0,0,0.1c0,0.1,0.1,0.2,0.1,0.3c0,0.1,0,0.3,0,0.4c0,0.3-0.1,0.6-0.3,0.9c0,0,0,0,0,0c-0.1,0.2-0.2,0.3-0.3,0.5l0,0l0,0l0,0.1
	c0,0,0,0,0,0.1l0,0l0,0l0,0l0,0l0,0.1l0,0l0,0l0,0l0,0l-0.1,0.2c-0.1,0.2-0.3,0.4-0.3,0.7c-0.1,0.2-0.2,0.5-0.2,0.7
	c0,0.2,0,0.5,0,0.7c0,0.2,0.1,0.4,0.2,0.6c0.1,0.2,0.2,0.3,0.3,0.5c0.1,0.1,0.2,0.2,0.3,0.3c0,0,0,0,0.1,0c0,0,0,0,0.1,0
	c0,0,0,0,0,0c0,0,0,0,0,0c0.1,0,0.1,0,0.1,0s0,0,0-0.1c0,0,0-0.1,0-0.1c0,0,0-0.1,0-0.1c0-0.1,0-0.2,0-0.3s0-0.3,0-0.4
	c0-0.1,0-0.3,0.1-0.5c0,0,0-0.1,0-0.1c0-0.1,0.1-0.2,0.1-0.4c0.1-0.2,0.1-0.3,0.2-0.5c0.1-0.2,0.2-0.3,0.3-0.5l0.1-0.1l0,0l0,0
	l0-0.1l0,0l0,0l0,0l0,0c0,0,0-0.1,0-0.1c0,0,0-0.1,0-0.1l0,0c0,0,0,0,0,0c0-0.1,0.1-0.1,0.1-0.2c0-0.1,0-0.1,0.1-0.2
	c0,0,0-0.1,0-0.1c0,0,0-0.1,0-0.1c0-0.1,0-0.1,0-0.2C21,3.3,21,3,21,2.8C21,2.6,20.9,2.3,20.8,2.1L20.8,2.1z"/>
</svg>
