<svg version="1.1" xmlns="http://www.w3.org/2000/svg" xmlns:xlink="http://www.w3.org/1999/xlink" viewBox="0 0 32 32">
<path id="Shape_66_"  d="M29.3,20.6c-0.3-0.4-0.6-0.4-1-0.8c-0.4-0.4-0.5-0.8-1.2-1.1c-0.3-0.1-1,0.2-1.9,0.5
	c-0.5,0.2-1.3,0.3-1.7,0.6c-0.8,0.4-0.8,0.8-1.2,0.8c-0.2,0-0.7-0.7-1.2-1.2c-0.4-0.5-0.7-0.8-0.8-1c-0.1-0.4-0.6-2.1-0.6-2.6
	c0-0.5,0.8-1.3,1.7-1.5c0.9-0.2,1.1,0.2,1.5,0.3c0.4,0.2,1.1,0.6,1.4,0.8c0.3,0.2,0.4,1.6,0.3,1.7c-0.1,0.1-0.5,0-0.6,0.2
	c-0.1,0.1,0.2,0.1,0.2,0.1s-0.2,0.2-0.4,0.2c-0.2,0-0.3,0-0.6,0c-0.2,0-0.1,0.2,0.1,0.2c0.1,0,0.5,0.1,0.5,0.1s0,0.7,0,0.8
	c0,0.1,0.3,0,0.3,0s1.1-1,1.1-1.1c0.1-0.1,0.2-0.5,0.2-0.6c0-0.1-0.1-2-0.2-2.2c-0.1-0.2-0.4-0.4-0.7-0.7c-0.4-0.3-0.5-0.3-0.9-0.6
	c-0.4-0.3-0.7-0.6-1-0.8c-0.3-0.2-0.6-0.2-0.9-0.4c-0.2-0.2-0.5-0.3-0.4-0.6c0-0.2,0.4-0.5,0.4-0.7c0-0.2,0-0.4,0-0.5
	c0-0.1,0.2-0.2,0.2-0.5c0-0.2,0.1-0.7,0-0.9c-0.1-0.2-0.1-0.9-1.2-0.9c-1.1-0.1-1.3,0.6-1.4,0.8c-0.1,0.1-0.3,0-0.3-0.2
	c-0.1-0.2-0.3-1-0.3-1.3c0-0.2,0.5-0.8,0.5-1c0-0.2,0-0.4,0-0.5c0-0.1-0.4-0.7-0.5-0.9c-0.1-0.2-0.2,0.1-0.1,0.2
	c0.1,0.1,0,0.3,0,0.3s-0.2-0.1-0.2-0.1c-0.1,0-0.2,0.1-0.2,0.1h-0.3c-0.1,0-0.2,0.2-0.2,0.2l0.6,0.3l-0.1,0.3h-0.5
	c-0.2,0-0.2,0.3-0.1,0.3c0.1,0,0.2,0.1,0.2,0.1s-0.1,0.5-0.1,1c0.1,0.4,0.5,3.1,0.3,3.6s-1.2,1.2-1.5,1.8c-0.3,0.6,0.1,1.2,0.2,2
	c0.1,1,0.1,1.8,0,2.2c-0.2,0.8-1.8,3.2-2.6,5c-0.8,1.8-0.5,2.4-1,3.4c-0.5,1-2.7,3.6-2.8,3.7c-0.1,0.1,0.3,0.2,0.3,0.2
	s-0.2,0.2-0.9,0.3c-0.7,0.1-0.5,0.6-0.5,0.6s1.5,0,1.7,0c0.2,0,0.1-0.4,0.4-0.4c0.3,0,0.8,0.5,0.8,0.5s1.8-0.1,2.6-0.1
	c0.8,0,1.1,0.2,2.3,0.2c1.2,0,2.4-0.1,3.1-0.2c0.7-0.1,2.1,0.2,2.5,0.2c0.3,0,0.6-0.4,0.7-0.5c0.2-0.1,0.4,0,0.7,0
	c0.3-0.1,0.7-0.4,1-0.7c0.4-0.3,1.1-0.7,1.3-1c0.3-0.4,0.4-0.6,0.6-0.9c0.3-0.3,0.6-0.5,0.9-0.7c0.3-0.2,0.4-0.5,0.4-0.8
	c0-0.3,0.4-0.3,0.4-0.6c0.1-0.3-0.3-0.3-0.5-0.5c-0.1-0.2,0.9-2.4,1.1-2.8C29.5,22,29.6,21,29.3,20.6L29.3,20.6z"/>
<path id="Shape_67_"  d="M4.9,16.7v6.7c-0.2-0.1-0.4-0.2-0.7-0.2c-0.3,0-0.8,0.2-1.1,0.4c-0.3,0.3-0.6,0.6-0.6,1
	c0,0.2,0.1,0.4,0.3,0.5c0.2,0.1,0.4,0.2,0.6,0.2c0.4,0,0.8-0.2,1.1-0.4c0.3-0.3,1.3-1.1,1.3-1.5v-5.4l4.3-1.1v5.4
	c-0.2-0.1-0.1-0.2-0.4-0.2c-0.3,0-0.8,0.2-1.1,0.4c-0.3,0.3-0.6,0.6-0.6,1c0,0.2,0.1,0.4,0.3,0.6c0.2,0.1,0.4,0.2,0.6,0.2
	c0.4,0,0.8-0.2,1.1-0.4c0.3-0.3,1-0.6,1.1-0.5v-8.7L4.9,16.7L4.9,16.7L4.9,16.7z M14.7,4.5C14.3,4,13.8,3.6,13.3,3
	c-0.6-0.7-0.6-1.4-0.7-2h-0.3v8.8c-0.2-0.2-0.6-0.3-1-0.3c-0.5,0-1.1,0.2-1.5,0.6C9.4,10.5,9,10.9,9,11.4c0,0.3,0.1,0.5,0.4,0.7
	c0.2,0.2,0.5,0.3,0.9,0.3c0.5,0,1.1-0.2,1.6-0.5c0.5-0.3,0.8-0.8,0.8-1.3V4.1c0.7,0,1.4,0.5,1.9,1.1c0.4,0.5,0.6,1.1,0.7,1.7
	c0,1.1-0.5,2.1-0.8,2.7h0.2c0.4-0.7,1-1.8,1-3C15.5,5.8,15.2,5.1,14.7,4.5L14.7,4.5z"/>
</svg>
