<svg version="1.1" xmlns="http://www.w3.org/2000/svg" xmlns:xlink="http://www.w3.org/1999/xlink" viewBox="0 0 32 32">
<polygon  points="10.4,20.3 10.2,20.4 4.1,26.5 5.4,27.8 11.7,21.6 10.4,20.3 "/>
<polygon  points="20.3,10.4 21.6,11.7 21.7,11.5 27.8,5.4 26.5,4.1 20.4,10.2 20.3,10.4 "/>
<path  d="M20.3,9.1l4.9-4.9c-5.4-4.2-13-4.2-18.4,0l4.9,4.9C14.3,7.4,17.7,7.4,20.3,9.1L20.3,9.1z"/>
<polygon  points="10.2,11.6 10.4,11.7 11.7,10.4 5.4,4.1 4.1,5.4 4.1,5.5 10.2,11.6 "/>
<path  d="M9.1,20.3c-1.6-2.6-1.6-6,0-8.6L4.2,6.8c-4.2,5.4-4.3,13,0,18.4L9.1,20.3L9.1,20.3z"/>
<path  d="M11.6,22.9l-4.9,4.9c5.4,4.3,13.1,4.3,18.5,0l-4.9-4.9C17.7,24.6,14.3,24.6,11.6,22.9L11.6,22.9z"/>
<polygon  points="21.6,20.3 20.3,21.6 20.4,21.8 26.5,27.8 27.8,26.5 21.8,20.4 21.6,20.3 "/>
<path  d="M27.8,25.2c4.3-5.4,4.3-13.1,0-18.5l-4.9,4.9c1.7,2.6,1.7,6.1,0,8.7L27.8,25.2L27.8,25.2z"/>
</svg>
