<svg version="1.1" xmlns="http://www.w3.org/2000/svg" xmlns:xlink="http://www.w3.org/1999/xlink" viewBox="0 0 32 32">
<path id="Fill-2_11_"  d="M22.1,13.2l-2.9-2.2l2.2-9.4l1,0.1l0,0.2c0,0.4-0.1,0.9,0.2,1c0.3,0.3,0.6,0.3,0.9,0
	l0.3-0.3l0.7,0.5l-0.1,0.4c-0.1,0.3-0.1,0.7,0.2,0.9c0.4,0.3,0.8,0.1,1-0.1l0.3-0.3l0.7,0.5l-0.1,0.4c-0.1,0.3-0.1,0.7,0.2,0.9
	c0.4,0.3,0.8,0.1,1-0.1l0.3-0.3l0.7,0.5l-0.1,0.4c-0.2,0.4-0.1,0.7,0.2,1c0.2,0.1,0.6,0.4,0.9,0.4c0.2,0,0.3,0.3,0.5,0.3h0.2L30.4,8
	L31,8.3l-0.6,0.3L22.1,13.2L22.1,13.2z M20.3,10.7l1.9,1.4l6.1-3.5c-0.1,0-0.2-0.1-0.2-0.1c-0.4-0.3-0.7-0.8-0.7-1.2
	c-0.5,0.1-1,0-1.3-0.3c-0.4-0.3-0.6-0.7-0.7-1.2c-0.5,0.1-1,0-1.3-0.3c-0.4-0.3-0.6-0.7-0.7-1.2c-0.4,0.1-0.9,0-1.3-0.4
	c0,0,0,0-0.1,0L20.3,10.7L20.3,10.7z"/>
<path id="Fill-3_13_"  d="M20.3,15.3c-0.5,0-0.9-0.2-1.3-0.4c-1-0.7-1.2-2.1-0.5-3.1c0.2-0.3,0.5-0.6,0.9-0.7l0.3-0.1
	l2.9,2.1l0,0.3c0,0.4-0.2,0.8-0.4,1.1C21.6,15,21,15.3,20.3,15.3L20.3,15.3z M19.5,12.1c-0.1,0.1-0.2,0.2-0.3,0.3
	c-0.4,0.5-0.3,1.3,0.3,1.7c0.5,0.4,1.3,0.3,1.7-0.3c0.1-0.1,0.1-0.2,0.2-0.3L19.5,12.1L19.5,12.1z"/>
<path id="Fill-4_14_"  d="M10.2,18.5c-2.7,0-5.5-1.7-7.3-4.4C1.5,12.1,0.9,10,1,7.9c0.1-2.1,1-3.8,2.5-4.8
	c0.9-0.6,2-0.9,3.1-0.9c2.7,0,5.5,1.7,7.3,4.4c1.3,1.9,1.9,4.1,1.8,6.2c-0.1,2.1-1,3.8-2.5,4.8C12.4,18.1,11.3,18.5,10.2,18.5
	L10.2,18.5z M6.7,3.1c-1,0-1.8,0.3-2.6,0.8C2.8,4.7,2.1,6.2,2,8c-0.1,1.8,0.5,3.8,1.7,5.5c1.6,2.4,4.1,4,6.5,4c1,0,1.8-0.3,2.6-0.8
	c1.2-0.8,2-2.3,2.1-4.1c0.1-1.8-0.5-3.8-1.7-5.5C11.5,4.7,9,3.1,6.7,3.1L6.7,3.1z"/>
<path id="Fill-5_13_"  d="M25.1,30.4c-0.1,0-0.3-0.1-0.4-0.2L13.6,17.7c-0.2-0.2-0.2-0.5,0-0.7c0.2-0.2,0.5-0.2,0.7,0
	l11.1,12.5c0.2,0.2,0.2,0.5,0,0.7C25.3,30.3,25.2,30.4,25.1,30.4"/>
</svg>
