<svg version="1.1" xmlns="http://www.w3.org/2000/svg" xmlns:xlink="http://www.w3.org/1999/xlink" viewBox="0 0 32 32">
<path id="Shape_33_"  d="M16.4,3v2.6h1.3v6.6H15v1.8l-7.7,8.8H3.1v1.3h4l0.5,0.4L8,24.2h0.4v-0.5l7.7-8.8h1.6v9.3H19
	V15H27v9.3h1.3V5.7h1.3V3H16.4z M20.3,13.6V8.3h5.3v5.3H20.3L20.3,13.6z M27,7h-1.3h-5.3H19V5.7H27V7L27,7z"/>
<rect id="Rectangle-path_29_" x="12.4" y="18.9"  width="6.6" height="1.4"/>
<path id="Shape_34_"  d="M12.6,20.2C12.6,20.2,12.6,20.2,12.6,20.2l-0.7,0C12.2,20.3,12.4,20.3,12.6,20.2L12.6,20.2z
	 M24.3,19.5c-1.7-0.2-3.2-0.3-4.6-0.3c-0.2,0.4-0.5,0.8-0.9,1.1c1.6,0.1,3.3,0.2,5.1,0.3c3.6,0.4,5.6,1.1,5.9,1.6c0,0,0,0-0.1,0.1
	c0,0,0,0-0.1,0.1c0,0-0.1,0.1-0.1,0.1c0,0-0.1,0-0.1,0.1c0,0-0.1,0.1-0.2,0.1c-0.1,0-0.1,0.1-0.2,0.1c-0.1,0-0.1,0.1-0.2,0.1
	c-0.1,0-0.1,0.1-0.2,0.1c-0.1,0-0.2,0.1-0.3,0.1c-0.1,0-0.2,0.1-0.3,0.1C28.1,23,28,23,27.9,23c-0.1,0-0.2,0.1-0.3,0.1
	c-0.1,0-0.3,0.1-0.4,0.1c-0.1,0-0.2,0.1-0.3,0.1c-0.1,0-0.3,0.1-0.4,0.1c-0.1,0-0.3,0.1-0.4,0.1c-0.2,0-0.3,0.1-0.5,0.1
	c-0.1,0-0.3,0-0.4,0.1c-0.2,0-0.4,0-0.5,0.1c-0.2,0-0.3,0-0.5,0.1c-0.2,0-0.4,0-0.6,0.1c-0.2,0-0.3,0-0.5,0.1c-0.2,0-0.4,0-0.7,0.1
	c-0.2,0-0.4,0-0.5,0c-0.2,0-0.5,0-0.7,0.1c-0.2,0-0.4,0-0.6,0c-0.3,0-0.6,0-0.8,0c-0.2,0-0.4,0-0.6,0c-0.3,0-0.7,0-1,0
	c-0.2,0-0.3,0-0.5,0c-0.5,0-1,0-1.6,0c-0.5,0-1.1,0-1.6,0c-0.2,0-0.4,0-0.6,0c-0.3,0-0.6,0-0.9,0c-0.3,0-0.5,0-0.8,0
	c-0.2,0-0.4,0-0.6,0c-0.3,0-0.7,0-1-0.1c-0.1,0-0.2,0-0.3,0c-5-0.4-7.8-1.2-8.1-1.8c0.2-0.4,2-1,5.1-1.5c0,0,0.5-0.1,1.5-0.2l-0.1,0
	c1.1-0.1,2.4-0.2,3.9-0.3c-0.3-0.3-0.9-1.1-0.9-1.1l-3.8,0.4C4.3,19.9,1,20.7,1,22.2v3.3C1,27.4,2.6,29,4.5,29h23
	c1.9,0,3.5-1.6,3.5-3.5v-3.3C31,20.7,27.7,19.9,24.3,19.5L24.3,19.5z M19,20.2c1.4,0.1,2.6,0.1,3.7,0.2L19,20.2L19,20.2z M23,22.9
	c0.3-0.1,0.6-0.2,0.8-0.3c0.3-0.1,0.7-0.2,0.9-0.4c0.1-0.1,0.1-0.3,0.1-0.4c0-0.2-0.1-0.3-0.2-0.5c-0.2-0.2-0.5-0.2-0.5-0.2
	c0,0,0,0,0,0c0,0-0.1,0-0.1,0c-1.1,0.1-1.4,1-1.4,1.6C22.6,23,22.8,23,23,22.9L23,22.9z"/>
</svg>
