<svg version="1.1" xmlns="http://www.w3.org/2000/svg" xmlns:xlink="http://www.w3.org/1999/xlink" viewBox="0 0 32 32">
    <path d="M29.5,20.1c0-0.2-0.1-0.3-0.2-0.5L22,12.2c-0.3-0.3-0.7-0.3-1,0c-0.2,0.1-0.2,0.4-0.2,0.5
		c0,0,0,0,0,0v6.7h-4l0-11.7h0C16.7,7.3,16.4,7,16,7c-0.4,0-0.7,0.3-0.7,0.7h0v0c0,0,0,0,0,0v0.8c0,0,0,0,0,0v0.7v10.2h-4v-6.7
		c0,0,0,0,0,0c0-0.2-0.1-0.4-0.2-0.6c-0.3-0.3-0.8-0.3-1,0l-7.2,7.4c-0.3,0.3-0.3,0.8,0,1c0.1,0.1,0.3,0.2,0.5,0.2c0,0,0,0,0.1,0
		h6.4V31h5.5h1.5h5.5l0-10.1h6.5C29.1,20.9,29.4,20.6,29.5,20.1C29.4,20.2,29.5,20.1,29.5,20.1L29.5,20.1
		C29.5,20.1,29.5,20.1,29.5,20.1L29.5,20.1z M9.8,19.4H5l4.8-4.9V19.4L9.8,19.4z M15.3,29.5h-4v-8.7h4V29.5L15.3,29.5z M20.8,29.5
		h-4v-8.7h4V29.5L20.8,29.5z M22.2,19.4v-4.9l4.8,4.9H22.2L22.2,19.4z" />
    <circle cx="16" cy="3.6" r="2.6" />
    <circle cx="10.5" cy="9.2" r="2.6" />
    <circle cx="21.5" cy="9.2" r="2.6" />
</svg>
