<svg version="1.1" xmlns="http://www.w3.org/2000/svg" xmlns:xlink="http://www.w3.org/1999/xlink" viewBox="0 0 32 32">
    <path d="M28.4,21h-2c-0.4,0-0.7-0.3-0.7-0.7c0-0.4,0.3-0.7,0.7-0.7h2c0.4,0,0.7-0.3,0.8-0.7l0.5-2.9
		c0-0.1,0-0.3-0.1-0.4c-0.1-0.1-0.2-0.2-0.3-0.2l-5.6-0.7c-0.1,0-0.2-0.1-0.3-0.2l-5.1-4.3c-0.3-0.2-0.7-0.4-1-0.4h-8
		c-0.3,0-0.6,0.2-0.8,0.4L6,14.2c-0.1,0.1-0.2,0.2-0.4,0.3l-2.9,0.9c-0.3,0.1-0.5,0.4-0.5,0.7l0.4,2.6c0.1,0.6,0.6,1.1,1.2,1.1h3.6
		c0.4,0,0.7,0.3,0.7,0.7c0,0.4-0.3,0.7-0.7,0.7H4c-1.3,0-2.3-0.9-2.5-2.2L1,16.2c-0.2-1,0.4-1.9,1.4-2.2L5,13.2l2.2-3.5
		c0.4-0.6,1.1-1,1.9-1h8c0.7,0,1.4,0.2,1.9,0.7l4.9,4.1l5.4,0.7c0.5,0.1,0.9,0.3,1.2,0.7c0.3,0.4,0.4,0.9,0.3,1.4l-0.5,2.9
		C30.4,20.2,29.5,21,28.4,21z" />
    <path d="M26.2,20.3" />
    <path d="M23.6,14.3" />
    <path d="M21.8,21h-9.7c-0.4,0-0.7-0.3-0.7-0.7c0-0.4,0.3-0.7,0.7-0.7h9.7c0.4,0,0.7,0.3,0.7,0.7
		C22.5,20.7,22.2,21,21.8,21z" />
    <path d="M9.8,23.3c-1.6,0-3-1.3-3-3c0-1.6,1.3-3,3-3c1.6,0,3,1.3,3,3C12.8,22,11.5,23.3,9.8,23.3z M9.8,18.7
		c-0.9,0-1.6,0.7-1.6,1.6S8.9,22,9.8,22s1.6-0.7,1.6-1.6S10.7,18.7,9.8,18.7z" />
    <path d="M24.1,23.3c-1.6,0-3-1.3-3-3c0-1.6,1.3-3,3-3c1.6,0,3,1.3,3,3C27.1,22,25.7,23.3,24.1,23.3z M24.1,18.7
		c-0.9,0-1.6,0.7-1.6,1.6s0.7,1.6,1.6,1.6s1.6-0.7,1.6-1.6S25,18.7,24.1,18.7z" />
</svg>
