<svg version="1.1" xmlns="http://www.w3.org/2000/svg" xmlns:xlink="http://www.w3.org/1999/xlink" viewBox="0 0 32 32">
    <path d="M16,31c-4,0-7.8-1.6-10.6-4.4S1,20,1,16S2.6,8.2,5.4,5.4S12,1,16,1s7.8,1.6,10.6,4.4S31,12,31,16 s-1.6,7.8-4.4,10.6C23.7,29.4,20,31,16,31z M16,4.5c-3.1,0-6,1.2-8.1,3.4s-3.4,5-3.4,8.1s1.2,6,3.4,8.1c2.2,2.2,5.1,3.4,8.1,3.4 s6-1.2,8.1-3.4c2.2-2.2,3.4-5.1,3.4-8.1s-1.2-5.9-3.4-8.1C22,5.7,19.1,4.5,16,4.5z" /> 
    <path d="M21.1,19.3h-6.3c-1,0-1.7-0.8-1.7-1.7V9.7c0-1,0.8-1.7,1.7-1.7s1.7,0.8,1.7,1.7v6.2h4.6 c1,0,1.7,0.8,1.7,1.7C22.9,18.6,22.1,19.3,21.1,19.3z" />
</svg>
