<svg version="1.1" xmlns="http://www.w3.org/2000/svg" xmlns:xlink="http://www.w3.org/1999/xlink" viewBox="0 0 32 32">
    <path d="M16,29.3c-0.7,0-1.3-0.2-1.8-0.7L4.2,19C2.1,16.9,1,14.2,1,11.5c0-2.4,1-4.7,2.7-6.3
        c3.1-3,8.4-3.3,12.3-0.9c3.9-2.4,9.2-2.1,12.3,0.9C30,6.8,31,9.1,31,11.5c0,2.7-1.1,5.4-3.2,7.4l-10.1,9.7
        C17.3,29.1,16.7,29.3,16,29.3z M10.2,6C8.6,6,7.1,6.5,6,7.6c-1.1,1-1.6,2.4-1.6,3.9c0,1.8,0.8,3.6,2.2,5l9.5,9.2l9.4-9.1
        c1.4-1.4,2.2-3.2,2.2-5c0-1.5-0.6-2.9-1.7-4c-2.2-2.1-6.3-2.1-9,0.1l-1,0.8l-1-0.8C13.6,6.6,11.9,6,10.2,6z" />
</svg>
