<svg version="1.1" xmlns="http://www.w3.org/2000/svg" xmlns:xlink="http://www.w3.org/1999/xlink" viewBox="0 0 32 32">
    <path d="M16,31C7.7,31,1,24.3,1,16S7.7,1,16,1s15,6.7,15,15S24.3,31,16,31z M16,3.5C9.1,3.5,3.5,9.1,3.5,16
        S9.1,28.5,16,28.5S28.5,22.9,28.5,16S22.9,3.5,16,3.5z" />
    <rect x="14.6" y="14.6" width="2.7" height="8.2" />
    <path d="M14.6,10.5c0-0.4,0.1-0.7,0.4-1c0.2-0.3,0.6-0.4,1-0.4c0.4,0,0.7,0.1,1,0.4c0.2,0.3,0.4,0.6,0.4,1
    c0,0.4-0.1,0.7-0.4,1c-0.2,0.3-0.6,0.4-1,0.4s-0.7-0.1-1-0.4C14.8,11.3,14.6,10.9,14.6,10.5z" />
</svg>
