<svg version="1.1" xmlns="http://www.w3.org/2000/svg" xmlns:xlink="http://www.w3.org/1999/xlink" viewBox="0 0 32 32">
    <path d="M16.2,15.6c-2.3,0-4.2-1.9-4.2-4.2s1.9-4.2,4.2-4.2s4.2,1.9,4.2,4.2S18.5,15.6,16.2,15.6z M16.2,9.3
    c-1.3,0-2.2,0.9-2.2,2.1s1,2.1,2.2,2.1s2.2-1,2.2-2.1C18.3,10.3,17.3,9.3,16.2,9.3z" />
    <path d="M16,31L7.6,18.7c-3.2-4.1-2.7-11,1-14.7c2-2,4.6-3,7.5-3c2.8,0,5.5,1.1,7.5,3c3.6,3.7,4.1,10.6,0.9,14.8
    L16,31z M16,3c-2.2,0-4.4,0.9-6,2.5c-3,3-3.4,8.6-0.8,12.1l6.8,9.7l6.8-9.7C25.4,14.1,25,8.5,22,5.5C20.5,3.9,18.4,3,16,3z" />
</svg>
