<svg version="1.1" xmlns="http://www.w3.org/2000/svg" xmlns:xlink="http://www.w3.org/1999/xlink" viewBox="0 0 32 32">
    <path d="M16,31C7.7,31,1,24.3,1,16S7.7,1,16,1s15,6.7,15,15S24.3,31,16,31z M16,2C8.3,2,2,8.3,2,16s6.3,14,14,14
    s14-6.3,14-14S23.7,2,16,2z" />
    <path d="M16,23.9L16,23.9c-0.3,0-0.5-0.1-0.7-0.3L9.7,18c-2.1-2.2-2.2-5.4-0.3-7.4c0.9-0.9,2.1-1.4,3.4-1.4
    c1.2,0,2.3,0.4,3.3,1.1c1-0.7,2.1-1.1,3.3-1.1c1.3,0,2.5,0.5,3.4,1.4c1.9,1.9,1.8,5.2-0.3,7.3l-5.7,5.7C16.5,23.8,16.3,23.9,16,23.9
    z M12.7,10.3c-1,0-2,0.4-2.7,1.1c-1.5,1.5-1.4,4.2,0.3,5.9L16,23l5.6-5.6c1.7-1.8,1.9-4.4,0.3-6c-1.4-1.4-3.9-1.4-5.6,0L16,11.6
    l-0.3-0.3C14.8,10.6,13.8,10.3,12.7,10.3z" />
</svg>
