<svg version="1.1" xmlns="http://www.w3.org/2000/svg" xmlns:xlink="http://www.w3.org/1999/xlink" viewBox="0 0 32 32">
    <path d="M21.5,30.9c-0.7,0-1.3,0-2-0.1l-0.8,0c-3.5,0-6.7-0.5-6.8-0.5l-0.9-0.1L8.3,17.4l0.8-0.7
			c0.4-0.2,0.6-0.5,0.8-0.8l0.1-0.3c0.2-0.5,0.6-1.4,1.3-2.1c1.6-1.3,4.2-5.7,4.6-8.6c0.1-0.8-0.1-2.3,0.6-3.2
			C16.8,1.2,17.3,1,17.9,1c0.5,0,2.2,0.1,3.3,1.6C22.2,4,22.3,6.2,21.5,9c-0.4,1.4-0.6,2.2-0.7,2.7c0.1,0,0.2,0,0.3,0c0,0,0,0,0,0
			c0,0,1.6-0.4,3.4-0.4c2,0,3.4,0.4,4.3,1.3c1.3,1.3,1.3,2.9,0.9,4c0.7,1.2,1.1,2.9,0,4.7c0.4,1.2,0.4,2.9-1.1,4.4
			c0.1,0.6,0,1.5-0.5,2.5c-0.7,1.2-2,2.1-3.8,2.5C23.5,30.8,22.6,30.9,21.5,30.9z M18.4,4.8l-0.1,0.6 M18.4,5.4
			c-0.3,0.8-2.7,7.8-5.4,9.9c-0.2,0.3-0.5,0.8-0.7,1.2c0,0.1-0.1,0.3-0.1,0.4c-0.2,0.5-0.6,1-1,1.3l2,9.5c1.2,0.1,3.3,0.3,5.5,0.3
			l0.8,0c1.8,0.1,3.1,0.1,4.2-0.1c0.7-0.2,1.7-0.5,2.1-1.2c0.3-0.6,0.2-1.2,0.1-1.2l-0.3-0.9l0.7-0.6c1.3-1,0.8-2.2,0.7-2.5
			l-0.4-0.8l0.6-0.7c1.1-1.2,0.4-2.1,0.1-2.4L26.7,17l0.5-0.9c0.1-0.2,0.5-1-0.1-1.6c-0.4-0.4-1.3-0.6-2.5-0.6c-1.5,0-2.9,0.3-3,0.3
			c-0.4,0.1-0.6,0.1-0.9,0.2c-0.1,0-0.4,0.1-0.7,0.1c-0.6,0-1.1-0.3-1.4-0.7c-0.7-0.9-0.6-2.6,0.4-5.6c0.8-2.5,0.4-3.6,0.1-4
			c-0.2-0.3-0.5-0.4-0.7-0.5c0,0.3,0,0.8,0,1.1" />
    <path d="M9.7,31h-6c-0.6,0-1.2-0.2-1.6-0.7c-0.4-0.5-0.6-1.1-0.6-1.7l1-9.2c0.1-1.2,1.1-2.1,2.3-2.1h2.6
			c1.1,0,2.1,0.8,2.4,2l1.9,9.3c0.1,0.7,0,1.4-0.5,1.8C10.8,30.8,10.3,31,9.7,31z M4.2,28.4H9l-1.7-8.6l-2.2,0.1L4.2,28.4z" />
</svg>
